<?xml version="1.0" encoding="UTF-8"?>
<svg id="Capa_1" data-name="Capa 1" xmlns="http://www.w3.org/2000/svg" viewBox="0 0 1080 1920">
  <defs>
    <style>
      .cls-1, .cls-2, .cls-3, .cls-4, .cls-5, .cls-6, .cls-7, .cls-8, .cls-9, .cls-10, .cls-11, .cls-12, .cls-13, .cls-14, .cls-15, .cls-16, .cls-17, .cls-18, .cls-19 {
        stroke-miterlimit: 10;
      }

      .cls-1, .cls-3, .cls-15 {
        fill: none;
      }

      .cls-1, .cls-6, .cls-7, .cls-8, .cls-9, .cls-10, .cls-11, .cls-12, .cls-13, .cls-18 {
        stroke: #000;
      }

      .cls-20, .cls-11 {
        fill: #330125;
      }

      .cls-2 {
        stroke-width: 8px;
      }

      .cls-2, .cls-4, .cls-14 {
        fill: #f9d3cf;
      }

      .cls-2, .cls-4, .cls-14, .cls-15 {
        stroke: #e4b3ab;
      }

      .cls-3, .cls-19 {
        stroke: #ef1d45;
      }

      .cls-4, .cls-8 {
        stroke-width: 2px;
      }

      .cls-5 {
        stroke: #fff;
      }

      .cls-5, .cls-7 {
        fill: #fff;
      }

      .cls-6, .cls-11, .cls-17 {
        stroke-width: 4px;
      }

      .cls-8 {
        fill: #e0dade;
      }

      .cls-10 {
        fill: #fcfcfc;
      }

      .cls-12 {
        fill: #563913;
      }

      .cls-13 {
        fill: #afafaf;
      }

      .cls-16 {
        stroke: #630;
      }

      .cls-16, .cls-17 {
        fill: #a46c47;
      }

      .cls-17 {
        stroke: #763810;
      }

      .cls-18 {
        fill: #262526;
        stroke-width: 3px;
      }

      .cls-19 {
        fill: #e84d85;
      }
    </style>
  </defs>
  <path class="cls-18" d="M348.19,882.14c101.36-1.89,202.72-3.78,304.08-5.67,26.97,60.79,37.23,111.08,41.68,145.2,9.28,71.17,9.61,197.48,32.38,237.68,1.68,2.96,8.27,13.92,11.53,29.61,4.08,19.65.5,35-.11,38.12-3.69,18.94,5.02,86.3,50.86,278.63-8.52,3.39-23.36,8.16-42.62,8.76-25.47.8-44.74-6.13-53.66-9.92-14.38-24.48-33.57-61.79-47.15-109.16-15.02-52.42-8.9-67.33-19.51-124.38-12.66-68.06-28.17-80.09-60.16-179.29-15.91-49.34-10.27-109.08-37.4-138.27-3.24-3.48-12.7-13.66-20.68-12.05-8.36,1.69-10.75,15.43-11.84,21.31-7.96,42.9-7.84-2.77-22.76,80.72-7.35,41.12-19.85,71.55-24.39,108.5-.32,2.62-.54,4.85-.54,4.85-1.97,19.9.6,25.75-.54,36.61-.95,9-4.24,16.29-10.84,30.87-2.07,4.58-6,12.74-7.59,24.26-.45,3.28-.53,5.78-.62,7.03-.51,6.89-.72,14.76-1.91,45.13-.99,25.26-1.76,41.9-2.34,57-.95,24.78,0,66.85,8.89,142.12-7.7,4.51-33.67,18.52-69.86,16.67-25.88-1.32-44.49-10.12-53.01-14.78-4.18-25.93-8.78-62.77-9.76-107.17-.5-22.64.5-42.52,2.44-81.37,5.69-113.89,11.24-116.4,7.48-158.57-3.06-34.31-7.83-44.96-6.5-76.75.73-17.53,3.04-34.79,2.2-64.12-.51-17.88-1.92-30.84-2.2-33.8-2.42-25.29,5-78.43,44.46-197.75Z"/>
  <path class="cls-11" d="M300.13,1551.45c1.65,15.02,3.68,27.54,5.44,37.07.64,3.46,1.18,6.25,1.7,8.75,1.93,9.38,3.69,15.98,7.73,35.09,5.15,24.34,7.73,36.75,8.33,48.17.81,15.36-.9,22.3-2.07,37.87-1.19,15.69-1.74,38.68,1.92,67.71,1.8,1.92,20.78,21.38,58.46,23.55,28.99,1.68,57.49-7.54,72.84-23.55,4.02-27.99.75-49.08-2.88-63-6.17-23.7-14.47-30.83-18.23-56.6-2.51-17.23-.11-22.97,0-47.11.07-15.95-.87-38.9-5.73-67.05-12.91,3.17-29.1,6.07-47.92,7.07-33.68,1.79-61.4-3.28-79.59-7.97Z"/>
  <g>
    <path class="cls-20" d="M352.37,1677.01c8.32,1.99,23.21,4.61,41.57,2.65,15.75-1.68,27.72-6.06,34.92-9.26"/>
    <path d="M352.43,1676.75c25.24,5.62,52.38,3.16,75.86-7.64,0,0,1.14,2.58,1.14,2.58-24.21,10.29-51.74,12.02-77.13,5.59,0,0,.12-.52.12-.52h0Z"/>
  </g>
  <path class="cls-11" d="M685.59,1581.79c33.42,2.15,66.84,4.31,100.26,6.46,2.12,26.75,4.23,53.5,6.35,80.25,5.44,8.56,13.05,19.05,23.53,30.18,8.17,8.67,12.65,13.82,20.27,18.95,13.24,8.92,26.9,12.36,35.55,13.85,7.68-.32,19.3-.31,33.37,1.66,18.81,2.63,30.14,4.22,37.92,11.62,13.91,13.22,6.16,35.23,5.14,37.99-6.17,5.66-17.43,14.25-34.68,19.25-33.01,9.56-63.53-1.09-71.71-4.2-28.6-6.23-58.87-13.63-90.54-22.43-32.24-8.96-62.47-18.41-90.58-27.99,10.98-16.77,26.12-44.82,31.56-81.66,5.32-36.05-.84-65.64-6.43-83.92Z"/>
  <polygon class="cls-8" points="351.96 859.04 647.17 846.13 660.59 878.26 340.77 888.25 351.96 859.04"/>
  <path class="cls-13" d="M541.15,884.84c-19.63.42-39.27.84-58.9,1.26-.05-11.07-.1-22.13-.15-33.2,18.99-.34,37.97-.68,56.96-1.02.7,10.99,1.39,21.97,2.09,32.96Z"/>
  <path class="cls-9" d="M532.74,880.65c-13.95.12-27.91.24-41.86.36-.12-7.9-.25-15.81-.37-23.71,13.41-.19,26.83-.38,40.24-.58.66,7.98,1.33,15.95,1.99,23.93Z"/>
  <path class="cls-11" d="M901.11,383.99l54.43,22.29-91.17,155.71c-1.05,2.18-8.09,16.13-25.85,21.37-16.42,4.84-30.1-1.28-32.66-2.48-50.35-13.21-100.7-26.42-151.04-39.63-11.23-11.12-24.52-26.29-36.74-45.82-12.18-19.48-19.72-37.58-24.49-52.01,34.04,6.5,71.57,15.27,111.58,27.24,38.86,11.62,73.85,24.4,104.78,37.15,30.39-41.28,60.78-82.56,91.17-123.84Z"/>
  <path class="cls-6" d="M266.54,486.31l127.11-48.14h117.1l133.3,48.14c-18.73,40.83-39.87,100.34-45.53,173.84-6,77.92,7.63,142.39,21.12,185.96-101.36,1.91-202.72,3.82-304.08,5.73,17.17-28.76,47.81-90.09,42.32-170.3-6.95-101.56-67.55-170.71-91.34-195.24Z"/>
  <path class="cls-11" d="M380.86,383.09c.29,6.69-.51,16.48-6.72,26.28-9.55,15.06-25.62,20.22-55.28,34.4-12.84,6.14-31.01,15.3-52.32,27.75,15.27,26.07,30.54,52.15,45.82,78.22,30.92,52.79,25.13,100.55,26.01,131.74,1.18,41.82-2.98,107.58-34.14,185.71,54.74-3.35,109.48-6.7,164.22-10.05,6.01-103.55-7.14-178.51-21.14-229.18-13.98-50.62-5.12-106.1-32.52-175.66-11.63-29.53-24.43-53.17-33.93-69.22Z"/>
  <g>
    <g>
      <path class="cls-4" d="M911.21,396.02c1.81-3.76,4.2-10.03,4.49-18.06.35-9.75-2.58-17.31-4.49-21.31-1.66-7.26-3.33-14.51-4.99-21.77l2.5-17.14c-2.09-1.67-5.55-4.85-7.99-9.73-5.8-11.62-2.87-27.18,3-28.72,1.34-.35,3.65-.18,7.49,3.24,2.16,2.32,4.33,4.63,6.49,6.95,4.16-2.16,8.32-4.32,12.48-6.48,4.15.18,8.31.36,12.46.54-3.16-17.63-6.31-35.26-9.47-52.88-1.46-4.51,1.49-9.16,5.99-10.19,4.69-1.07,9.81,2.07,10.48,6.95,5.49,22.54,10.98,45.08,16.47,67.62l15.48,7.87c.65,1.78,1.89,6.02.5,11.12-.96,3.52-2.79,6.02-3.99,7.41,1.02,2.17,2.5,6.07,2.5,11.12s-1.48,8.94-2.5,11.12c-6.99,18.84-13.98,37.67-20.97,56.51l-7.49,8.34-38.44-12.51Z"/>
      <path class="cls-4" d="M950.68,295.05c-2.76-2.56-8.2-6.94-16.47-9.73-8.33-2.8-15.57-2.65-19.47-2.32-4.16,2.16-8.32,4.32-12.48,6.48-1.86,2.81-3.85,6.37-5.49,10.65-2.65,6.92-3.38,13.12-3.49,17.6-.83,5.71-1.66,11.42-2.5,17.14,1.73.04,5.2-.11,8.99-1.85,4.12-1.9,6.43-4.68,7.4-6.02,1.69-5.19,3.38-10.38,5.08-15.57"/>
      <path class="cls-4" d="M966.15,302.92c-10.71-1.12-19.1-2.79-24.96-4.17-6.64-1.56-11.78-3.15-17.97-1.39-4.42,1.26-7.55,3.71-9.48,5.56-2.16,12.97-4.33,25.94-6.49,38.91-.08.48-.55,3.8,2,6.48,2.05,2.16,5.27,3.09,8.4,2.46,1.36-1.28,2.72-2.57,4.08-3.85"/>
      <path class="cls-4" d="M948.68,331.64c-4.03-2.86-9.11-2.85-11.98-.46-2.31,1.92-2.48,4.78-2.5,5.56v8.34c-.2,2.71-2.26,4.97-4.99,5.56-3.03.65-6.25-.9-7.49-3.71-1.32-2.34-6.7-12.47-2.5-23.62,1.49-3.95,3.75-6.9,5.66-8.9,2.68-1.19,9.51-3.82,18.3-2.67,11.05,1.44,17.68,7.87,19.47,9.73"/>
    </g>
    <path class="cls-4" d="M212.67,798.29l33.88-29.38c2.33,2.32,8.05,7.35,16.48,8.62,7.71,1.15,13.73-1.44,16.48-2.87,7.26-5.43,18.25-12.21,32.5-16.08,11.2-3.04,21.01-3.35,28.38-2.87,6.56,1.34,13.12,2.68,19.69,4.02,2.52.65,4.38,3.27,4.58,6.32.22,3.43-1.72,6.7-4.58,7.47-6-2.49-17.17-5.92-30.67-2.87-6.81,1.54-12.36,4.31-16.48,6.89,22.74,6.92,45.48,13.84,68.21,20.77,3.15.68,5.39,3.51,5.49,6.23.13,3.48-3.21,7.62-7.78,6.89-17.09-4.37-34.18-8.75-51.27-13.12l47.61,15.99c5.64,1.23,8.88,5.35,8.53,7.84-.32,2.31-3.89,4.44-8.53,4.22-24.57-3.25-49.14-6.51-73.71-9.76,8.93,2.49,19.63,6.52,31.13,13.21,6.96,4.05,13.06,8.4,18.31,12.64,2.49,1.38,3.51,5.14,2.29,8.04-1.18,2.82-4.11,3.92-6.41,2.3-15.38-4.85-32.7-9.15-51.73-12.06-11.93-1.82-23.26-2.91-33.88-3.45-3.61.8-12.62,2.16-22.43-3.45-6.37-3.64-10.54-8.76-12.82-12.06-4.43-7.82-8.85-15.64-13.28-23.46Z"/>
  </g>
  <path class="cls-11" d="M506.31,382.82c14.53,69.83,21.9,124.81,23.38,155.13.73,14.94.94,30.57.94,30.57,0,29.89-.77,51.66-.94,55.44-1.03,22.26,2.24,81.62,19.47,237.66,43.9-4.41,87.8-8.82,131.7-13.23-17.45-20.57-40.91-53.78-52.03-97.92-9.29-36.88-6.1-65.99-1.58-98.72,6.9-50.03,18.14-117.69,37.27-199.47-29.77-4.84-53.92-11.04-71.41-16.21-39.38-11.64-52.62-20.29-57.98-24.05-14.63-10.28-23.58-21.42-28.8-29.19Z"/>
  <path class="cls-11" d="M266.54,468.91c4.85,1.61,30.63,10.62,42.56,34.4,10.32,20.56,3.61,38.84,1.63,43.67-41.73,37.49-83.47,74.98-125.2,112.47l81.01,108.5c-8.79,2.42-24.47,7.84-38.73,19.85-9.08,7.65-14.59,15.44-17.89,21.17-38.48-41.02-76.96-82.04-115.44-123.06-2.76-3.79-13.15-19.03-8.13-38.37,3.35-12.89,11.93-21.38,16.26-25.14,19.66-25.33,44.74-53.88,76.42-83.36,30.32-28.21,60.35-51.39,87.51-70.13Z"/>
  <path id="cuello" class="cls-14" d="M368.24,332.62c2.87-3.7,20.07-25.07,52.68-29.47,27.89-3.76,56.5,6.32,74.67,26.03,7.61,39.56,15.23,79.12,22.84,118.67-2.53,2.84-17.2,18.74-43.13,21.05-33.61,3-55.01-19.62-56.32-21.05-10.11-19.41-20.1-40.19-29.68-62.32-7.89-18.23-14.87-35.91-21.05-52.91Z"/>
  <path class="cls-2" d="M552.88,254.48c.52,3.75,8.21,65.68-31.93,113.3-10.26,12.17-29.01,34.41-55.88,34.4-26.16-.02-44.4-21.12-55.88-34.4-21.88-25.32-41.1-66.39-35.92-113.3,5.37-48.67,38.34-115.82,86.04-117.35,48.81-1.56,86.46,66.4,93.57,117.35Z"/>
  <path class="cls-16" d="M437.75,238.65l16.22,3.44c.23.58.51,1.51.5,2.66-.03,2.34-1.26,3.94-1.66,4.43-8.78.1-15.86-.76-20.79-1.59-8.82-1.49-12.39-3.17-20.12-4.07-8.33-.97-15.29-.32-19.96.4,6.04-2.91,12.09-5.82,18.13-8.73l27.68,3.46Z"/>
  <path class="cls-16" d="M542.45,248.29c-2.31-1.52-5.86-3.48-10.48-4.61-3.42-.84-7.14-1.14-14.97-.18-11.41,1.41-14.27,3.4-23.95,4.78-3.6.51-9.08,1.08-15.97.89-.2-.17-1.91-1.71-1.83-4.25.07-2.33,1.6-3.7,1.83-3.9,7.77-2.25,17.57-4.23,28.94-4.61,6.34-.21,12.15.12,17.3.71,1.99-.06,4.99.13,8.32,1.49,6.33,2.59,9.65,7.69,10.81,9.67Z"/>
  <path class="cls-17" d="M530.01,161.98c5.09,24.63,9.38,55.29,9.76,90.62.23,21.94-1.08,41.89-3.1,59.41-.77,6.7-1.9,12.95-3.72,19.29,0,0-2.28,7.92-6.04,15.95-5.56,11.89-19.38,30.31-40.26,49,21.78-10.73,34.2-24.68,41.67-36.32,10.31-16.07,16.39-35.81,16.33-35.84-.39-.22-6.55,17.42-20.84,44.81-9.54,18.28-13.29,22.86-14.93,33.23-2.39,15.05,1.84,28.49,5.62,37.26,4.89,12.62,10.13,29.22,13.51,49.28,4,23.72,4.07,44.35,3.13,59.69,6.85-13.66,15.55-35.16,18.89-63.08,1.65-13.79,1.64-26.13.98-36.38,4.84-.47,9.67-.95,14.51-1.42-6-69.76-5.61-124.41-4.05-162.17.8-19.47,2.66-52.34-5.84-93.87-6.02-29.4-12.22-57.95-33.18-74.04-14.38-11.04-28.99-11.06-57.91-11.09-26.04-.03-43.97-.04-62.98,11.09-32.87,19.24-46,58.34-50.22,73.18-.9,8.87-1.73,17.94-2.47,27.2,0,0-2.42,30.29-3.37,60.7-.93,29.64-.62,85.08,4.86,156.57,2.96-1.49,5.91-2.97,8.87-4.46,2.05,17.67,5.04,36.97,9.37,57.53,4.33,20.58,9.36,39.4,14.59,56.32.27-17.65,1.76-38.7,5.84-62.01,3.08-17.61,7.06-33.23,11.19-46.65,5.98-19.47,6.07-30.41,4.25-41.35-1.8-10.79-5.92-19.5-11.18-30.62-6.12-12.95-12.67-23.12-12.77-23.04-.11.08,6.96,13.04,16.05,26.88,4.05,6.16,7.13,10.17,10.02,13.41,1.62,1.82,2.44,2.72,3.48,3.66,8.69,7.85,22.24,8.24,22.85,6.18.39-1.31-4.71-2.84-13.63-9.96-1.34-1.07-7.19-5.8-12.51-11.89-7.15-8.19-10.98-16.44-18.35-32.61-3.7-8.11-5.55-12.16-7.24-16.93-1.31-3.69-4.13-12.11-8.57-42.29-3.33-22.66-3.33-28.71-3.04-33.74.48-8.25,1.8-15.02,2.92-19.63,0,0,0,0,0,0,3.46-37.02,14.51-62.9,13.86-63.15-.49-.19-5.65,14.76-9.24,31.24-1.68,7.71-2.36,13.21-4.63,31.91-1.33,10.94-2.87,23.87-4.56,38.43,13.52-6.42,27.05-12.83,40.57-19.25,11.7-.78,37.16-4.54,57.21-26.18,16.68-17.99,23.36-41.59,28.83-60.92,2.93-10.34,4.63-19.25,5.66-25.66-4.7,18.45-9.39,36.91-14.09,55.36,4.96,9.01,12.55,20.76,23.73,32.35,10.85,11.24,21.5,18.64,29.68,23.41-.31-11.75-1.13-24.66-2.74-38.51-1.74-15.01-4.13-28.69-6.76-40.91Z"/>
  <g>
    <path class="cls-7" d="M487.06,280.36c11.42-.12,22.84-.24,34.26-.35,3.66-5.08,7.32-10.16,10.98-15.24-1.98-1.59-11.08-8.52-23.95-7.09-12.45,1.39-19.89,9.66-21.62,11.69.11,3.66.22,7.32.33,10.98Z"/>
    <path class="cls-1" d="M531.32,264.01c1.01.25,2.81.54,4.97.05,1.63-.38,2.87-1.07,3.66-1.59"/>
    <path class="cls-1" d="M528.59,269.92c.5.3,1.65.9,3.21.87,1.44-.03,2.5-.57,2.99-.87"/>
    <path class="cls-1" d="M531.06,266.49c.9.26,2.32.56,4.07.4,1.68-.15,2.99-.66,3.83-1.06"/>
    <path class="cls-12" d="M519.44,270.35c-.3,5.94-7.59,10.12-13.59,9.83-5.38-.26-11.9-4.22-12.19-9.83-.32-5.99,6.6-11.27,12.89-11.27,6.29,0,13.19,5.3,12.89,11.27Z"/>
    <ellipse class="cls-5" cx="510.18" cy="264.01" rx="3.31" ry="2.9"/>
    <ellipse class="cls-9" cx="505.61" cy="265.83" rx="4.57" ry="5.39"/>
  </g>
  <g>
    <path class="cls-10" d="M441.5,280.36h-33.93l-9.98-14.88c1.68-1.48,11.92-10.2,25.61-7.79,7.66,1.34,12.89,5.56,15.3,7.79,1.88,1.89,3.77,3.78,5.65,5.67l-2.66,9.21Z"/>
    <path class="cls-1" d="M400.57,269.92c-.43.28-1.5.9-2.98.87-1.39-.02-2.4-.59-2.83-.87"/>
    <path class="cls-1" d="M399.88,263.65c-1.33.28-3.29.53-5.62.23-2.11-.26-3.8-.88-4.99-1.42"/>
    <path class="cls-1" d="M398.4,266.68c-.87.28-2.41.64-4.3.39-1.64-.22-2.89-.8-3.66-1.24"/>
    <path class="cls-12" d="M435.84,269.09c.06,5.86-6.99,11.69-13.83,11.23-5.58-.38-11.98-5-11.95-11.23.03-5.34,4.77-9.42,8.91-10.6,7.42-2.13,16.8,3.89,16.87,10.6Z"/>
    <ellipse class="cls-5" cx="428.69" cy="264.33" rx="3.31" ry="2.9"/>
    <ellipse class="cls-9" cx="424.12" cy="264.33" rx="4.57" ry="5.39"/>
  </g>
  <g>
    <path class="cls-15" d="M461.12,288.5l-1.77,12.47-8.43,19.42c-.12.72-.37,2.77.67,4.96,1.36,2.89,3.92,3.84,4.43,4.02h19.23c.19-.13,3.26-2.27,3.16-5.91-.05-1.89-.93-3.24-1.33-3.78"/>
    <ellipse class="cls-15" cx="459.76" cy="327.01" rx="3.52" ry="1.06"/>
    <ellipse class="cls-15" cx="470.32" cy="327.01" rx="3.52" ry="1.06"/>
  </g>
  <g>
    <path class="cls-19" d="M441.44,350.92c1.97-1.31,4.98-2.89,8.76-3.17,7.8-.58,9.88,5.05,17.2,4.91,6.7-.13,8.03-4.9,15.71-4.85,3.83.03,6.97,1.24,9.07,2.29-1.24,2.33-3.41,5.76-7,8.97-3.09,2.76-6.12,4.37-8.3,5.3-1.87.79-4.71,1.73-8.25,1.93-3.96.23-7.17-.55-9.2-1.22-3-.99-7.59-2.83-12.07-6.96-2.82-2.61-4.73-5.28-5.92-7.21Z"/>
    <path class="cls-3" d="M441.43,350.56c3.85,2.47,13.64,7.98,26.96,7.42,11.57-.49,19.97-5.32,23.79-7.88"/>
  </g>
</svg>