<?xml version="1.0" encoding="UTF-8"?>
<svg id="Capa_1" data-name="Capa 1" xmlns="http://www.w3.org/2000/svg" viewBox="0 0 1080 1920">
  <defs>
    <style>
      .cls-1, .cls-2, .cls-3, .cls-4, .cls-5, .cls-6, .cls-7, .cls-8, .cls-9, .cls-10, .cls-11, .cls-12, .cls-13, .cls-14, .cls-15, .cls-16, .cls-17, .cls-18, .cls-19 {
        stroke-miterlimit: 10;
      }

      .cls-1, .cls-2, .cls-3, .cls-13, .cls-14 {
        fill: none;
      }

      .cls-1, .cls-8, .cls-12, .cls-13 {
        stroke-width: 4px;
      }

      .cls-1, .cls-11, .cls-12, .cls-14, .cls-17 {
        stroke: #e4b3ab;
      }

      .cls-2, .cls-5, .cls-6, .cls-7, .cls-8, .cls-9, .cls-13, .cls-15, .cls-18 {
        stroke: #000;
      }

      .cls-3, .cls-19 {
        stroke: #ef1d45;
      }

      .cls-4 {
        stroke: #fff;
      }

      .cls-4, .cls-5 {
        fill: #fff;
      }

      .cls-7 {
        fill: #fcfcfc;
      }

      .cls-8, .cls-15 {
        fill: #330125;
      }

      .cls-9 {
        fill: #563913;
      }

      .cls-10 {
        stroke: #763810;
      }

      .cls-10, .cls-15 {
        stroke-width: 6px;
      }

      .cls-10, .cls-16 {
        fill: #a46c47;
      }

      .cls-11, .cls-12, .cls-17 {
        fill: #f9d3cf;
      }

      .cls-16 {
        stroke: #630;
      }

      .cls-17 {
        stroke-width: 7px;
      }

      .cls-18 {
        fill: #262526;
        stroke-width: 3px;
      }

      .cls-19 {
        fill: #e84d85;
      }
    </style>
  </defs>
  <path class="cls-8" d="M355.52,631.65c13.64,33.55,31.45,91.49,24.8,163.92-6.82,74.22-36.27,130.44-56.36,162.08,184.85,27.01,369.7,54.03,554.56,81.04,9.06-52.13,1.69-91.49-6.76-117.87-13.79-43.05-33.55-61.09-40.58-103.14-6.63-39.66,2.59-73.55,11.27-95.77-162.31-30.08-324.62-60.17-486.93-90.25Z"/>
  <g>
    <path class="cls-12" d="M353.79,840.27c-22.17-.46-47.42,0-75.05,2.22-36.29,2.92-67.95,8.18-94.14,13.82h-16.46l-15.14,28.11-23.7,13.82-8.56,58.12c-2.69,3.35-.78,7.06,2.38,7.98,2.26.66,5.34-.06,7.5-1.78,8.56-15.4,17.12-30.81,25.67-46.21l17.12,26.2,11.85,2.86,4.61,25.73c.71.62,3.38,2.83,7.9,3.34,6.82.76,11.53-3.07,11.85-3.34-.22-8.89-.44-17.79-.66-26.68l28.31-6.19c.65-.57,4.12-3.75,3.29-8.1-.51-2.65-2.37-4.46-3.29-5.24-6.14-2.7-12.29-5.4-18.43-8.1l10.53-11.12c.48-.72,2.34-3.31,6.58-4.61,5.88-1.8,11.26.44,11.85.7,5.71,1.97,16.91,5.17,31.6,5.02,13.61-.14,24.02-3.08,29.62-5.02,10.53-5.31,21.07-10.63,31.6-15.94l38.84-.95-25.67-44.63Z"/>
    <path class="cls-12" d="M153.01,884.42c-1.05,3.99-1.91,9.38-1.32,15.72.63,6.72,2.69,12.24,4.61,16.2"/>
    <path class="cls-12" d="M193.17,870.6c-4.46,5.35-9.65,13.06-12.51,22.87-5.9,20.29,1.83,37.02,5.92,44.31"/>
    <path class="cls-12" d="M202.38,895.38c-4.78,7.52-9.76,17.12-13.17,28.59-2.35,7.9-3.48,15.14-3.95,21.44"/>
    <path class="cls-12" d="M218.84,916.82c-2.4,2.62-5.2,6.29-7.24,10.96-3,6.86-3.04,12.85-2.63,16.68"/>
    <path class="cls-12" d="M231.4,922.33c-6.75,1.81-13.5,3.63-20.24,5.44"/>
  </g>
  <path class="cls-18" d="M796.51,1383.97c-11.59,9.26-33.82,24.58-67.18,34.26-37.04,10.74-69.22,9.13-85.66,7.37,10.76-9.18,34.57-27.02,72.14-36.84,35.28-9.21,65.48-6.84,80.7-4.79Z"/>
  <path class="cls-18" d="M580.55,1499.27c-11.35,7.07-35.64,20.2-70.63,24.56-41.61,5.18-74.16-5.05-87.17-9.82,12.73-7.04,39.9-20.03,78.15-23.33,36.61-3.16,65.38,4.11,79.65,8.6Z"/>
  <path class="cls-8" d="M424.43,1489.9h149.11c-10.84,27.3-12.39,50.52-12.02,65.54.81,32.87,9.48,58.06,19.03,73.67,10.52,17.19,21.04,34.38,31.56,51.57,2.74,1.36,29.48,15.11,32.07,41.75,1.94,20.02-10.51,39.51-32.07,50.34-36.82,36.84-73.64,73.67-110.46,110.51-44.63,25.37-96.86,25.14-124.98,3.68-17.05-13.01-21.33-30.84-22.54-40.52,13.85-21.56,28.17-47.42,40.58-77.36,14.79-35.68,23.2-68.32,28.05-95.77,2.04-30.56,3.29-62.52,3.51-95.77.2-30.32-.47-59.57-1.83-87.65Z"/>
  <path class="cls-8" d="M645.68,1401.97c49.9-9.07,99.79-18.14,149.69-27.21,9.22,42.63,18.43,85.27,27.65,127.9,32.06,39.7,64.12,79.4,96.18,119.1,8.96,4.68,33.25,18.76,45.09,45.43,6.96,15.69,6.9,29.64,6.01,38.06-2.73,5.69-16.42,32.45-52.6,45.43-48.2,17.29-92.72-5.53-96.18-7.37-18.95-27.9-47.08-62.67-88.67-97-52.08-43-77.47-45.86-87.92-76.13-12.2-35.35,14.41-54.7,9.77-119.1-1.5-20.8-5.65-37.79-9.02-49.11Z"/>
  <path class="cls-18" d="M580.55,1499.27l-157.8,14.73c5.5-69.49,6.23-148.09-2.25-233.91-4.72-47.76-11.79-92.67-20.29-134.45-15.47-7.14-55.68-27.91-81.15-69.99-26.89-44.41-20.89-85.38-18.03-99.46,6.69-12.11,16.67-27,31.56-42.36,21.99-22.68,45.85-37.23,63.12-46.04,39.29.32,68.63-5.66,87.92-11.05,39.87-11.13,53.77-24.46,87.92-29.47,33.15-4.86,62.26,1.51,81.15,7.37,24.05,31.92,48.09,63.85,72.14,95.77,14.21.12,45.96,1.97,78.9,18.42,38.48,19.21,55.27,46.69,60.87,57.1,1.64,16.61,1.55,43.39-11.27,73.67-21.09,49.8-63.44,77.92-81.15,88.41,8.12,65.32,16.23,130.64,24.35,195.97-15.23-2.06-45.42-4.43-80.7,4.79-37.57,9.81-61.38,27.66-72.14,36.84-10.52-38.06-21.04-76.13-31.56-114.19l-31.56,187.86Z"/>
  <path class="cls-18" d="M519.68,937.52c-3.89,4.99-10.11,14.52-11.27,27.34-1.6,17.66,7.36,30.83,11.27,35.89-.5-4.01-1.08-14.45,6.76-25.64,8.02-11.43,20.13-16.91,24.8-18.8"/>
  <path class="cls-18" d="M400.21,1145.65c-.58-13.45.48-40.41,18.03-69.99,19.68-33.17,49.3-51.44,63.12-58.94,9.69-9.11,24.38-13.41,38.32-11.05,16.72,2.82,29.67,14.75,31.56,29.47,20.29,92.09,40.58,184.18,60.87,276.27"/>
  <path class="cls-18" d="M724.82,950.42c11.88,37.02,22.87,78.07,31.56,122.79,7.95,40.93,12.91,79.38,15.78,114.81"/>
  <path class="cls-8" d="M338.86,826.52c17.53,24.56,35.07,49.11,52.6,73.67,25.25-3.16,55.21-8.54,87.92-17.88,40.42-11.54,73.34-25.79,98.44-38.6-28.55-17.6-57.11-35.2-85.66-52.8-13.73,7.12-30.76,14.6-51.1,20.87-40.52,12.49-77.04,14.9-102.19,14.73Z"/>
  <path id="cuello" class="cls-11" d="M536.5,305.66c9.42,3.29,43.97,14.51,91.61,12.41,33.21-1.46,56.64-8.69,67.12-12.41,1.89,46.97,3.79,93.93,5.68,140.9h-144.4c.35-22.35-.95-46.37-4.64-71.85-3.56-24.57-8.93-47.64-15.38-69.05Z"/>
  <path class="cls-15" d="M293.4,581.17c-2.66-3.54-26.88-37.11-7.89-75.51,17.93-36.27,59.85-47.42,65.38-48.81,41.47-12.57,89.76-24.22,144.27-32.23,142.03-20.88,263.9-7.91,346.03,7.37,8.66.84,36.76,4.48,59.74,23.94,30.69,25.99,27.63,59.35,27.05,64.46-6.42,57.04-19.64,103.32-31.56,125.24-24.8,45.6-66.82,111.57-137.51,186.02-2.77,5.98-9.55,18.01-24.8,27.63-26.16,16.49-56.42,12.74-61.99,11.97-12.73-6.7-36.35-17.22-68.76-21.18-34.26-4.19-61.95.96-76.65,4.6-11.55-6.27-23.79-13.85-36.07-23.02-37.64-28.11-59.48-59.07-72.14-81.96-41.7-56.17-83.41-112.35-125.11-168.52Z"/>
  <path class="cls-6" d="M560.6,840.11c43.19-50.23,86.37-100.47,129.56-150.7,13.78-88.44,27.55-176.88,41.33-265.32-13.9-.61-27.8-1.23-41.7-1.84-17.16,31.62-34.31,63.25-51.47,94.87-22.29-31.32-44.59-62.63-66.88-93.95-11.27,1.85-22.54,3.69-33.81,5.54,7.66,137.14,15.32,274.27,22.99,411.41Z"/>
  <path class="cls-17" d="M774.9,197.08c.84,4.55,13.14,79.81-51.11,137.69-16.42,14.79-46.42,41.82-89.44,41.8-41.88-.02-71.07-25.66-89.44-41.8-35.02-30.77-65.78-80.68-57.5-137.69,8.59-59.15,61.36-140.75,137.71-142.6,78.12-1.9,138.38,80.69,149.76,142.6Z"/>
  <path class="cls-16" d="M590.62,177.85l25.97,4.19c.37.71.82,1.83.8,3.23-.05,2.84-2.02,4.79-2.66,5.38-14.06.12-25.39-.92-33.27-1.94-14.11-1.81-19.83-3.85-32.21-4.95-13.34-1.18-24.48-.39-31.94.49,9.67-3.54,19.34-7.07,29.01-10.61l44.31,4.21Z"/>
  <path class="cls-16" d="M758.19,189.57c-3.7-1.84-9.38-4.23-16.77-5.6-5.47-1.01-11.43-1.39-23.96-.22-18.26,1.71-22.85,4.13-38.33,5.81-5.76.63-14.54,1.31-25.55,1.08-.32-.21-3.06-2.08-2.93-5.17.12-2.83,2.56-4.49,2.93-4.74,12.44-2.73,28.11-5.14,46.32-5.6,10.15-.25,19.44.14,27.68.86,3.18-.07,7.99.16,13.32,1.81,10.13,3.14,15.45,9.35,17.29,11.75Z"/>
  <path class="cls-10" d="M738.29,84.68c8.15,29.93,15.01,67.19,15.62,110.13.38,26.67-1.73,50.91-4.97,72.19-1.24,8.14-3.03,15.74-5.95,23.44,0,0-3.66,9.63-9.66,19.39-8.9,14.45-31.01,36.84-64.44,59.55,34.86-13.03,54.74-29.99,66.7-44.13,16.51-19.53,26.23-43.52,26.13-43.56-.63-.27-10.49,21.17-33.36,54.45-15.27,22.22-21.26,27.78-23.9,40.38-3.82,18.29,2.95,34.63,8.99,45.27,7.83,15.33,16.21,35.51,21.63,59.88,6.4,28.83,6.52,53.9,5,72.53,10.96-16.6,24.88-42.72,30.24-76.65,2.65-16.75,2.63-31.75,1.56-44.21,7.74-.58,15.48-1.15,23.22-1.73-9.6-84.77-8.99-151.19-6.49-197.07,1.29-23.66,4.26-63.6-9.34-114.08-9.63-35.73-19.56-70.42-53.1-89.97-23.01-13.41-46.4-13.44-92.69-13.48-41.68-.04-70.38-.04-100.8,13.48-52.6,23.38-73.62,70.9-80.37,88.93-1.45,10.78-2.77,21.8-3.95,33.05,0,0-3.87,36.8-5.39,73.76-1.48,36.02-.99,103.39,7.78,190.27,4.73-1.81,9.47-3.61,14.2-5.42,3.28,21.47,8.07,44.92,15,69.92,6.93,25.01,14.98,47.88,23.35,68.45.43-21.45,2.81-47.03,9.34-75.36,4.93-21.4,11.3-40.38,17.91-56.69,9.57-23.65,9.72-36.96,6.8-50.25-2.88-13.11-9.47-23.69-17.89-37.21-9.8-15.73-20.28-28.09-20.44-28-.17.1,11.14,15.85,25.69,32.67,6.48,7.49,11.41,12.36,16.04,16.3,2.6,2.21,3.91,3.31,5.57,4.44,13.92,9.54,35.6,10.01,36.58,7.51.62-1.59-7.53-3.45-21.82-12.11-2.15-1.3-11.5-7.05-20.02-14.45-11.44-9.95-17.58-19.98-29.37-39.62-5.92-9.85-8.87-14.78-11.59-20.57-2.1-4.48-6.61-14.71-13.72-51.39-5.34-27.53-5.33-34.88-4.87-41,.76-10.03,2.88-18.25,4.67-23.85,0,0,0,0,0,0,5.53-44.99,23.23-76.44,22.19-76.74-.78-.23-9.05,17.94-14.78,37.97-2.68,9.37-3.78,16.06-7.41,38.78-2.12,13.29-4.59,29-7.3,46.7,21.65-7.8,43.29-15.59,64.94-23.39,18.72-.94,59.47-5.52,91.57-31.81,26.69-21.86,37.38-50.54,46.14-74.03,4.68-12.56,7.42-23.39,9.06-31.18-7.52,22.43-15.03,44.85-22.55,67.28,7.93,10.95,20.09,25.23,37.98,39.31,17.36,13.66,34.41,22.65,47.5,28.45-.5-14.28-1.81-29.97-4.38-46.8-2.79-18.23-6.61-34.87-10.82-49.71Z"/>
  <path class="cls-5" d="M669.55,228.53c18.28-.14,36.56-.29,54.83-.43,5.86-6.17,11.71-12.34,17.57-18.51-3.18-1.93-17.74-10.35-38.33-8.61-19.93,1.69-31.83,11.74-34.6,14.21.18,4.45.35,8.9.53,13.35Z"/>
  <path class="cls-2" d="M740.38,208.67c1.61.3,4.5.66,7.96.06,2.61-.46,4.6-1.29,5.86-1.94"/>
  <path class="cls-2" d="M736.02,215.85c.79.36,2.64,1.1,5.14,1.06,2.3-.03,4-.7,4.79-1.06"/>
  <path class="cls-2" d="M739.97,211.68c1.44.32,3.72.68,6.51.49,2.68-.18,4.79-.8,6.12-1.29"/>
  <path class="cls-9" d="M721.38,216.38c-.47,7.21-12.15,12.29-21.75,11.94-8.61-.32-19.04-5.13-19.51-11.94-.5-7.28,10.57-13.69,20.63-13.69,10.07,0,21.11,6.44,20.63,13.69Z"/>
  <ellipse class="cls-4" cx="706.55" cy="208.67" rx="5.3" ry="3.52"/>
  <ellipse class="cls-6" cx="699.23" cy="210.88" rx="7.32" ry="6.55"/>
  <path class="cls-7" d="M596.62,228.53h-54.3l-15.97-18.08c2.69-1.8,19.08-12.39,40.99-9.47,12.26,1.63,20.64,6.75,24.49,9.47,3.02,2.3,6.03,4.59,9.05,6.89l-4.26,11.19Z"/>
  <path class="cls-2" d="M531.11,215.85c-.68.34-2.4,1.09-4.77,1.06-2.23-.02-3.84-.72-4.53-1.06"/>
  <path class="cls-2" d="M530.02,208.23c-2.14.34-5.27.64-8.99.28-3.37-.32-6.09-1.07-7.99-1.72"/>
  <path class="cls-2" d="M527.64,211.91c-1.4.34-3.86.78-6.88.47-2.62-.26-4.63-.98-5.86-1.51"/>
  <path class="cls-9" d="M587.57,214.84c.1,7.12-11.19,14.21-22.13,13.65-8.92-.46-19.18-6.07-19.13-13.65.04-6.49,7.63-11.44,14.26-12.89,11.88-2.59,26.89,4.73,27,12.89Z"/>
  <ellipse class="cls-4" cx="576.12" cy="209.05" rx="5.3" ry="3.52"/>
  <ellipse class="cls-6" cx="568.8" cy="209.05" rx="7.32" ry="6.55"/>
  <path class="cls-1" d="M628.03,238.43l-2.84,15.15-13.49,23.6c-.19.87-.59,3.37,1.06,6.03,2.18,3.51,6.28,4.66,7.1,4.88h30.78c.3-.15,5.22-2.76,5.06-7.18-.08-2.29-1.49-3.93-2.13-4.59"/>
  <ellipse class="cls-14" cx="625.85" cy="285.22" rx="5.63" ry="1.29"/>
  <ellipse class="cls-14" cx="642.76" cy="285.22" rx="5.63" ry="1.29"/>
  <path class="cls-19" d="M596.53,314.28c3.16-1.59,7.97-3.51,14.01-3.85,12.49-.71,15.81,6.14,27.53,5.97,10.73-.15,12.86-5.96,25.14-5.89,6.13.03,11.16,1.51,14.52,2.79-1.98,2.83-5.47,7.01-11.2,10.9-4.95,3.36-9.8,5.31-13.28,6.44-3,.96-7.54,2.1-13.21,2.34-6.34.28-11.48-.67-14.72-1.49-4.8-1.21-12.15-3.44-19.31-8.46-4.52-3.17-7.57-6.42-9.47-8.76Z"/>
  <path class="cls-3" d="M596.51,313.85c6.16,3,21.83,9.7,43.15,9.02,18.51-.6,31.95-6.47,38.07-9.57"/>
  <path class="cls-13" d="M641.31,750.08c43.42-17.28,67.31-38.2,81.15-54.33,21.88-25.5,23.74-44.95,48.47-92.09,15.14-28.87,30.17-51.55,40.58-66.3"/>
  <g>
    <path d="M436.17,543.8c9.84,15.53,21.05,31.89,33.81,48.81,11.79,15.62,23.65,30.04,35.28,43.28"/>
    <path d="M436.17,543.8c21.89,30.88,46.16,61.8,70.36,90.98,0,0-2.53,2.22-2.53,2.22-6.58-7.03-12.93-14.28-19.01-21.75-18.21-22.39-34.78-46.23-48.82-71.45h0Z"/>
  </g>
  <g>
    <path class="cls-12" d="M664.05,351.44c-34.75-2.99-69.49-5.98-104.24-8.96-2.85-.53-19.33-3.33-34.08,5.17-8.69,5.01-12.67,11.56-14.28,14.73-3.24,39.36-6.47,78.72-9.71,118.08h72.14c5.38-9.01,11.44-21.49,15.03-36.94,1.7-7.32,3.68-18.88,3.01-33.1-.49-10.3-2.22-19.07-4.03-25.85,2.86,2.99,6.24,6.2,10.19,9.49,3.71,3.08,7.34,5.74,10.75,8.02,0,0,10.53,6.54,20.29,8.34.83.15,7.27,1.33,9.39-1.28,1.42-1.74,1.29-4.21-.38-6.14-7.89-8.9-15.78-17.8-23.67-26.71l32.69,11.97c.75-.51,4.02-2.83,4.51-6.75.3-2.43-.61-4.33-1.13-5.22-4.51-3.07-9.02-6.14-13.53-9.21,10.46,2.1,20.46-.64,24.8-6.45,2.57-3.45,2.52-7.14,2.25-9.21Z"/>
    <path class="cls-12" d="M593.04,355.12c5.84,1.65,11.73,3.28,17.66,4.91,8.83,2.42,17.6,4.78,26.3,7.06"/>
    <line class="cls-12" x1="583.27" y1="363.41" x2="614.45" y2="376.3"/>
    <path class="cls-1" d="M610.88,403.14l-33.44-32.23c-1.22-.41-6.15-1.95-11.86-.3-7,2.02-9.56,7.2-9.93,7.97,5.76,7.65,14.01,20.75,17.66,38.37,3.9,18.84.77,34.35-1.88,43.28"/>
  </g>
  <path class="cls-8" d="M526.72,854.68c14.64-3.03,36.57-6.14,63.12-4.6,25.52,1.47,45.99,6.68,59.75,11.16,3.01-3.23,8.05-9.55,10.13-18.53,1.58-6.85.84-12.62,0-16.27l-67.63-339.2h-85.66c5.47,73,3.75,128.74.75,168.22-2.16,28.43-6.39,66.98,13.53,112.96,8.59,19.84,19.15,35.22,27.05,45.43"/>
</svg>