<?xml version="1.0" encoding="UTF-8"?>
<svg xmlns="http://www.w3.org/2000/svg" viewBox="0 0 1080 1920">
  <defs>
    <style>
      .cls-1 {
        fill: #941f43;
      }

      .cls-2 {
        fill: #fcd212;
      }

      .cls-3 {
        fill: #fe8a0b;
      }

      .cls-4 {
        fill: #0487a9;
      }

      .cls-5 {
        fill: #0082a0;
      }

      .cls-6 {
        fill: #f73a1d;
      }

      .cls-7 {
        fill: #4d3e69;
      }

      .cls-7, .cls-8, .cls-9, .cls-10 {
        font-family: Roboto-Black, Roboto;
        font-weight: 800;
      }

      .cls-7, .cls-9, .cls-10 {
        font-size: 50px;
      }

      .cls-11 {
        fill: #006e8b;
      }

      .cls-12 {
        fill: #ff360c;
      }

      .cls-13 {
        fill: #d1002d;
      }

      .cls-14 {
        fill: #00ad4f;
      }

      .cls-15 {
        fill: #2aaa40;
      }

      .cls-16 {
        letter-spacing: 0em;
      }

      .cls-17 {
        fill: #007387;
      }

      .cls-18 {
        fill: #00aa5f;
      }

      .cls-19 {
        fill: #009d6c;
      }

      .cls-20 {
        fill: #00728b;
      }

      .cls-21 {
        fill: #b2a8a6;
      }

      .cls-22 {
        fill: #fae600;
      }

      .cls-23 {
        fill: #00768e;
      }

      .cls-24 {
        fill: #00a36d;
      }

      .cls-25 {
        fill: #fc8b01;
      }

      .cls-26 {
        fill: #fb8407;
      }

      .cls-27 {
        fill: #00809d;
      }

      .cls-28, .cls-29, .cls-30, .cls-10 {
        fill: #fff;
      }

      .cls-31 {
        fill: #4d4552;
      }

      .cls-31, .cls-29, .cls-32, .cls-8, .cls-33, .cls-34, .cls-35 {
        stroke-miterlimit: 10;
      }

      .cls-31, .cls-34, .cls-35 {
        stroke: #3c3446;
      }

      .cls-36 {
        fill: #04af55;
      }

      .cls-37 {
        fill: #131531;
      }

      .cls-38 {
        fill: #00a75b;
      }

      .cls-39, .cls-9 {
        fill: #016e84;
      }

      .cls-29 {
        font-family: Roboto-Light, Roboto;
        font-size: 38.73px;
        font-weight: 300;
        letter-spacing: .07em;
      }

      .cls-29, .cls-32, .cls-33 {
        stroke: #fff;
      }

      .cls-40 {
        fill: #758ba0;
      }

      .cls-41 {
        fill: #0083a0;
      }

      .cls-32 {
        stroke-width: 5px;
      }

      .cls-32, .cls-34, .cls-35 {
        fill: none;
      }

      .cls-42 {
        fill: #9dafba;
      }

      .cls-43 {
        letter-spacing: -.08em;
      }

      .cls-44 {
        fill: #b4bfbe;
      }

      .cls-45 {
        fill: #037291;
      }

      .cls-46 {
        fill: #00859d;
      }

      .cls-47 {
        fill: #00788a;
      }

      .cls-48 {
        fill: #fe3a11;
      }

      .cls-8 {
        fill: #ff5906;
        font-size: 97.97px;
        stroke: #037b84;
      }

      .cls-8, .cls-34 {
        stroke-width: 2px;
      }

      .cls-49 {
        fill: #a31d7a;
      }

      .cls-50 {
        fill: #0bae58;
      }

      .cls-51 {
        fill: #feae07;
      }

      .cls-52 {
        letter-spacing: .02em;
      }

      .cls-53 {
        letter-spacing: -.01em;
      }

      .cls-54 {
        fill: #e16a4e;
      }

      .cls-55 {
        fill: #00a065;
      }

      .cls-56 {
        letter-spacing: 0em;
      }

      .cls-57 {
        fill: #788ea1;
      }

      .cls-33 {
        fill: #ef8815;
      }

      .cls-33, .cls-35 {
        stroke-width: 3px;
      }

      .cls-58 {
        fill: #793f23;
      }

      .cls-59 {
        fill: #00a773;
      }

      .cls-60 {
        fill: #00a461;
      }

      .cls-61 {
        fill: #9aaeb8;
      }

      .cls-62 {
        fill: #ffa50d;
      }

      .cls-63 {
        fill: #29a740;
      }

      .cls-64 {
        fill: #01a754;
      }

      .cls-65 {
        fill: #3c973f;
      }

      .cls-66 {
        fill: #00778d;
      }

      .cls-67 {
        fill: #8f2146;
      }

      .cls-68 {
        fill: #006b7f;
      }

      .cls-69 {
        fill: #ffd37a;
      }

      .cls-70 {
        letter-spacing: -.02em;
      }

      .cls-71 {
        fill: #2e203e;
      }

      .cls-72 {
        fill: #ebdbb3;
      }

      .cls-73 {
        fill: #c56f35;
      }

      .cls-74 {
        font-size: 20.13px;
      }

      .cls-74, .cls-30 {
        font-family: Roboto-Medium, Roboto;
        font-weight: 500;
      }

      .cls-75 {
        fill: #b2bab9;
      }

      .cls-76 {
        fill: #fc3b1a;
      }

      .cls-77 {
        letter-spacing: -.01em;
      }

      .cls-78 {
        fill: #007281;
      }

      .cls-79 {
        fill: #00a56c;
      }

      .cls-80 {
        fill: #23182e;
      }

      .cls-81 {
        fill: #fda007;
      }

      .cls-82 {
        fill: #8f2044;
      }

      .cls-83 {
        fill: #009b68;
      }

      .cls-84 {
        letter-spacing: 0em;
      }

      .cls-85 {
        fill: #596328;
      }

      .cls-86 {
        fill: #a43443;
      }

      .cls-87 {
        fill: #319c35;
      }

      .cls-88 {
        fill: #e4d1b0;
      }

      .cls-89 {
        letter-spacing: 0em;
      }

      .cls-90 {
        fill: #4e3e6b;
      }

      .cls-91 {
        fill: #6f7c3a;
      }

      .cls-92 {
        letter-spacing: 0em;
      }

      .cls-93 {
        fill: #037b84;
      }

      .cls-94 {
        fill: #02627c;
      }

      .cls-95 {
        fill: #f76b70;
      }

      .cls-96 {
        fill: #a12245;
      }

      .cls-97 {
        fill: #facd85;
      }

      .cls-98 {
        fill: #00768c;
      }

      .cls-99 {
        fill: #642050;
      }

      .cls-100 {
        fill: #36982e;
      }

      .cls-101 {
        letter-spacing: -.01em;
      }

      .cls-102 {
        fill: #fcb20b;
      }

      .cls-103 {
        fill: #05444f;
      }

      .cls-104 {
        fill: #01a963;
      }

      .cls-105 {
        fill: #00a35e;
      }

      .cls-30 {
        font-size: 40px;
      }

      .cls-106 {
        fill: #9f1e50;
      }

      .cls-107 {
        fill: #026d82;
      }

      .cls-108 {
        fill: #007483;
      }

      .cls-109 {
        fill: #00a566;
      }

      .cls-110 {
        fill: #374621;
      }

      .cls-111 {
        fill: #bac2c0;
      }

      .cls-112 {
        fill: #8ca2b3;
      }

      .cls-113 {
        fill: #731e4e;
      }

      .cls-114 {
        fill: #00beb6;
      }

      .cls-115 {
        fill: #00757a;
      }

      .cls-116 {
        fill: #119755;
      }

      .cls-117 {
        fill: #ff3a13;
      }

      .cls-118 {
        fill: #606c2b;
      }

      .cls-119 {
        fill: #fd333b;
      }

      .cls-120 {
        fill: #00aa62;
      }

      .cls-121 {
        fill: #eddbb3;
      }

      .cls-122 {
        fill: #f76c6f;
      }

      .cls-123 {
        fill: #a41c43;
      }

      .cls-124 {
        fill: #00a562;
      }

      .cls-125 {
        fill: #ff3712;
      }

      .cls-126 {
        fill: #00778c;
      }

      .cls-127 {
        fill: #007b8b;
      }

      .cls-128 {
        fill: #21a045;
      }

      .cls-129 {
        fill: #007990;
      }

      .cls-130 {
        fill: #00839d;
      }

      .cls-131 {
        fill: #00798f;
      }

      .cls-132 {
        fill: #007289;
      }

      .cls-133 {
        fill: #718c9f;
      }

      .cls-134 {
        fill: #fea406;
      }

      .cls-135 {
        fill: #b6794b;
      }
    </style>
  </defs>
  <g id="fondo_y_cuadros" data-name="fondo y cuadros">
    <rect class="cls-114" x="-6.93" y="-22" width="1093.86" height="1959.43"/>
    <path class="cls-80" d="M176.43,282.71h717.43c-107.48,221.24-214.96,442.48-322.44,663.72.8,274.56,1.59,549.12,2.39,823.68,20.32,25.7,58.48,67.19,117.42,97.09,49.53,25.13,94.31,32.21,123.15,34.22H290.27c25.42-2.94,65.02-11.09,108.12-35.81,53.05-30.44,85.73-71.28,102.39-95.5,1.43-274.38,2.86-548.77,4.3-823.15-109.55-221.42-219.09-442.83-328.64-664.25Z"/>
    <rect class="cls-122" x="116.65" y="624.2" width="850.46" height="264.78" rx="60.93" ry="60.93"/>
    <rect class="cls-39" x="113.43" y="329" width="850.46" height="264.78" rx="60.93" ry="60.93"/>
    <rect class="cls-3" x="109.91" y="918.54" width="850.46" height="264.78" rx="60.93" ry="60.93"/>
    <rect class="cls-51" x="109.91" y="1215.81" width="850.46" height="264.78" rx="60.93" ry="60.93"/>
    <rect class="cls-95" x="124.41" y="1513.07" width="850.46" height="264.78" rx="60.93" ry="60.93"/>
    <g>
      <path class="cls-51" d="M293.81,383.07h-8.25v-26.27l-8.11,2.37v-6.25l15.6-5.4h.76v35.55Z"/>
      <path class="cls-51" d="M309.75,375.09c1.3,0,2.38.39,3.25,1.16.86.77,1.29,1.76,1.29,2.97s-.43,2.19-1.29,2.97c-.86.77-1.95,1.16-3.25,1.16s-2.4-.39-3.26-1.17-1.28-1.77-1.28-2.95.43-2.17,1.28-2.95,1.94-1.17,3.26-1.17Z"/>
      <path class="cls-51" d="M342.72,383.07v-35.55h12.77c4.57,0,8.05.84,10.44,2.51,2.38,1.68,3.58,4.11,3.58,7.3,0,1.84-.42,3.41-1.27,4.71-.85,1.3-2.09,2.26-3.74,2.88,1.86.49,3.28,1.4,4.27,2.73.99,1.33,1.49,2.96,1.49,4.88,0,3.48-1.1,6.1-3.31,7.85-2.21,1.75-5.47,2.64-9.8,2.67h-14.43ZM351.29,362.35h4.47c1.87-.02,3.21-.36,4-1.03.8-.67,1.2-1.66,1.2-2.96,0-1.5-.43-2.58-1.29-3.24-.86-.66-2.25-.99-4.17-.99h-4.2v8.23ZM351.29,367.96v8.52h5.62c1.55,0,2.73-.35,3.56-1.06s1.25-1.7,1.25-2.99c0-2.96-1.47-4.45-4.42-4.47h-6.01Z"/>
      <path class="cls-51" d="M395.17,376.43h-11.74l-2.05,6.64h-9.16l13.04-35.55h8.06l13.13,35.55h-9.2l-2.08-6.64ZM385.47,369.82h7.64l-3.83-12.33-3.81,12.33Z"/>
      <path class="cls-51" d="M427.37,373.63c0-1.25-.44-2.23-1.33-2.93-.89-.7-2.45-1.42-4.68-2.17-2.23-.75-4.05-1.47-5.47-2.17-4.61-2.26-6.91-5.37-6.91-9.33,0-1.97.57-3.71,1.72-5.21,1.15-1.51,2.77-2.68,4.87-3.52,2.1-.84,4.46-1.26,7.08-1.26s4.85.46,6.87,1.37c2.03.91,3.6,2.21,4.72,3.89s1.68,3.61,1.68,5.77h-8.54c0-1.45-.44-2.57-1.33-3.37-.89-.8-2.09-1.2-3.6-1.2s-2.74.34-3.63,1.01c-.89.68-1.33,1.53-1.33,2.58,0,.91.49,1.74,1.46,2.48.98.74,2.69,1.51,5.15,2.29,2.46.79,4.48,1.64,6.05,2.55,3.84,2.21,5.76,5.27,5.76,9.16,0,3.11-1.17,5.55-3.52,7.32-2.34,1.77-5.56,2.66-9.64,2.66-2.88,0-5.49-.52-7.82-1.55-2.34-1.03-4.09-2.45-5.27-4.25-1.18-1.8-1.77-3.87-1.77-6.21h8.59c0,1.9.49,3.31,1.48,4.21.98.9,2.58,1.35,4.8,1.35,1.42,0,2.53-.31,3.36-.92.82-.61,1.23-1.47,1.23-2.58Z"/>
      <path class="cls-51" d="M462.38,367.99h-13.48v8.5h15.92v6.59h-24.49v-35.55h24.54v6.62h-15.97v7.5h13.48v6.35Z"/>
      <path class="cls-51" d="M502.81,367.99h-13.48v8.5h15.92v6.59h-24.49v-35.55h24.54v6.62h-15.97v7.5h13.48v6.35Z"/>
      <path class="cls-51" d="M527.08,373.63c0-1.25-.44-2.23-1.33-2.93-.89-.7-2.45-1.42-4.68-2.17-2.23-.75-4.05-1.47-5.47-2.17-4.61-2.26-6.91-5.37-6.91-9.33,0-1.97.57-3.71,1.72-5.21,1.15-1.51,2.77-2.68,4.87-3.52,2.1-.84,4.46-1.26,7.08-1.26s4.85.46,6.87,1.37c2.03.91,3.6,2.21,4.72,3.89s1.68,3.61,1.68,5.77h-8.54c0-1.45-.44-2.57-1.33-3.37-.89-.8-2.09-1.2-3.6-1.2s-2.74.34-3.63,1.01c-.89.68-1.33,1.53-1.33,2.58,0,.91.49,1.74,1.46,2.48.98.74,2.69,1.51,5.15,2.29,2.46.79,4.48,1.64,6.05,2.55,3.84,2.21,5.76,5.27,5.76,9.16,0,3.11-1.17,5.55-3.52,7.32-2.34,1.77-5.56,2.66-9.64,2.66-2.88,0-5.49-.52-7.82-1.55-2.34-1.03-4.09-2.45-5.27-4.25-1.18-1.8-1.77-3.87-1.77-6.21h8.59c0,1.9.49,3.31,1.48,4.21.98.9,2.58,1.35,4.8,1.35,1.42,0,2.53-.31,3.36-.92.82-.61,1.23-1.47,1.23-2.58Z"/>
      <path class="cls-51" d="M548.61,371.01v12.06h-8.57v-35.55h14.18c2.72,0,5.12.5,7.21,1.5s3.71,2.43,4.86,4.27c1.15,1.85,1.72,3.94,1.72,6.29,0,3.47-1.24,6.24-3.72,8.31-2.48,2.08-5.89,3.11-10.22,3.11h-5.47ZM548.61,364.4h5.62c1.66,0,2.92-.42,3.8-1.25s1.31-2,1.31-3.52c0-1.66-.45-2.99-1.34-3.98-.9-.99-2.12-1.5-3.66-1.51h-5.71v10.25Z"/>
      <path class="cls-51" d="M581.71,383.07h-8.54v-35.55h8.54v35.55Z"/>
      <path class="cls-51" d="M600.88,370.5h-4.64v12.57h-8.57v-35.55h13.99c4.21,0,7.51.94,9.89,2.8s3.56,4.51,3.56,7.93c0,2.47-.5,4.52-1.5,6.15-1,1.63-2.57,2.94-4.7,3.95l7.42,14.35v.37h-9.18l-6.27-12.57ZM596.24,363.91h5.42c1.63,0,2.85-.43,3.67-1.28.82-.86,1.23-2.05,1.23-3.59s-.42-2.74-1.25-3.61c-.83-.87-2.05-1.31-3.66-1.31h-5.42v9.79Z"/>
      <path class="cls-51" d="M629.42,383.07h-8.54v-35.55h8.54v35.55Z"/>
      <path class="cls-51" d="M663.28,354.14h-10.67v28.93h-8.57v-28.93h-10.47v-6.62h29.71v6.62Z"/>
      <path class="cls-51" d="M694.78,347.53v23.27c0,2.64-.56,4.92-1.68,6.85s-2.73,3.4-4.83,4.41c-2.1,1.01-4.58,1.51-7.45,1.51-4.33,0-7.74-1.12-10.23-3.37s-3.76-5.32-3.81-9.23v-23.44h8.62v23.61c.1,3.89,1.9,5.83,5.42,5.83,1.77,0,3.12-.49,4.03-1.46s1.37-2.56,1.37-4.76v-23.22h8.57Z"/>
      <path class="cls-51" d="M730.22,366.03c0,3.47-.64,6.54-1.93,9.2-1.29,2.67-3.11,4.72-5.48,6.16-2.37,1.44-5.07,2.16-8.09,2.16s-5.71-.7-8.06-2.09-4.17-3.38-5.48-5.97-2-5.56-2.06-8.91v-2c0-3.48.64-6.56,1.92-9.22s3.11-4.72,5.49-6.16c2.38-1.45,5.1-2.17,8.14-2.17s5.7.72,8.06,2.15c2.36,1.43,4.19,3.47,5.5,6.12,1.31,2.65,1.97,5.68,1.99,9.09v1.64ZM721.51,364.54c0-3.53-.59-6.21-1.77-8.04s-2.87-2.75-5.07-2.75c-4.3,0-6.57,3.22-6.81,9.67l-.02,2.61c0,3.48.58,6.16,1.73,8.03,1.16,1.87,2.87,2.81,5.15,2.81s3.83-.92,5-2.76c1.17-1.84,1.77-4.48,1.78-7.93v-1.64Z"/>
      <path class="cls-51" d="M752.98,373.63c0-1.25-.44-2.23-1.33-2.93-.89-.7-2.45-1.42-4.68-2.17-2.23-.75-4.05-1.47-5.47-2.17-4.61-2.26-6.91-5.37-6.91-9.33,0-1.97.57-3.71,1.72-5.21,1.15-1.51,2.77-2.68,4.87-3.52,2.1-.84,4.46-1.26,7.08-1.26s4.85.46,6.87,1.37c2.03.91,3.6,2.21,4.72,3.89s1.68,3.61,1.68,5.77h-8.54c0-1.45-.44-2.57-1.33-3.37-.89-.8-2.09-1.2-3.6-1.2s-2.74.34-3.63,1.01c-.89.68-1.33,1.53-1.33,2.58,0,.91.49,1.74,1.46,2.48.98.74,2.69,1.51,5.15,2.29,2.46.79,4.48,1.64,6.05,2.55,3.84,2.21,5.76,5.27,5.76,9.16,0,3.11-1.17,5.55-3.52,7.32-2.34,1.77-5.56,2.66-9.64,2.66-2.88,0-5.49-.52-7.82-1.55-2.34-1.03-4.09-2.45-5.27-4.25-1.18-1.8-1.77-3.87-1.77-6.21h8.59c0,1.9.49,3.31,1.48,4.21.98.9,2.58,1.35,4.8,1.35,1.42,0,2.54-.31,3.36-.92.82-.61,1.23-1.47,1.23-2.58Z"/>
      <path class="cls-51" d="M786.13,376.43h-11.74l-2.05,6.64h-9.16l13.04-35.55h8.06l13.13,35.55h-9.2l-2.08-6.64ZM776.44,369.82h7.64l-3.83-12.33-3.81,12.33Z"/>
    </g>
    <text class="cls-9" transform="translate(347.9 684.34)"><tspan x="0" y="0" xml:space="preserve">2.  MODIFICADOR</tspan></text>
    <text class="cls-10" transform="translate(362.3 971.54)"><tspan x="0" y="0">3. MEZC</tspan><tspan class="cls-56" x="191.63" y="0">L</tspan><tspan x="219.19" y="0">ADOR</tspan></text>
    <text class="cls-7" transform="translate(376.32 1279.28)"><tspan x="0" y="0">4. DI</tspan><tspan class="cls-77" x="103.93" y="0">L</tspan><tspan x="130.44" y="0">UYENTE</tspan></text>
    <text class="cls-9" transform="translate(412.69 1586.38)"><tspan x="0" y="0">5. GARNISH</tspan></text>
    <text class="cls-8" transform="translate(136.95 138.6) scale(.96 1)"><tspan x="0" y="0">COMPOSICIÓN DE </tspan><tspan x="157.27" y="117.57">UN CÓ</tspan><tspan class="cls-53" x="447.5" y="117.57">C</tspan><tspan x="510.41" y="117.57">TEL</tspan></text>
    <text class="cls-30" transform="translate(146.04 461.39)"><tspan x="0" y="0">Destilado base ingrediente principal el cual </tspan><tspan x="2.97" y="48">representa entre el 40 % y 60% del cocktail.</tspan></text>
    <text class="cls-30" transform="translate(223.82 756.59)"><tspan x="0" y="0">Intensifican o su</tspan><tspan class="cls-89" x="296.19" y="0">a</tspan><tspan x="317.54" y="0">vizan la base con:</tspan><tspan x="102.65" y="48">sabo</tspan><tspan class="cls-43" x="190.22" y="48">r</tspan><tspan x="200.91" y="48">, dul</tspan><tspan class="cls-16" x="274.68" y="48">z</tspan><tspan x="294.48" y="48">or o amargo</tspan><tspan class="cls-43" x="511.61" y="48">r</tspan><tspan x="522.29" y="48">.</tspan></text>
    <text class="cls-30" transform="translate(190.94 1318)"><tspan x="0" y="0" xml:space="preserve"> Gene</tspan><tspan class="cls-101" x="102.36" y="0">r</tspan><tspan x="115.84" y="0">almente agua fria, splash de soda</tspan><tspan x="-29.1" y="48">hielo crushed, agua con gas o el hielo en si.</tspan><tspan x="97.62" y="96">Cont</tspan><tspan class="cls-70" x="182.05" y="96">r</tspan><tspan x="195.41" y="96">ola potencia alcoholica.</tspan></text>
    <text class="cls-30" transform="translate(169.1 1643.48)"><tspan x="0" y="0">Elemen</tspan><tspan class="cls-101" x="132.81" y="0">t</tspan><tspan x="145.53" y="0">o visual, a</tspan><tspan class="cls-70" x="323.38" y="0">r</tspan><tspan x="336.74" y="0">omatico y comestible.</tspan><tspan x="-12.37" y="48">Apo</tspan><tspan class="cls-52" x="59.54" y="48">r</tspan><tspan x="74.58" y="48">ta colo</tspan><tspan class="cls-43" x="196.18" y="48">r</tspan><tspan x="206.87" y="48">, taxtu</tspan><tspan class="cls-101" x="316.2" y="48">r</tspan><tspan x="329.68" y="48">a, a</tspan><tspan class="cls-70" x="391.71" y="48">r</tspan><tspan x="405.07" y="48">oma y simbolismo.</tspan><tspan x="61.61" y="96">Estimula sentidos organolepticos.</tspan></text>
    <g>
      <g>
        <path class="cls-128" d="M987.45,1505.07c-2.05-7.53-4.79-19.15-6.43-33.5-3.16-27.67.56-41.11-.64-63.19-.73-13.48-3.46-32.96-12.86-56.59-4,13.28-7.69,29.93-9,49.26-1.36,20.07.22,37.56,2.57,51.5-11.36-19.78-22.71-39.56-34.07-59.33,2.73,11.27,5.91,23.03,9.64,35.22,3.87,12.63,7.98,24.61,12.21,35.92-13.71-8.23-27.43-16.46-41.14-24.69l34.07,59.33c4.88,2.15,12.08,4.74,21.21,6.08,10.17,1.48,18.74.83,24.43,0Z"/>
        <g>
          <path class="cls-48" d="M941.03,1499.61h101.09c1.69,2.27,5.71,8.29,6.27,17.04.55,8.52-2.49,14.86-3.86,17.36.79,46.58,1.23,84.65,1.5,111.11.88,88.18,1.33,132.27,1.07,141.21-.95,33.52-3.21,37.3.32,48.41,1.37,4.32,5.12,14.46,1.61,25.52-1.52,4.79-3.96,8.35-5.79,10.61-6.3,4.47-25.17,16.64-52.18,16.51-26.49-.13-44.97-12-51.32-16.51-2.35-2.72-5.39-6.96-6.99-12.7-3.1-11.13,1.07-21.14,2.6-25.23,1.36-3.66,2.16-20.11,3.75-53.02,2-41.43-1.76-90.42-3.21-128.8-1.03-27.1-1.58-66.87,1.29-116.14-1.24-1.98-5.46-9.2-4.18-18.96,1.18-9.01,6.31-14.65,8.04-16.39Z"/>
          <g>
            <path class="cls-125" d="M936.06,1873.87c-1.03,1.56-6.09,9.53-3.86,19.71,1.5,6.84,5.51,11.16,7.29,12.86,8.67,4.63,27.48,13.19,52.71,12.89,23.79-.28,41.54-8.29,50.15-12.89.75-.39,8.24-4.4,9.43-12.86.99-7.01-2.76-14.16-9.43-17.77-8.44,4.73-25.86,13-49.29,13.49-28.14.59-48.7-10.38-57-15.43Z"/>
            <path class="cls-99" d="M936.37,1873.87c.69-1.53,1.38-3.06,2.07-4.6,6.04,4.64,23.92,17.11,50.16,18.1,26.77,1,45.83-10.58,52.11-14.78.47,1,.94,2,1.41,2.99-7.37,4.62-27.81,16.05-55.93,14.79-24.83-1.12-42.46-11.55-49.82-16.5Z"/>
          </g>
          <path class="cls-67" d="M936.84,1821.73c-.18,2-.36,4-.55,6.01,6.75,4.98,26.12,17.92,54.24,18.74,28.49.84,48.8-11.26,55.78-15.86-.27-1.89-.54-3.78-.81-5.67-5.93,4.34-26.05,17.92-54.96,17.04-28.81-.88-48.01-15.56-53.69-20.25Z"/>
          <path class="cls-25" d="M947.93,1855.36c22.74,5.47,46.15,7.11,69.12,2.4,7.63-1.5,15.14-3.68,22.68-6.2l.42.86c-23.86,15.22-55.04,18.76-81.82,9.59-3.82-1.34-7.55-2.89-11.1-4.82l.69-1.83h0Z"/>
          <path class="cls-113" d="M937.17,1534.97c-.89-1.83-1.78-3.66-2.67-5.49,16.9,2.33,36.61,3.94,58.59,3.68,19.98-.24,38.01-1.97,53.68-4.32-.75,1.72-1.5,3.44-2.25,5.16-15.61,1.88-32.98,3.2-51.86,3.44-20.29.26-38.9-.78-55.5-2.47Z"/>
          <path class="cls-1" d="M947.43,1809.35c5.1,8.64,13.56,20.38,24.88,15.94,4.22-1.57,8.38-4.24,12.88-5.54,9.81-3.1,19.39-.06,27.86,5,11.76,7.44,17.7-6.25,21.89-15.27,0,0,.32.08.32.08-.63,9.42-5.5,22.78-17.09,21.8-5.37-.79-8.74-4.41-13.01-6.85-3.32-2.05-7.06-3.31-10.96-3.42-2.75-.04-5.55.35-8.12,1.34-6.66,2.49-12.36,8.6-20.11,7.73-10.41-1.11-16.57-11.46-19.35-20.46,0,0,.79-.35.79-.35h0Z"/>
          <path class="cls-67" d="M995.79,1793.62c-.84,1.19-6.79,9.33-17.68,10.29-9.15.8-15.59-4.01-17.04-5.14-2.85-4.47-7.46-13.01-9-24.75-1.6-12.18.89-21.92,2.57-27,2.54-4.65,5.12-6.05,7.07-6.43,5.61-1.07,9.27,5.71,18.32,9.32,5.82,2.33,11.4,2.35,15.43,1.93,6.96-.33,12.06-2.18,15.75-4.18,7.31-3.97,10.75-9.46,14.79-8.36,2.46.67,3.92,3.45,4.82,6.11,2.08,4.52,5.21,12.91,5.14,23.79-.08,12.49-4.32,21.83-6.75,26.33-1.3,1.33-6.41,6.27-14.46,6.77-11.23.71-18.28-7.83-18.96-8.68Z"/>
          <path class="cls-117" d="M960.11,1783.02c7.76-2.79,21.45-6.55,38.57-5.14,12.92,1.07,23.17,4.7,29.89,7.71,0,.63-.2,6.35-5.14,9.94-5.22,3.79-11.07,1.81-11.57,1.63-5.84-2.36-11.68-4.71-17.52-7.07l-9.16,7.07c-5.8,3.91-13.29,3.88-18.64,0-6.87-4.98-6.46-13.58-6.43-14.14Z"/>
          <path class="cls-106" d="M937.39,1637.85c14.69,11.54,32.97,8.89,43.22-6.69,0,0,5-8.63,5-8.63-.43,3.38-8.92,70.67-9.65,76.39-2.22-1.02-3.97-1.99-5.55-2.64-1.61-.61-3.03-1.16-4.46-.27-2.92,2.25-4.39,6.61-5.45,10.18-1.35,5.18-.68,10.25,1.11,15.51,0,0-2.86-.63-2.86-.63,4.29-3.21,10.61-6.41,15.73-2.68,3.99,3.24,4.69,7.9,9.14,10.15,2.22,1.26,4.85,1.8,7.6,1.82,0,0-1.39.24-1.39.24,4.15-1.52,8.02-3.96,11.02-7.21,2.11-2.37,4.17-5.56,6.93-7.55,4.24-3.3,9.69-4.86,14.85-5.39,0,0-1.74,1.98-1.74,1.98,0,0-.69-13.5-.69-13.5,0,0,.24,1.11.24,1.11-2.93-4.97-9.16-7.45-14.42-4.41-1.84.99-3.52,2.54-4.99,4.59,0,0-3.93-68.09-3.93-68.09l-.49-8.44s4.27,7.48,4.27,7.48c6.16,11.44,19.79,18.38,32.43,13.68,4.12-1.45,7.98-3.9,11.42-6.99-4.91,8.24-14.94,13.36-24.65,12.04-9.88-1.11-18.71-7.97-22.78-16.92,0,0,3.78-.96,3.78-.96,0,0-.07,68.2-.07,68.2-.1-2.53.93-5.17,2.76-7.25,6.25-7.18,18.59-3.92,21.54,4.86,0,0,.27.76.27.76,0,0-.03.35-.03.35,0,.89-.79,14.92-.78,15.26,0,0-1.65.22-1.65.22-5.94.99-11.69,3.44-15.09,8.5-1.78,2.67-4.1,5.86-6.69,8.01-2.87,2.54-6.2,4.56-9.72,6.06,0,0-.74-.05-.74-.05-5.35-.31-11.16-2.7-14.57-7.12-1.98-2.24-3.06-5.72-4.91-7.49-3.61-2.66-8.65,1.01-11.93,3.01-7.08-7.45-8.65-17.74-4.47-27.22,1.44-3.29,3.63-6.88,7.14-8.78,4.02-2.38,9.53-1.06,11.99,2.8,1.38,2.05,2.05,4.33,1.8,6.79,0,0,4.44-67.05,4.44-67.05,0,0,3.78,1.09,3.77,1.1-8.69,19.2-34.56,22.13-46.78,4.88h0Z"/>
          <path class="cls-106" d="M935.2,1579.93c22.76-9.58,48.62,3.83,50.4,29.24,0,0-.85.13-.85.13-1.42-5.27-3.62-10.24-6.68-14.56-6.04-8.75-15.96-14.33-26.51-15.17-5.3-.49-10.77-.09-16.05,1.18l-.3-.82h0Z"/>
          <path class="cls-106" d="M998.41,1609.21c2.55-21.55,25.88-35.41,46.38-31.62,0,0-.1,1.39-.1,1.39-4.95.25-9.81,1.01-14.44,2.39-15.01,4.28-24.5,14.68-31.85,27.84h0Z"/>
          <path class="cls-113" d="M947.46,1559.69c2.27-7.86,10.16-18.63,17.09-8.02,2.52,3.86,4.05,8.51,6.34,12.3.74,1.2,1.64,2.35,2.54,2.76,2.33.91,3.89-2.2,5.04-3.96,3.22-5.4,4.56-11.72,8.93-16.56,4.01-3.87,7.76-.19,9.36,3.65,2.62,5.42,3.5,11.77,6.76,16.71,1.67,2.42,3.17.69,4.58-1.36,3.3-5.14,5.16-11.2,8.92-16.19,5.71-7.78,12.64-3.61,15.95,3.73.68,1.42,1.24,2.88,1.65,4.4-1.95-2.44-3.74-4.93-5.85-6.93-1.83-1.74-4.16-3.41-6.57-2.14-2.31,1.3-3.85,4.06-5.15,6.43-2.63,4.72-4.25,10.25-7.86,14.5-2.49,2.84-6.07,2.61-8.24-.45-3.65-5.3-4.47-11.67-7.16-17.29-.95-1.8-2.25-4.72-4.16-2.7-5.01,5.68-6.03,14.27-11.64,19.74-8.74,6.77-12.04-10.43-15.58-15.24-5.24-9-11.32,2.5-14.95,6.64h0Z"/>
          <path class="cls-82" d="M1008.01,1616.14c.88,2.6,4.1,5.11,7.01,4.88,3.97-.32,3.73-5.48,10.25-8.98,3.93-2.11,6-1.3,8.28-3.68,2.18-2.29,3.32-6.21,1.58-8.06-2.7-2.88-11.94-.36-17.74,3.11-1.1.65-11.38,6.8-9.37,12.74Z"/>
          <path class="cls-82" d="M975.74,1616.14c-.89,2.6-4.13,5.11-7.05,4.88-4-.32-3.76-5.48-10.32-8.98-3.95-2.11-6.04-1.3-8.33-3.68-2.2-2.29-3.34-6.21-1.59-8.06,2.72-2.88,12.02-.36,17.86,3.11,1.1.65,11.46,6.8,9.43,12.74Z"/>
          <path class="cls-25" d="M941.29,1599.11c-1.37,14.81,9.7,28.66,25.13,26.42,4.55-.61,8.95-2.55,12.9-5.5l1.78,1.73c-3.19,4.42-8.24,7.59-13.79,8.78-11.53,2.67-23.36-4.5-26.94-15.68-1.75-5.26-1.61-11.01.33-15.89l.59.14h0Z"/>
          <path class="cls-25" d="M1041.17,1600.49c6.59,17.01-8.44,35.59-26.61,31.57-5.55-1.19-10.6-4.36-13.79-8.78l1.78-1.73c3.94,2.95,8.35,4.89,12.9,5.5,9.27,1.47,18.52-3.7,22.5-12.12,2.11-4.26,2.99-9.19,2.63-14.31l.59-.14h0Z"/>
          <path class="cls-25" d="M945.71,1513.97c8.08,1.36,16.14,2.48,24.23,3.11,8.08.69,16.18.93,24.25.74,4.04-.06,8.07-.28,12.09-.6,4.03-.27,8.03-.71,12.05-1.13l6.01-.73,6.01-.82,12.06-1.81,1.01,3.82c-7.8,2.98-15.96,4.94-24.22,6.2-4.13.66-8.3,1.03-12.46,1.33-4.17.24-8.35.33-12.53.28-4.18-.05-8.35-.29-12.5-.63-4.16-.36-8.29-.92-12.4-1.57-8.21-1.39-16.31-3.34-24.15-6.05l.54-2.12Z"/>
          <path class="cls-25" d="M946.97,1762.69c.44-10.39,3.92-29.19,18.24-25.57,7.15,2.31,12.62,8.13,19.52,10.56,6.27,2.42,13.25,2.01,19.15-1.21,4.78-2.42,8.8-6.73,13.93-9.27,4.26-2.3,10.05-1.4,13.5,1.86,7.4,7.04,8.59,18.38,9.22,27.9.33,7.67-.78,15.6-3.48,22.82-2.66,7.26-6.63,13.97-11.62,19.77l-3.61-2.95c6.55-8.42,11.08-18.31,12.48-28.86,1.19-9.61.24-27.2-6.91-34.22-3.72-3.47-7.83-.96-11.31,1.64-14.71,11.87-27.87,13.09-43.32,1.49-2.85-1.98-5.7-4.32-8.84-5.49-7.04-2.48-11.1,5.29-13.06,11.07-1.18,3.41-1.96,7-2.67,10.6l-1.24-.15h0Z"/>
        </g>
      </g>
      <g>
        <path class="cls-113" d="M992.08,1461.57c-.38-.3-8.45-6.95-7.02-16.5.26-1.75,1.47-7.83,7.02-11,5.47-3.12,11.1-1.1,12.42-.57,6.31,2.53,10.55,9.48,10.8,17.62-.93-7.34,2.17-13.93,7.02-15.95,6.87-2.85,14.32,4.69,17.28,9.9.88,1.55,5.58,9.81,1.08,17.6-3.06,5.3-9.19,8.31-15.66,7.7,9.26-1.33,17.24,2.14,19.45,7.7,1.56,3.92.25,8.92,0,9.9-.51,1.95-1.47,5.62-3.75,7.18-3.96,2.72-12.4-.52-20.01-8.83,9.46,7.41,11.26,19.33,6.48,25.85-3.32,4.52-9.72,6.32-15.12,5.5-1.36-.21-7.75-1.35-11.34-7.15-3.55-5.72-2.94-13.66,1.62-19.8-2.36,6.25-6.69,10.65-10.8,10.45-4.62-.23-7.33-6.19-10.26-12.65-2.83-6.23-4.91-10.81-3.24-15.95,2.74-8.42,13.11-10.8,14.04-11Z"/>
        <path class="cls-49" d="M1006.18,1469.57c0-.62-.07-1.6-.48-2.69-1.01-2.7-3.09-3.33-4.56-5.5-.75-1.1-1.56-2.94-1.44-5.99,1.66.77,3.81,1.99,6,3.91,1.54,1.36,2.72,2.73,3.6,3.91.18-.88.32-1.91.36-3.06.08-2.48-.38-4.54-.84-5.99,1.24,1.83,2.48,3.67,3.72,5.5l3-6.6-1.44,12.59,9.12-7.94c-1.44,2.44-2.94,5.42-4.2,8.92-.65,1.8-1.16,3.53-1.56,5.13,1.14.7,2.8,1.44,4.65,1.16,1.37-.21,1.94-.84,3.39-1.28,1.19-.36,2.96-.58,5.4.12-1.04.08-2.74.35-4.56,1.34-1.17.64-2.04,1.39-2.64,1.99,1.33.34,3.07.94,4.92,2.04,1.22.72,2.22,1.5,3,2.2-1.93-.04-4.31-.24-6.96-.86-2.19-.51-4.08-1.17-5.64-1.83-.2,1.53-.33,3.21-.36,5.01-.06,4.08.44,7.63,1.08,10.51-1.77-3.69-3.93-7.61-4.56-6.97-.12.12-.24,7.94-.24,7.94l-3-3.91-.61,2.69c-.13-1.47-.18-3.25,0-5.25.2-2.26.63-4.2,1.09-5.74-.51.21-1.45.53-2.64.49-1.14-.04-2.02-.38-2.52-.61,1.93-.35,3.14-1.33,3.12-2.2-.02-.76-.97-1.51-1.8-1.59-1.71-.17-3.64,2.42-5.04,6.35-.96-.73-1.92-1.47-2.88-2.2l4.32-3.54c-3.68-.05-7.36-.1-11.05-.15,1.72-.67,3.14-.93,4.1-1.05,0,0,4.17-.51,4.79-1.32,0,0,0,0,0,0,.04-.13-2.09-.94-2.28-1.01-.98-.37-2.85-.81-6.24-.49,2.32-1.22,4.64-2.44,6.96-3.67-1.22-.23-1.78-.78-2.04-1.1-.9-1.13-.85-3.06-.84-3.06,0,0,0,0,0,0,.93,1.9,4.44,3.06,4.44,3.06.82.27,1.96.57,3.36.73Z"/>
        <path class="cls-22" d="M1010.3,1471.57c-.82,1-.66,2.43.18,3.12.67.55,1.71.57,2.52,0,3.45-4.18,6.57-7.22,8.82-9.26,4.02-3.64,5.16-3.96,7.2-6.78,1.72-2.38,2.37-4.16,5.04-6.97,1.26-1.33,2.24-2.34,3.87-3.21,2.13-1.14,3.17-.86,4.59-1.92.93-.7,2.1-2.04,2.7-4.86-2.22.73-4.44,1.47-6.66,2.2.06-.88.06-2.3-.45-3.94-.6-1.94-1.63-3.25-2.25-3.94-.04,1.36.02,3.05.36,4.95.28,1.56.68,2.92,1.08,4.03-.26.62-.71,1.59-1.44,2.66-1.44,2.1-3.06,3.27-3.6,3.67-4.7,3.46-8.61,7.92-12.96,11.82-2.12,1.91-5.25,4.77-9,8.43Z"/>
      </g>
    </g>
  </g>
  <g id="hojas">
    <g>
      <g>
        <g>
          <path class="cls-109" d="M888.82,0c-7.83,4.3-16.81,9.98-26.14,17.43-10.39,8.29-18.58,16.68-24.86,24,7.8.01,16.95-.62,27-2.57,20.35-3.95,36.14-11.72,46.71-18.14,11.29-6.9,22.57-13.81,33.86-20.71h-56.57Z"/>
          <path class="cls-47" d="M943.63,0h46.71c-11.08,4.2-24.45,10.38-38.57,19.57-11.05,7.19-20.15,14.65-27.43,21.43-6.75,5.4-16.74,12.12-30,17.14-8.66,3.28-16.6,5.04-23.14,6,13-15,26-30,39-45L943.63,0Z"/>
          <path class="cls-104" d="M989.11,0h30c-11.84,6.85-25.02,15.64-38.57,26.86-8.23,6.82-15.49,13.62-21.86,20.14-18.29,6.57-36.57,13.14-54.86,19.71l17.14-25.71c7.21-8.17,18.93-19.46,36-28.71,12.1-6.56,23.37-10.19,32.14-12.29Z"/>
          <path class="cls-23" d="M1017.39,0h34.29c-12.58,7.35-27.35,17.44-42.43,31.14-10.9,9.91-19.81,19.76-27,28.71-6.54,5.81-16.05,12.89-28.76,18.43-6.5,2.83-12.59,4.72-17.95,6,2.57-6.64,6.14-14.27,11.14-22.29,8.48-13.58,18.05-23.37,25.71-30,15-10.67,30-21.33,45-32Z"/>
          <path class="cls-124" d="M1049.54,0h12.43c-8.05,7.74-16.64,16.8-25.29,27.29-8,9.7-14.81,19.11-20.57,27.86-7.34,8.02-16.01,16.61-26.14,25.29-8.94,7.65-17.62,14.17-25.71,19.71,4.14-13.29,8.29-26.57,12.43-39.86,11.56-11.25,24.53-22.94,39-34.71,11.61-9.45,22.96-17.94,33.86-25.57Z"/>
        </g>
        <path class="cls-131" d="M1058.85,0h6.86c-9.81,23.84-20.49,48.4-32.14,73.57-12.72,27.49-25.64,53.63-38.57,78.43-1.56-3.92-3.49-9.81-4.29-17.14-1.25-11.5.86-21.26,4.29-31.71,9.03-27.57,25.41-54.5,31.29-63.86,10.86-13.1,21.71-26.19,32.57-39.29Z"/>
        <path class="cls-55" d="M1066.36,0h0l-9.43,79.14c-1.69,11.56-4.96,26.17-11.46,42.21-4.97,12.26-10.68,22.49-15.96,30.64-1.08-10.83-1.7-23.05-1.39-36.43.33-14.7,1.72-27.98,3.54-39.57,11.57-25.33,23.14-50.67,34.71-76Z"/>
      </g>
      <path class="cls-129" d="M1064.86,0h15.14l-1.86,71c.48,16.34-.58,37.81-6.43,62.14-4.1,17.06-9.62,31.58-15,43.29-1.94-11.32-3.41-24.11-3.86-38.14-.81-25.4,1.96-47.5,5.57-65.14,2.14-24.38,4.29-48.76,6.43-73.14Z"/>
    </g>
    <path class="cls-14" d="M1081.54,425.39l-125.71-74.57c.47-8.39.09-19.51-3.18-31.99-7.04-26.89-23.27-43.99-31.54-51.58,1.23,11.65,3.9,26.52,9.74,43.03,5.21,14.73,11.55,26.78,17.26,36.04-3.86-2.36-7.71-4.71-11.57-7.07-3.6-11.71-8.87-25.36-16.71-39.86-13.17-24.34-28.73-42.06-41.14-54,4.18,11.2,9.25,23.3,15.43,36,6.13,12.59,12.46,23.95,18.64,34.07-8.38-11.22-16.88-17.52-23.14-21.21-7.02-4.14-11.18-4.97-19.93-9.64-10.55-5.63-18.28-11.78-23.14-16.07,6.44,10.56,16.3,24.31,30.86,37.93,15.05,14.08,29.93,23.18,41.14,28.93-9.23-4-23.1-8.75-40.5-10.29-14.92-1.32-27.55.15-36.64,1.93,8.22,4.57,18.77,9.53,31.5,13.5,11.32,3.53,21.62,5.42,30.21,6.43-6.26,1.9-16.7,5.94-27,14.79-8.58,7.37-13.77,15.23-16.71,20.57,12.33-.61,28.37-2.65,46.29-8.36,13.07-4.17,24.04-9.3,32.79-14.14,1.93.43,3.86.86,5.79,1.29l-46.29,50.14c6.78-1,17.93-3.56,29.57-10.93,16.37-10.36,24.4-24.31,27.64-30.86,2.6,1.44,5.68,3.73,6.29,7.07,1.27,7-9.15,13.84-14,18-8.9,7.62-18.04,22.43-18.64,54,6.9-5.37,14.8-12.52,22.5-21.86,13.7-16.62,21.04-33.24,25.07-45-3.44,11.45-6.69,24.81-9,39.86-2.26,14.7-3.17,28.12-3.36,39.86,4.13-4.18,8.5-9.48,12.36-16.07,13.49-23.09,11.74-46.85,10.29-57.21,31.62,20.14,63.24,40.29,94.86,60.43v-23.14Z"/>
    <path class="cls-24" d="M1080,705.91l-12.57-30.86,12.57-24.43v-37.29c-3.88,4.24-9.32,11.19-13.43,21-4.3,10.27-5.35,19.43-5.57,25.29-3.43-6.43-6.86-12.86-10.29-19.29,5.01-8.05,11.49-20.51,15.43-36.86,3.99-16.57,3.84-30.79,3-40.3-5.55,7.5-12.07,17.79-17.57,30.87-5.6,13.32-8.4,25.4-9.86,34.71-5.06-12.07-14.24-29.36-30.86-45.43-7.09-6.86-14.18-12.18-20.57-16.29-2.54-1.39-8.23-4.07-15.86-3.86-6.14.17-10.79,2.15-13.29,3.43,7.57,6.29,15.14,12.57,22.71,18.86-6.93-.76-16.59-1.09-27.86.86-11.74,2.03-21.05,5.82-27.43,9,8.09,4.62,18.56,9.58,31.29,13.29,21.99,6.4,41.23,6.3,54,5.14,2.1.21,6.99,1,11.57,4.71,2.97,2.41,4.67,5.11,5.57,6.86-9.77-.94-24.63-1.23-42,3-17.81,4.34-31.14,11.7-39.43,17.14,9.93,2.5,23.6,4.82,39.86,4.29,21.1-.7,37.95-5.92,48.86-10.29,3,4.57,6,9.14,9,13.71-8.51.22-23.22,1.7-39.43,9.43-14.08,6.71-23.61,15.44-29.14,21.35,13.64,1.38,23.56-.78,30-2.92,8.23-2.74,11.7-5.77,21.43-9.43,10.61-3.99,19.83-5.41,25.71-6,2.57,6.12,5.14,12.23,7.71,18.35-7.1-.69-22.6-1.22-39.86,6.51-16.06,7.2-25.64,17.97-30,23.57,10.54-.71,22.7-2.22,36-5.14,14.56-3.2,27.21-7.39,37.71-11.57,3.29,7.43,6.57,14.86,9.86,22.29-8.43-.45-19.52-.16-32.14,2.57-18.38,3.98-32.2,11.48-40.86,17.14,8.37,2.51,23.11,5.75,41.29,3.43,15.39-1.97,27.18-7.15,34.43-11.04v-25.81Z"/>
    <g>
      <g>
        <path class="cls-12" d="M1070.64,916.74l9.36-23.79v-46.29c-.29.95-.91,2.54-2.29,4.07-1.9,2.13-4.14,2.93-5.14,3.21-4.79-5.29-9.57-10.57-14.36-15.86,3.71-4.68,7.65-10.22,11.46-16.66,4.49-7.59,7.83-14.76,10.32-21.05v-46.29c-2.3,2.09-5.7,5.53-8.88,10.45-3.42,5.29-4.18,8.56-6.91,13.77-2.01,3.83-5.39,9.28-11.14,15.21-.75-.04-2.81-.27-4.77-1.82-2.14-1.7-2.77-3.91-2.95-4.61,3.53-8.27,7.37-19.55,9.38-33.32,2.43-16.72,1.24-30.91-.38-40.82-.23-.58-.74-.99-1.34-1.04-.7-.07-1.38.35-1.66,1.04-3.03,8.38-5.97,17.8-8.46,28.18-3.19,13.26-5.05,25.5-6.11,36.32-1.14-1-2.29-2-3.43-3-.29-8.2-.65-16.48-1.07-24.86-.26-5.25-.55-10.47-.86-15.64-2.37-5.03-4.71-10.35-6.96-15.96-4.56-11.37-8.08-22.2-10.82-32.25-.58-.93-1.61-1.47-2.68-1.39-1.43.11-2.18,1.27-2.25,1.39-.17,14.63.92,32.49,5.04,52.39,2.51,12.14,5.73,23,9.11,32.46-7.82-2.21-16.14-4.88-24.86-8.14-7.02-2.63-13.6-5.37-19.71-8.14-1.13-.38-2.38.07-3,1.07-.64,1.03-.46,2.38.43,3.21,3.57,3.21,8.92,8.23,15,14.79,10.34,11.14,13.36,16.55,19.71,23.14,5.72,5.94,14.91,13.64,29.57,19.93-.43,3.07-.86,6.14-1.29,9.21l-70.5-11.36c6.61,10.1,13.29,17.68,18.54,22.98,7.96,8.05,14.7,12.85,28.18,22.45,11.09,7.9,16.18,10.58,21.64,12.64,6.42,2.43,12.08,3.53,16.07,4.07-.12,6.7.28,14.86,1.93,24,1.34,7.4,3.21,13.87,5.14,19.29,6.76,23.5,13.52,47,20.29,70.5v-15.86l-9.36-57.64Z"/>
        <path class="cls-102" d="M1033.36,774.45c-.66-8.53,1.93-17.38,1.93-17.38,3.18-8.41,6.32-15.89,9.26-22.42-2.3,14.62-4.6,29.25-6.9,43.87-.37,0-1.65-.08-2.79-1.07-1.32-1.15-1.48-2.69-1.5-3Z"/>
        <path class="cls-102" d="M1038.93,823.53l1.93-10.71c.56-2.92,1.47-6.44,3-10.29,1.66-4.17,3.61-7.58,5.35-10.2,1.46.22,2.92.45,4.37.67-.88,4.57-2.08,9.59-3.72,14.93-1.78,5.81-3.78,11.02-5.79,15.6h-5.14Z"/>
        <path class="cls-102" d="M1009.36,820.94c2.11,1.16,5.41,2.95,9.53,5,13.27,6.6,18.56,7.77,24.91,11.35,5.11,2.89,12.12,8.02,18.91,17.74-.87,3.33-2.08,7.12-3.8,11.2-1.71,4.04-3.57,7.52-5.33,10.44-.46,4.56-.66,10.08-.12,16.32.64,7.36,2.12,13.62,3.65,18.52.37-8.83.74-17.66,1.11-26.49,1.47-4.6,3.49-9.88,6.32-15.54,2.89-5.77,5.98-10.64,8.84-14.62-3.43-5.94-9.99-15.31-21.38-22.66-4.76-3.07-9.34-5.13-13.29-6.54-9.78-1.58-19.57-3.15-29.35-4.73Z"/>
      </g>
      <polygon class="cls-100" points="1059.71 919.74 1070.64 916.74 1080 975.71 1080 990.24 1059.71 919.74"/>
    </g>
    <g>
      <path class="cls-83" d="M1080,1051.46v-45.64c-6.48-17.77-16.71-40.2-33.14-63.64-24.32-34.69-51.96-56.94-71.36-70.07,5.66,24.81,16.52,59.89,38.57,97.71,22.02,37.78,47.15,64.5,65.93,81.64Z"/>
      <path class="cls-115" d="M1065.71,1028.36l3.43-1.97c-4.42-9.85-11.62-25.02-21.86-42.86-9.47-16.51-16.46-26.45-36-55.29-7.8-11.51-19.82-29.31-34.73-51.65,29.72,50.59,59.44,101.17,89.16,151.76Z"/>
    </g>
    <g>
      <path class="cls-63" d="M1065.11,1176.71l-5.14,3.86v-8.58c-.85-8.19-1.14-17.92,0-28.76,2.57-24.49,11.24-43.41,18-55.23.87,4.11,1.62,9.34,1.61,15.43-.01,5.94-.75,11.06-1.61,15.11,0,6.23-.43,13.26-1.61,20.89-2.35,15.29-6.91,27.87-11.25,37.29Z"/>
      <path class="cls-5" d="M1050.97,1038.82c4.61,12.05,10,30.36,10.71,53.14.88,28.02-5.68,50.26-10.71,63.43l-9-9,9-107.57Z"/>
      <path class="cls-127" d="M1044.54,1166.43v6.75c-7.38,3.09-20.27,7.39-36.8,7.39s-29.42-4.3-36.8-7.39c8.26-3.58,20.88-7.93,36.8-9.32,15.39-1.34,28.17.58,36.8,2.57Z"/>
      <path class="cls-59" d="M1022.49,1008.82c6.6,11.7,16.15,32.05,19.47,59.14,3.46,28.17-1.35,51-5.14,64.07-2.39-1.5-4.78-3-7.16-4.5l-7.16-118.71Z"/>
      <path class="cls-20" d="M1017.54,1106.96l-5.57-3.86c.3-4.96.33-12.33-1.29-21-1.9-10.2-5.17-17.39-6-19.29-4.45-10.17-11.31-34.2-22.29-91.29,11.62,14.83,32.42,45.9,36.86,89.57,1.81,17.84.46,33.49-1.71,45.86Z"/>
      <path class="cls-78" d="M982.39,1063.77l-13.71-12.73c-11.45-16.07-23.16-33.85-34.71-53.36-9.65-16.29-18.18-32.08-25.71-47.14,12.57,8.85,32.2,25.03,48.86,51,15.67,24.43,22.27,47.51,25.29,62.23Z"/>
      <path class="cls-65" d="M957.54,1044.39c-10.98-20.8-21.53-37.21-29.57-48.86-16.1-23.33-23.52-29.57-30.43-33.86-13.79-8.55-27.71-10.63-36.43-11.14,8.49,9.24,15.88,16.31,21,21,15.57,14.27,20.85,16.44,36,31.29,8.46,8.29,14.04,14.69,18.86,20.95,4.66,6.05,8.21,11.43,10.71,15.48,3.29,1.71,6.57,3.43,9.86,5.14Z"/>
      <path class="cls-64" d="M1034.17,1143.23c-1-2.42-2.01-4.84-3.01-7.27-7.79-2.92-21.75-6.99-39.38-5.86-20.17,1.29-35,8.74-42.39,13.12,2.71,2.34,5.43,4.68,8.14,7.02,15.35,3.43,26.65,2.02,34.25,0,8.13-2.16,15.4-5.91,28.31-7.02,5.92-.51,10.84-.28,14.08,0Z"/>
      <path class="cls-11" d="M1002.88,1102.65l-1.64-5.54c-9.08-1.09-22.59-1.64-38.39,1.71-18.29,3.89-31.87,11.36-40.03,16.71,5.44,3.42,10.58,5.41,15,6.59,31.57,8.41,60.33-15.43,65.06-19.47Z"/>
      <path class="cls-87" d="M982.39,1075.68l-7.47-11.91c-15.52,2.03-33.1,5.31-52.11,10.63-14.74,4.12-28.05,8.82-39.86,13.61,1.42,2.14,4.11,5.56,8.57,8.27,7.07,4.29,14.08,4.06,16.71,3.84,5.31-3.2,13.64-7.34,24.43-9,7.5-1.15,11.3-.36,17.14-.86,7.87-.67,19.13-3.64,32.57-14.57Z"/>
      <path class="cls-107" d="M960.11,1052.96l-10.71-8.57c-12.93-2.36-32.92-4.36-56.57,0-17.25,3.18-31.15,8.76-41.14,13.71,11.15,3.71,27.37,7.66,47.14,7.71,27.41.07,48.86-7.4,61.29-12.86Z"/>
      <path class="cls-108" d="M966.43,1050.93l-21.32-15.71c-12.34-14.24-31.28-32.9-58.07-49.43-21.63-13.35-41.95-21.34-57.86-26.25,3.95,4.49,10.45,11.21,19.61,17.89,14.24,10.38,23.48,12.31,40.73,22.56,6.32,3.76,15.44,9.66,25.81,18.26-5.62-3.05-14.06-7.56-24.43-12.86-36.46-18.62-45.02-20.45-49.82-21.21-8.38-1.33-22.04-2.03-39.86,3.86,8.53,4.59,21.34,10.79,37.61,16.07,26.12,8.47,40.67,7.9,57.94,12.17,17.32,4.28,40.71,14.25,66.09,39.58,1.19-1.64,2.38-3.29,3.58-4.93Z"/>
      <path class="cls-93" d="M1081.54,1235.54v-13.5c-3.97-9.55-8.26-19.31-12.89-29.25-10.26-22-21.02-42.24-31.82-60.75-2.7-5.42-6.98-13.2-13.32-21.86-1.08-1.48-3.12-4.19-14-16.71-10.73-12.34-16.09-18.51-21.86-24.43-4.52-4.64-10.89-10.91-18.96-18-1.97-.45-3.98.51-4.82,2.25-.92,1.89-.25,4.28,1.61,5.46,7.09,7.7,14.28,15.84,21.54,24.43,8.39,9.95,16.2,19.72,23.46,29.25,4.51,5.1,10.51,12.25,17.04,21.21,11.35,15.6,18.46,28.72,24.11,39.21,4.09,7.61,9.16,17.58,14.46,29.57,5.15,11.04,10.31,22.07,15.46,33.11Z"/>
      <path class="cls-18" d="M1004.75,1088l-9.53-10.83-50.11-117.63c19.7,19.26,30.95,38.15,37.29,51,8.47,17.16,12.71,32.71,15.43,42.86,3.66,13.65,5.71,25.53,6.93,34.61Z"/>
      <path class="cls-4" d="M935.25,1034.11l-12.43-10.34c-12.25-4.78-34.1-11.43-61.71-9.8-21.15,1.25-37.96,6.9-48.86,11.57,7.71,4.89,20.03,11.25,35.9,12.88,13.4,1.37,21.53-1.43,37.82-3.45,11.28-1.4,28.08-2.61,49.29-.86Z"/>
    </g>
    <g>
      <path class="cls-28" d="M128.3,1851.98c-.52-3.37-1.65-6.66-3.37-9.78-1.01-1.84-2.22-3.6-3.61-5.28.36-1.96.56-3.98.56-6.04,0-14.46-9.43-26.84-22.65-31.68-.24-.47-.51-.95-.8-1.44-2.4-3.93-6.35-7.42-11.4-10.08l-.61-.32-.59.34c-4.67,2.7-8.25,5.97-10.63,9.74-.41.65-.77,1.29-1.08,1.91-13.01,4.94-22.25,17.21-22.25,31.53,0,1.32.08,2.62.23,3.91-5.69,6.39-7.27,13.15-7.68,16.98l-.11,1.02,1.05.22c2.48.52,5.69.98,9.4.98,1.93,0,3.99-.12,6.15-.42,6.41,6.86,15.68,11.18,25.97,11.18s19.49-4.29,25.9-11.1c2.11.25,4.12.35,6.01.35,3.3,0,6.21-.31,8.53-.7l1.15-.19-.17-1.11ZM119.29,1830.88c0,1.2-.07,2.39-.21,3.55-.71-.72-1.46-1.42-2.24-2.1-2.71-2.67-7.47-6.32-14.82-8.62-.46-.15-.93-.28-1.39-.41l9.38-10.23-9.02-.03c.05-.51.08-.97.11-1.4.18-2.66.4-5.78-.59-9.22,11.08,4.99,18.78,15.87,18.78,28.45ZM84.87,1851l-.16-9.64-.04-2.5-.02-1.32-.04-2.31-2.67-3.15-1.57-1.85-4.67-5.51-1.4-1.66c-.07-.13-.13-.27-.2-.41-.04,0-.08.01-.12.02l-6.29-7.41h4.19s2.42.02,2.42.02l23.98.07h2.44s4.02.02,4.02.02l-6.39,6.97-.3.33-1.83,2-5,5.45-2.54,2.77-2.25,2.46-.02,1.86-.02,2.01-.02,1.67-.11,10.18,8.66,2.53-17.59.18,7.57-2.78ZM86.48,1790.02c4.05,2.23,7.26,5.02,9.38,8.13.17.26.34.52.5.78.49.8.88,1.58,1.2,2.34,1.58,3.76,1.34,7.16,1.13,10.23-.03.47-.07.99-.12,1.54l-24.51-.08c-.05-1.13-.04-2.39.09-3.77.23-2.46.47-4.99,1.65-7.78.38-.9.86-1.82,1.46-2.78.08-.13.16-.25.25-.38,2.08-3.13,5.09-5.89,8.98-8.23ZM72.82,1802.62c-.69,2.29-.88,4.4-1.07,6.36-.13,1.44-.15,2.77-.1,3.97l-9.06-.03,8.73,10.3c-5.8,1.65-11.09,4.35-15.32,7.82-.52.43-1.03.87-1.5,1.31-.02-.49-.04-.98-.04-1.47,0-12.42,7.5-23.18,18.35-28.25ZM59.1,1851.46c-4.78.49-8.98.09-12.15-.49.49-3.29,1.87-8.22,5.67-13.11.65-.84,1.38-1.68,2.18-2.51.84-.86,1.76-1.72,2.77-2.55,4.08-3.35,9.23-5.93,14.88-7.48.18-.04.36-.08.54-.12l9.21,10.86.08,4.49c-2.57,2.75-8.11,7.53-17.18,9.85-1.03.26-2.04.48-3.02.65-1.02.18-2.01.32-2.98.42ZM65.72,1852.62c7.99-2.04,13.42-5.88,16.62-8.82l.1,5.62-15.91,5.84c-.9-.7-1.75-1.44-2.56-2.23.58-.12,1.17-.26,1.76-.41ZM86.88,1862.24c-7.15,0-13.76-2.25-19.12-6.06l38.8-.4c-5.46,4.05-12.28,6.46-19.68,6.46ZM107.66,1854.92l-19.01-5.56.07-6.13c.41.37.83.73,1.26,1.08,4.25,3.54,9.62,6.27,15.5,7.9,1.42.39,2.81.71,4.17.95-.64.61-1.31,1.2-2,1.76ZM114.63,1851.5c-.99-.08-2-.2-3.04-.36-1.76-.27-3.58-.64-5.44-1.15-7.02-1.94-11.81-5.11-14.6-7.44-1-.81-1.93-1.66-2.79-2.55l.04-3.79,10.07-10.98c.8.19,1.6.42,2.41.67,6.9,2.16,11.35,5.58,13.86,8.06l.06.05c1.23,1.06,2.36,2.18,3.39,3.34.73.82,1.41,1.66,2.05,2.52.81,1.1,1.53,2.24,2.18,3.4,1.4,2.54,2.38,5.2,2.92,7.92-2.99.42-6.81.68-11.1.31Z"/>
      <text class="cls-29" transform="translate(13.35 1907.68) scale(.82 1)"><tspan x="0" y="0">SOULMIA</tspan></text>
    </g>
    <path class="cls-50" d="M1078.64,1432.29c-4.86.83-20.4,2.84-36.34-6.07-11.09-6.2-17.21-14.8-19.95-19.29,6.36-.75,17.05-1.22,29.57,2.25,12.65,3.5,21.64,9.48,26.71,13.42-.12-3.18-.63-7.54-2.29-12.46-1.42-4.2-3.24-7.54-4.82-9.96-7.74-.74-20.08-2.92-33.43-9.96-17.3-9.13-27.38-21.72-32.14-28.61,6.73.1,17.26,1.12,28.93,6.11,17.36,7.42,27.44,19.45,31.82,25.45-2.57-8.91-5.14-17.82-7.71-26.73-6.83-1.41-19.49-4.96-32.14-14.79-11.34-8.81-17.69-18.77-20.89-24.75,4.73-.14,15.35.2,26.68,6.43,12.21,6.71,18.3,16.45,20.57,20.57-2.04-9.33-4.07-18.66-6.11-27.98-6.49-3.9-17.33-11.54-26.68-24.73-9.27-13.07-12.91-25.71-14.46-33.11,5.22,2.39,14.51,7.48,22.82,17.36,8.76,10.41,12.14,21.02,13.52,26.66-2.76-12.75-5.14-29.91-4.2-50.13.79-16.85,3.66-31.22,6.75-42.43,3.09,6.25,7.01,16.16,7.58,28.63.45,9.98-1.53,15.17-2.55,27.67-.61,7.55-.96,18.76.81,32.76-.12-6.67.5-17.12,4.77-28.99,4.86-13.53,12.26-22.79,17.04-27.92,1.05,6.97,1.97,19.14-1.95,33.42-4.49,16.39-13.09,27.38-17.98,32.79-.16,3.81-.07,8.39.64,13.5.86,6.15,2.36,11.35,3.86,15.43,1.02-6.37,2.94-14.52,6.75-23.46,4.57-10.75,10.25-18.87,14.82-24.43v13.16c-1.78,6.98-3.22,12.71-4.21,16.73-2.39,9.61-2.96,12.12-4.5,15.75-2.61,6.14-6.05,10.8-9,14.14,4.18,11.48,8.36,22.97,12.54,34.45-.03-4.7.22-10.02.96-15.81.96-7.51,2.54-14.1,4.21-19.61,1.48,6,2.98,15.95,0,27.32-.94,3.59-2.18,6.74-3.46,9.43,1.15,1.46,2.31,2.93,3.46,4.39v33.39Z"/>
    <path class="cls-116" d="M-9.84,1578.62v-31.5c2.62.34,6.55.55,11.07-.43,11.72-2.54,17.95-11.07,24.86-17.53,9.09-8.52,14.41-8.84,33-18.04,13.46-6.66,32.66-17.38,56.14-34.71-.9-9.2-1.07-23.09,3.43-39,7.47-26.41,23.46-42.92,31.29-50.02.23,10.59-.71,27.45-7.71,46.59-6.15,16.82-14.67,29.1-21,36.86,4.21-2.64,8.43-5.29,12.64-7.93,5.48-16.23,14.14-36.59,28.07-58.07,9.97-15.37,20.39-27.86,29.79-37.71-1.82,10.13-5.19,23.29-11.79,37.71-7.31,15.99-16.07,28.09-23.14,36.43,9.23-9.26,20.86-19.55,35.14-29.57,11.56-8.11,22.64-14.49,32.57-19.5-4.81,9.13-12.02,20.52-22.71,31.93-17.07,18.2-35.32,28.26-47.36,33.64,9.39-4.07,23.91-9.02,42.21-10.07,13.28-.77,24.59.75,33,2.55-5.27,4.42-14.29,10.86-27,15.02-15.08,4.94-28.13,4.31-35.36,3.43,6.92,2.17,17.45,6.42,28.07,15,7.97,6.44,13.4,13.22,16.93,18.43-10.17.16-22.48-.48-36.21-3-18.76-3.44-34.09-9.26-45.43-14.6h-4.5c8.04,6.46,17.19,14.8,26.36,25.32,8.34,9.56,14.86,18.82,19.93,27-7.8-2.45-18.99-6.96-30.64-15.43-12.94-9.41-21.16-19.86-25.93-27-1.99,2.14-3.98,4.29-5.96,6.43,6.4,5.87,15.83,15.94,23.32,30.86,7.68,15.28,10.09,29.21,10.93,37.93-7.84-5.76-17.4-13.92-26.79-25.07-10.72-12.74-17.64-25.14-22.07-34.71,3.72,10.6,7.42,23.88,9.64,39.43,2.05,14.33,2.35,27.12,1.93,37.71-5.18-8.74-11.03-20.37-15.64-34.71-4.56-14.19-6.6-26.91-7.5-36.96-23.51,25.21-40.77,34.56-52.68,38.17-3.55,1.07-14.99,4.17-27.25,12.94-6.23,4.45-10.74,8.99-13.64,12.21Z"/>
    <g>
      <g>
        <path class="cls-6" d="M29.39,1523.66c.22,2.41.71,5.78,1.93,9.64,1.6,5.07,3.19,10.09,7.3,13.5,5.38,4.46,13.6,4.92,19.7,2.57,10.58-4.07,15.73-16.91,14.14-27.64-2.12-14.29-15.59-20.7-16.71-21.21,7.31,5.43,16.01,6.71,21.6,3.03,6.38-4.19,6.19-13.19,6.04-20.39-.13-6.01-.41-19.73-9-24.43-8.24-4.51-22.47.17-31.82,13.5,1.87-1.86,10.45-10.76,9.96-23.79-.33-8.87-4.96-22.2-16.07-25.07-5.92-1.53-14.3-.25-18.64,5.79-4.98,6.9-3.44,18.33,5.14,25.71-15.29-19.44-25-28.09-29.14-25.96-5.21,2.69-1.59,22.49,10.86,59.38-5.93,43.02-1.79,54.55,3.5,56.57,4.09,1.56,10.55-1.92,14.14-5.14,6.68-6,7.03-14.37,7.07-16.07Z"/>
        <path class="cls-96" d="M35.69,1524.22l6.11-16.71,5.46,8.36c1.42.17,2.79-.45,3.54-1.61.94-1.46.39-3.03.32-3.21-1.71-2.46-3.43-4.93-5.14-7.39l5.14-2.89c.11,1.67.52,4.48,2.09,7.55,1.39,2.72,3.15,4.56,4.34,5.62.18-1.96.21-4.56-.32-7.55-.39-2.23-1-4.12-1.61-5.62l7.71-2.25-8.36-4.5-3.21-9.64,11.57-5.79h-9l-.96-6.11-11.89,9.32,1.29-9.32,3.21-12.21-4.5,5.79-6.59-16.71c-.43,6.27-.86,12.54-1.29,18.8-2.68-3.32-5.36-6.64-8.04-9.96-.05,5.2-.11,10.39-.16,15.59l-10.61-6.75,9.32,11.89c-3.16-.05-6.32-.11-9.48-.16,1.55,1.98,3.11,3.96,4.66,5.95h-7.68c1.71,2.41,4.05,5.24,7.2,8.04,2.08,1.85,4.11,3.33,5.95,4.5-.27,1.8-1,5.01-3.21,8.36-2.33,3.52-5.17,5.49-6.75,6.43,1.32.21,4.73.58,8.52-1.12,3.57-1.61,5.52-4.19,6.27-5.3,1.31,1.93,2.82,4.56,4.02,7.88,1.54,4.26,1.99,8.07,2.09,10.77Z"/>
      </g>
      <path class="cls-2" d="M36.17,1485.86c-3.29,0-5.66,2.63-5.46,5.14.14,1.87,1.7,3.59,3.86,4.18,11.2.63,22.84,1.52,34.88,2.73,11.4,1.15,22.39,2.5,32.95,4.02-.61-.96-1.72-2.43-3.54-3.7-2.38-1.66-4.74-2.11-5.95-2.25,1.54-.47,3.92-1.41,6.27-3.38,1.46-1.23,2.5-2.5,3.21-3.54-9.15,1.78-21.44,3.21-35.84,2.25-12.09-.81-22.37-3.09-30.37-5.46Z"/>
    </g>
    <g>
      <g>
        <g>
          <path class="cls-130" d="M.74,561.06v-141.96c.64-6.8,2.55-17.34,8.64-28.61,10.11-18.69,25.51-27.84,32.14-31.29.77,12.92.55,29.17-2.57,47.57-2.26,13.35-5.57,25-9,34.71,14.57-5.14,29.14-10.29,43.71-15.43-.37,7.97-2.04,20.24-8.57,33.43-12.42,25.07-33.96,36.32-41.57,39.86,5.9.03,10.75-.61,14.34-1.29,11.64-2.19,14.76-5.36,22.94-5.14,6.1.16,15.89,2.27,17.14,7.29,1.09,4.37-4.75,9.15-12.52,15.51-3.58,2.93-9.86,7.86-26.05,16.21-5.96,3.08-10.99,5.55-14.57,7.29,3.99-1.25,17.76-4.99,32.14,1.71,6.52,3.04,10.98,7.21,13.71,10.29-2.69,2.95-7.18,7.1-13.71,9.86-6.16,2.6-11.73,2.93-27.43,2.14-7.74-.39-17.49-1.03-28.79-2.14Z"/>
          <path class="cls-68" d="M68.96,431.63c-10.85,10.62-22.06,22.32-33.41,35.14-10.15,11.47-19.41,22.72-27.84,33.58-1.31-1.14-2.62-2.29-3.93-3.43l2.21,17.14c2.03-1.8,5.01-4.54,8.44-8.05,14.14-14.48,21.15-27.18,28.42-38.66,5.68-8.96,14.18-21.4,26.11-35.72Z"/>
          <path class="cls-68" d="M70.85,502.36l-63.59,10.02,6.99-14.51L.25,518.01c8.49-.21,18.34-1.02,29.11-2.96,17.11-3.09,31.06-8.07,41.49-12.69Z"/>
        </g>
        <path class="cls-68" d="M.74,461.39v-13.05c3.2-10.79,7.17-22.37,12.11-34.53,6.92-17.04,14.47-32.05,21.86-45-4.24,14.97-9.33,30.9-15.46,47.57-5.96,16.19-12.21,31.2-18.5,45Z"/>
      </g>
      <path class="cls-68" d="M64.78,550.99c-10.33-1.76-21.85-3.2-34.4-3.95-10.65-.64-20.6-.7-29.73-.39.03,2.09.06,4.18.09,6.27,5.46-2.19,9.99-3.09,12.93-3.51,13.83-1.99,21.21,2.4,38.41,2.39,5.56,0,10.04-.47,12.7-.8Z"/>
    </g>
    <g>
      <g>
        <g>
          <path class="cls-38" d="M174.07,18.29L129.93,0h-61.29c-7.62-.03-19.19.89-32.14,5.86C17.35,13.2,5.52,25.43,0,32v84.86l63.07-19.71,23.96-16.29-20.54-25.29,36,14.57,24.86-15.43-11.14-17.14c3.37,1.32,18.31,6.75,35.14,0,13.58-5.45,20.49-15.66,22.71-19.29Z"/>
          <path class="cls-132" d="M0,68.99v10.58c10.56-9.2,25.73-20.57,46.33-31.22,23.77-12.29,46.34-19.24,63.02-23.28.88-.96,2.39-2.88,2.8-5.56.27-1.77-.03-3.25-.35-4.23-16.17,2.35-43.39,8.01-71.07,23.02C21.37,48.79,8.29,60.34,0,68.99Z"/>
        </g>
        <g>
          <path class="cls-17" d="M0,103.14v15.43l45.5,42.43v-21l14.57,30.86,26.57,18-7.71-42.86,25.71,48.86,18.86,14.14-3-40.29c4.39,4.24,10.81,11.44,15.43,21.86,6.11,13.78,3.97,21.74,10.29,30.43,3.75,5.16,11.22,11.58,27.86,14.14-3.05-17.47-9.02-41.03-21.43-66.86-11.54-24.01-24.97-42.36-36-55.29-4.72-4.76-27.03-26.25-62.14-27-28.12-.6-47.99,12.44-54.5,17.14Z"/>
          <path class="cls-36" d="M0,108.93v4.71c11.37-1.9,30.01-3.55,52.11,1.29,24.76,5.42,42.45,16.48,52.11,23.57-7.8-7.23-21.74-18.26-42-25.29-27.34-9.48-51.09-6.45-62.21-4.29Z"/>
        </g>
      </g>
      <g>
        <path class="cls-60" d="M0,116.86v156.86c2.52-.41,5.99-1.39,9.29-3.86,10.01-7.48,8.9-21.49,8.79-22.71.86,24.29,1.71,48.57,2.57,72.86,1.59-6.65,4.46-15.52,9.86-25.07,4.52-8,9.51-14.17,13.71-18.64-1.3,14.3-1.67,32.01.76,52.07,1.81,14.93,4.79,28.1,8.02,39.21,4.51-7.76,9.27-17.65,12.86-29.57,7.43-24.67,6.35-46.31,4.5-59.79,3.43,5.91,7,13.43,9.64,22.5,6.06,20.81,4.02,38.97,1.93,49.5,5.08-18.12,18.38-74.47-7.07-138.21C53.43,158.33,16.09,128.36,0,116.86Z"/>
        <path class="cls-126" d="M44.98,248c-3.17-14.57-8.92-33.68-19.86-54.3-8.17-15.4-17.16-27.74-25.12-37.19.02,4.36.05,8.71.07,13.07,6.43,8.29,13.04,17.64,19.5,28.07,11.14,18,19.33,35.18,25.41,50.36Z"/>
      </g>
    </g>
    <g>
      <g>
        <path class="cls-76" d="M86.78,329.65c-.67-.52-15.08-12.18-12.54-28.93.47-3.06,2.63-13.73,12.54-19.29,9.76-5.48,19.82-1.93,22.18-1,11.27,4.43,18.84,16.62,19.29,30.9-1.66-12.87,3.87-24.43,12.54-27.96,12.26-5,25.57,8.23,30.86,17.36,1.57,2.72,9.96,17.2,1.93,30.86-5.47,9.29-16.4,14.57-27.96,13.5,16.53-2.32,30.79,3.76,34.73,13.5,2.78,6.88.44,15.65-.01,17.36-.91,3.43-2.63,9.85-6.7,12.6-7.07,4.76-22.14-.92-35.72-15.49,16.9,12.99,20.11,33.89,11.57,45.32-5.93,7.93-17.35,11.08-27,9.64-2.44-.36-13.83-2.37-20.25-12.54-6.34-10.04-5.25-23.95,2.89-34.71-4.21,10.96-11.94,18.68-19.29,18.32-8.25-.4-13.09-10.85-18.32-22.18-5.05-10.92-8.77-18.96-5.79-27.96,4.89-14.76,23.41-18.94,25.07-19.29Z"/>
        <path class="cls-123" d="M111.96,343.68c0-1.08-.13-2.81-.86-4.71-1.81-4.74-5.52-5.84-8.14-9.64-1.33-1.94-2.79-5.15-2.57-10.5,2.96,1.35,6.81,3.49,10.71,6.86,2.75,2.38,4.86,4.78,6.43,6.86.33-1.55.58-3.35.64-5.36.14-4.34-.68-7.96-1.5-10.5,2.21,3.21,4.43,6.43,6.64,9.64l5.36-11.57-2.57,22.07,16.29-13.93c-2.57,4.28-5.24,9.5-7.5,15.64-1.16,3.16-2.07,6.18-2.79,9,2.04,1.23,5,2.53,8.3,2.03,2.45-.37,3.46-1.48,6.05-2.25,2.13-.63,5.29-1.02,9.64.21-1.86.14-4.89.61-8.14,2.36-2.09,1.12-3.65,2.43-4.71,3.5,2.38.6,5.48,1.66,8.79,3.58,2.18,1.27,3.96,2.63,5.36,3.86-3.45-.06-7.69-.43-12.43-1.5-3.91-.89-7.29-2.05-10.07-3.21-.35,2.69-.59,5.63-.64,8.79-.11,7.15.78,13.39,1.93,18.43-3.17-6.48-7.02-13.34-8.14-12.21-.21.21-.43,13.93-.43,13.93l-5.36-6.86-1.09,4.71c-.23-2.58-.32-5.7,0-9.21.36-3.96,1.13-7.36,1.95-10.07-.92.38-2.58.92-4.71.86-2.04-.06-3.61-.66-4.5-1.07,3.45-.61,5.61-2.32,5.57-3.86-.04-1.33-1.73-2.64-3.21-2.79-3.06-.3-6.51,4.25-9,11.14-1.71-1.29-3.43-2.57-5.14-3.86l7.71-6.21-19.73-.26c3.07-1.17,5.6-1.64,7.33-1.85,0,0,7.45-.89,8.54-2.32,0,0,0,0,0,0,.08-.24-3.73-1.65-4.07-1.78-1.76-.64-5.09-1.42-11.14-.86,4.14-2.14,8.29-4.29,12.43-6.43-2.18-.4-3.19-1.36-3.64-1.93-1.61-1.98-1.53-5.37-1.51-5.37,0,0,0,.01,0,.02,1.66,3.32,7.93,5.36,7.93,5.36,1.46.47,3.49,1.01,6,1.29Z"/>
      </g>
      <path class="cls-22" d="M119.31,347.19c-1.46,1.75-1.18,4.26.32,5.46,1.2.96,3.06.99,4.5,0,6.16-7.32,11.73-12.66,15.75-16.23,7.18-6.38,9.21-6.94,12.86-11.89,3.07-4.17,4.23-7.3,9-12.21,2.26-2.33,4-4.1,6.91-5.62,3.81-2,5.67-1.51,8.2-3.38,1.66-1.22,3.75-3.57,4.82-8.52-3.96,1.29-7.93,2.57-11.89,3.86.12-1.55.11-4.04-.8-6.91-1.08-3.4-2.91-5.71-4.02-6.91-.07,2.39.04,5.35.64,8.68.49,2.74,1.21,5.12,1.93,7.07-.46,1.08-1.26,2.78-2.57,4.66-2.57,3.68-5.47,5.74-6.43,6.43-8.39,6.07-15.38,13.88-23.14,20.73-3.79,3.34-9.37,8.37-16.07,14.79Z"/>
    </g>
    <path class="cls-15" d="M-.32,773.23v-57.86l4.79,25.71c2.01-2.11,4.66-5.36,6.86-9.86,2.03-4.16,2.97-7.95,3.43-10.71l-15.07-23.79v-61.07c5.21,11.01,10.76,25.28,14.64,42.43,3.24,14.3,4.54,27.2,4.93,37.93,3.64-4.71,7.29-9.43,10.93-14.14-6.49-14.76-14.78-39.4-13.29-70.07.59-12.02,2.56-22.63,4.93-31.5,5.14,21.86,10.29,43.71,15.43,65.57.96-13.06,2.84-27.7,6.21-43.5,2.14-10.02,4.64-19.33,7.29-27.86,1.86,8.13,3.44,17.95,3.86,29.14.62,16.4-1.45,30.38-3.86,40.93,10.07-19.29,20.14-38.57,30.21-57.86.16,9.15-.69,23.61-6.64,40.07-6.42,17.77-15.97,30.09-22.29,37.07,4.28-4.46,12.45-11.76,24.86-16.5,15.9-6.07,29.89-4.53,36.21-3.43-4.99,5.35-14.04,13.67-27.64,19.71-15.63,6.95-29.67,7.52-37.29,7.29-.37-.05-5-.58-8.14,3-2.66,3.04-2.22,6.73-2.14,7.29,10.38-2.22,21.84-4.18,34.29-5.57,14.88-1.66,28.61-2.22,40.93-2.14l-43.07,27c-4.69.24-12.31.05-21-3-7.05-2.47-12.27-5.93-15.64-8.57-4.07,8.14-8.14,16.29-12.21,24.43,7.44-2.25,16.06-4.28,25.71-5.57,20-2.66,37.28-1.18,50.14,1.07-8.14,6.86-16.29,13.71-24.43,20.57l-25.71,2.57-34.71-7.07-7.07,16.07c7.01-2.34,20.2-5.71,36.64-3.64,14.51,1.83,25.35,7.11,31.5,10.71-1.29,1.71-2.57,3.43-3.86,5.14l-48.21,7.71-21.5-7.71Z"/>
    <g>
      <path class="cls-105" d="M.09,976.67c2.42-.42,5.85-1.28,9.61-3.21,3.65-1.88,6.3-4.09,8.04-5.79-2.65-1.38-10.4-5.87-14.79-15.43-3.11-6.78-3.09-12.96-2.86-16.07,1.75,1.64,4.44,4.2,7.68,7.39,11.91,11.73,13.57,14.65,17.68,17.04,4.59,2.67,12.32,4.74,25.71.64,2.09-10.46-.04-15.74-2.57-18.64-3.27-3.74-7.29-3.59-13.18-8.36-4.27-3.46-6.91-7.4-8.5-10.29,3.58-1.93,7.17-3.86,10.75-5.79l23.79,20.57c1.5.07,7.82.17,13.5-4.5,5.91-4.87,6.89-11.44,7.07-12.86-2.72-3.35-7.19-8.07-13.82-12.21s-12.83-6.1-17.04-7.07c.69-.91,1.83-2.16,3.54-3.21,3.05-1.88,6.06-1.97,7.39-1.93,2.25,1.5,7.08,4.28,13.82,4.8,5.26.41,9.48-.73,11.89-1.59.5-.06,5.52-.8,8.04-5.46,2.82-5.22-.18-10.38-.32-10.61l-20.57-4.5c.32-1.12,1.26-3.83,3.86-6.11,2.26-1.98,4.64-2.65,5.79-2.89,5.14,2.14,10.29,4.29,15.43,6.43.2-5.64.76-12.02,1.93-18.96,1.34-7.93,3.2-14.94,5.14-20.89-4.46-2.76-11.19-6.22-19.93-8.36-7.39-1.8-13.86-2.09-18.64-1.93-3.26,2.45-8.65,7.17-12.86,14.79-4.69,8.48-5.6,16.38-5.79,20.57-3.86-.86-7.71-1.71-11.57-2.57l9.64-32.79c-3.89.34-11.21,1.52-18.64,6.43-4.56,3-7.67,6.42-9.64,9-.64,13.5-1.29,27-1.93,40.5-.54.37-2.04,1.29-4.18,1.29s-3.64-.92-4.18-1.29c.86-13.07,1.71-26.14,2.57-39.21l-11.86,5.14v127.93Z"/>
      <path class="cls-98" d="M76.88,855.95c-13.78,6.73-29.71,15.87-46.29,28.29-11.93,8.93-22.04,17.95-30.5,26.36-.01,1.82-.02,3.64-.04,5.46,10.75-9.41,22.2-18.98,34.39-28.61,14.5-11.45,28.7-21.93,42.43-31.5Z"/>
    </g>
    <g>
      <path class="cls-41" d="M0,1177.93v122.14l28.79-58.71c-1.07-.89-4.11-3.19-8.57-3.43-2.78-.15-4.99.55-6.25,1.07l20.39-14.79c3.69-9.72,7.3-20.9,10.29-33.43,3.5-14.67,5.42-28.13,6.43-39.86-7.26,1.38-17.57,4.18-28.75,10.29-10.04,5.48-17.39,11.78-22.32,16.71Z"/>
      <path class="cls-19" d="M0,1431.22l34.36-43.71-28.29-10.29c9.03-1.38,22.02-4.87,33.1-14.73,4.9-4.37,12.74-12.93,25.19-54.69,3.31-11.11,7.35-25.93,11.14-43.71-8.17-.25-22.14.39-37.75,6.86-20.48,8.48-32.52,22.29-37.75,29.14v131.14Z"/>
      <path class="cls-66" d="M64.79,1267.08c-13.38,11.73-29.4,28.22-44.14,50.36-8.89,13.35-15.58,26.14-20.64,37.5v12.86c7.44-14.23,15.91-29.17,25.54-44.57,13.08-20.92,26.38-39.61,39.25-56.14Z"/>
      <path class="cls-19" d="M44.64,1162.93c-9.38,9.03-19.61,20.22-29.57,33.86-5.86,8.02-10.84,15.81-15.07,23.14v10.71c6.09-10.32,12.65-20.92,19.73-31.75,8.33-12.75,16.68-24.73,24.92-35.97Z"/>
    </g>
    <g>
      <path class="cls-120" d="M84.01,1108.95c-4.87-2.62-10.66-5.18-17.33-7.2-20.68-6.26-39.03-3.99-49.87-1.62-1.08-8.81-2.93-19.02-6.09-30.17-3.08-10.88-6.75-20.35-10.36-28.29v38.14c1.88,8.71,3.76,17.43,5.64,26.14l7.5,1.71c6,3.63,26.31,14.89,50.79,9.43,8.23-1.84,14.84-5.09,19.71-8.14Z"/>
      <path class="cls-79" d="M91.94,975.23c-7.54,4.83-17.38,12.25-27,23.14-8.92,10.1-14.81,19.97-18.64,27.64.64-7.53.85-16.43,0-26.36-1.11-12.97-3.71-24.05-6.43-32.79-3.03,8.7-6.13,20.51-7.07,34.71-1.3,19.63,2.04,35.76,5.14,46.29,3.23-.64,7.82-1.9,12.7-4.66,10.26-5.81,15.28-14.57,20.73-24.91,6.26-11.87,13.35-26.28,20.57-43.07Z"/>
      <path class="cls-46" d="M.37,1131.45v-10.29l23.43-46.29c-4.42-11.06-9.1-25.85-11.57-43.71-2.79-20.15-1.82-37.44-.14-50.14,5.55,11.27,12.1,27.89,14.93,48.86,1.92,14.23,1.62,26.74.64,36.64,3.43-6.21,6.86-12.43,10.29-18.64l7.89-1.93c4.76-3.88,15.5-11.57,31.32-14.14,13.14-2.14,23.84.22,29.57,1.93-8.09,3.71-16.67,7.38-25.71,10.93-13.7,5.37-26.83,9.81-39.21,13.5l-7.07,12.21c6.91-1.91,18.26-4.13,32.14-2.57,11.75,1.32,20.98,4.85,27,7.71-5.96,3.19-15.66,7.43-28.29,9-15.38,1.92-27.8-1.02-34.71-3.21-4.29,5.36-8.57,10.71-12.86,16.07l-4.5,10.29-6.43,12.21c9.84.55,25.59,2.77,42.43,11.57,8.99,4.7,16,10.08,21.21,14.79-13.18,3.83-22.27,2.3-28.29,0-10.98-4.19-16.05-12.58-29.57-14.79-5.15-.84-9.55-.46-12.5,0Z"/>
    </g>
  </g>
  <g id="guacamaya_y_tiki_vaso" data-name="guacamaya y tiki vaso">
    <g>
      <path class="cls-45" d="M17.23,1586.38h166.55c-2.28,7.74-9.06,26.76-28.22,42.85-17.62,14.81-36.36,19.28-44.73,20.78-.85,3.63-1.94,8.99-2.66,15.53-1.1,10.11-.71,11.82-.09,28.64.8,21.74-.68,27.64,4.44,39.7,1.6,3.77,3.28,6.82,4.49,8.85,4.22,3.17,10.09,6.95,17.89,10.49,11.51,5.21,22.56,7.78,30.28,9.12H46.14c5.87-.21,21.41-1.31,35.1-9.12,6.64-3.79,10.68-7.93,13.08-10.94,1.18-2.14,2.83-5.41,4.24-9.5,3.95-11.44,1.8-16.93.23-37.92-1.34-18.02-.48-23.76-4.33-36.4-1.06-3.49-2.14-6.36-2.9-8.28-11.1-3.86-28.3-11.03-44.05-23.48-19.78-15.64-27.26-31.7-30.28-40.35Z"/>
      <path class="cls-97" d="M28.93,1591.17h147.28c-1.19,5.76-4.77,17.33-17.55,28.95-14.65,13.32-33.14,19.21-41.29,21.43-3.57.47-7.86.85-12.73.91-6.07.08-11.32-.36-15.49-.91-8.24-2.11-23.79-6.94-37.51-17.32-17.26-13.06-21.48-27.23-22.71-33.05Z"/>
      <path class="cls-26" d="M107.73,1610.54h59.62c-3.94,5.26-10.06,12.11-19.07,18.3-15.68,10.78-31.54,13.69-39.87,14.61-8.71.17-29.32-.61-49.4-13.43-10.09-6.44-16.85-13.87-21.1-19.49h69.82Z"/>
    </g>
    <text class="cls-30" transform="translate(116.87 1023.77)"><tspan class="cls-92" x="0" y="0">A</tspan><tspan x="26.41" y="0">umenta el </tspan><tspan class="cls-89" x="213.69" y="0">v</tspan><tspan x="233.18" y="0">olumen del cóctel y complementa </tspan><tspan x="169.89" y="48">los sabores dando frescu</tspan><tspan class="cls-101" x="622.49" y="48">r</tspan><tspan x="635.97" y="48">a, </tspan><tspan x="221.59" y="96">sabor y efe</tspan><tspan class="cls-84" x="419.74" y="96">r</tspan><tspan x="434.15" y="96">vescencia.</tspan></text>
    <g id="rodaja_naranja" data-name="rodaja naranja">
      <ellipse class="cls-33" cx="761.93" cy="1842.26" rx="62.2" ry="72.8"/>
      <ellipse class="cls-32" cx="761.93" cy="1841.3" rx="48.7" ry="60.27"/>
      <g>
        <line class="cls-32" x1="760.67" y1="1843.54" x2="717.99" y2="1816.6"/>
        <line class="cls-32" x1="804.12" y1="1874.64" x2="760.67" y2="1843.54"/>
      </g>
      <g>
        <line class="cls-32" x1="764.27" y1="1840.93" x2="787.17" y2="1791.64"/>
        <line class="cls-32" x1="736.94" y1="1891.67" x2="764.27" y2="1840.93"/>
      </g>
      <g>
        <line class="cls-32" x1="763.08" y1="1839.16" x2="750.38" y2="1784.56"/>
        <line class="cls-32" x1="773.49" y1="1897.74" x2="763.08" y2="1839.16"/>
      </g>
      <g>
        <line class="cls-32" x1="762.73" y1="1845.22" x2="808.58" y2="1830.07"/>
        <line class="cls-32" x1="713.24" y1="1858.41" x2="762.73" y2="1845.22"/>
      </g>
    </g>
    <g id="anis">
      <path class="cls-58" d="M329.32,1562.5c-3.26-1.25-10.91-4.69-16.71-12.86-3.9-5.49-5.38-10.88-6-14.14,3.53-.17,9.51,0,16.29,2.57,8.21,3.12,13.39,8.16,15.86,10.93-1.32-4.17-3.08-11.57-2.14-20.79.96-9.35,4.26-16.32,6.43-20.14,2.51,2.87,7.4,9.27,9.43,18.86,2.29,10.83-.39,19.57-1.71,23.14,2.56-3.49,7.86-9.71,16.71-14.14,6.66-3.33,12.77-4.37,16.71-4.71-.4,3.26-1.7,10.23-6.86,17.14-4.56,6.11-9.95,9.27-12.86,10.71,3.11-.03,8.11.32,13.71,2.57,7.41,2.97,11.98,7.71,14.14,10.29-2.65,1.88-8.16,5.21-15.86,6-11.68,1.2-20.28-4.31-22.71-6,3.14,2.31,12.45,9.8,15.86,23.14,1.94,7.62,1.2,14.15.43,18-3.33-1.89-7.5-4.75-11.57-9-7.29-7.61-10.53-15.78-12-20.57-.54,4.01-1.76,9.66-4.71,15.86-3.63,7.61-8.33,12.8-11.57,15.86-1.45-3.47-3.66-10.06-3-18.43.96-12.21,7.41-20.34,9.86-23.14-2.27,2.13-7.15,6.13-14.57,8.14-8.16,2.21-14.97.82-18,0,1.21-2.75,3.82-7.66,9-12,6.26-5.25,12.83-6.78,15.86-7.29Z"/>
      <path class="cls-37" d="M313.89,1577.07c2.75-1.76,5.93-3.56,9.54-5.25,5.61-2.63,10.85-4.34,15.32-5.46-3.56,2.33-7.77,4.78-12.64,7.07-4.13,1.94-8.03,3.44-11.57,4.61-.35.3-.82.23-.99,0-.18-.24-.08-.74.35-.96Z"/>
      <path class="cls-37" d="M316.26,1543.17c2.87,1.55,5.99,3.45,9.22,5.78,5.03,3.62,9.07,7.37,12.22,10.73-3.77-1.98-7.96-4.47-12.33-7.61-3.7-2.66-6.91-5.34-9.65-7.87-.43-.16-.6-.61-.48-.87.13-.27.61-.43,1.01-.16Z"/>
      <path class="cls-37" d="M374.37,1541.42c-2.19,2.43-4.77,5.01-7.8,7.6-4.71,4.03-9.3,7.07-13.32,9.34,2.81-3.2,6.22-6.68,10.31-10.18,3.46-2.97,6.82-5.45,9.93-7.52.26-.38.73-.44.96-.26.23.19.28.69-.08,1.02Z"/>
      <path class="cls-37" d="M345.43,1524.36c.33,3.25.5,6.9.39,10.88-.18,6.2-1.02,11.64-2.03,16.14-.48-4.23-.76-9.09-.61-14.47.13-4.56.55-8.72,1.1-12.4-.11-.45.16-.84.45-.88.29-.05.7.26.7.75Z"/>
      <path class="cls-37" d="M378.74,1573.98c-3.21-.6-6.76-1.45-10.55-2.67-5.9-1.9-10.89-4.23-14.93-6.46,4.19.72,8.95,1.81,14.07,3.46,4.34,1.4,8.22,2.97,11.6,4.53.46.02.76.39.72.68-.04.3-.44.6-.91.47Z"/>
      <path class="cls-37" d="M362.23,1600.27c-1.99-2.59-4.05-5.61-6.05-9.05-3.1-5.37-5.25-10.44-6.75-14.8,2.63,3.35,5.43,7.34,8.13,11.99,2.29,3.95,4.11,7.71,5.58,11.13.33.32.3.8.08.99-.23.2-.73.15-.99-.26Z"/>
      <path class="cls-37" d="M330.96,1603.06c.69-3.19,1.64-6.72,2.96-10.47,2.07-5.85,4.54-10.77,6.88-14.74-.84,4.17-2.06,8.89-3.85,13.97-1.52,4.3-3.19,8.13-4.85,11.47-.03.46-.41.75-.7.71-.3-.04-.58-.46-.44-.93Z"/>
    </g>
    <g>
      <ellipse class="cls-13" cx="326.1" cy="1876.88" rx="27.43" ry="29.36"/>
      <path class="cls-85" d="M351.16,1744.88c1.49-1.15,3.6-.9,4.71.43.99,1.18,1.01,2.99,0,4.29-7.63,11.33-17.71,29.26-23.57,53.14-4.37,17.78-5.06,33.41-4.67,45.09-2.02-.1-4.03-.2-6.05-.3-1-14.04-.76-37.11,8.57-63.21,6.09-17.05,14.21-30.2,21-39.43Z"/>
    </g>
    <path class="cls-118" d="M512.3,1921.58c.75.33,2.19.82,4.02.7,1.22-.08,2.19-.41,2.84-.7.9-4.1,2.54-9.4,5.68-15.05,1.72-3.11,3.57-5.72,5.3-7.88,4.77-2.23,12.52-6.6,19.77-14.62,7.73-8.56,11.31-17.33,12.96-22.45-5.02,1.87-14.42,6.16-22.61,15.54-5.35,6.12-8.31,12.28-9.96,16.61,2.73-11.32,5.46-22.64,8.2-33.96,6.98-6.11,13.96-12.21,20.95-18.32l12.43-23.57c.58-1.56.05-3.29-1.22-4.18-1.45-1.01-3.57-.72-4.78.75-3.93,2.99-8.49,6.95-13.07,12.05-4.66,5.19-8.15,10.23-10.71,14.52,1.79-8.86,3.57-17.71,5.36-26.57,3.74-4.27,8.78-11.04,12.59-20.41,4.37-10.76,5.23-20.33,5.3-26.36-3.2,2.87-6.93,6.77-10.45,11.89-5.5,8.02-8.2,15.75-9.59,21.16-.85-3.6-1.98-9.21-2.46-16.18-.68-9.7.49-13.31-.75-19.45-.93-4.61-3.31-11.13-10.07-18.38-1.3,7.74-2.29,18.6-.75,31.39,1.7,14.18,5.86,25.42,9.32,32.95-.16,6.38-.55,13.2-1.29,20.41-.84,8.31-2.02,16.05-3.38,23.14-1.18-2.99-2.81-7.64-4.02-13.5-1.22-5.94-1.19-9.16-1.77-13.02-.76-5.07-2.76-12.33-8.41-20.95-1.45,6.37-3,16.91-.91,29.62,1.81,10.98,5.65,19.43,8.62,24.8.23,4.73.19,10.18-.43,16.18-.87,8.45-2.64,15.71-4.5,21.54-.31-1.95-.77-4.91-1.29-8.52-1.42-9.93-1.4-11.84-2.25-14.79-1.02-3.53-3.25-8.38-8.68-13.55-.7,6.24-1.03,14.28,0,23.52,1.03,9.16,3.1,16.86,5.14,22.77-1.71,4.29-3.43,8.57-5.14,12.86Z"/>
    <g>
      <path class="cls-91" d="M729.38,1613.88c-4.03-3.08-12.13-10.15-17.36-22.18-4.82-11.1-4.83-21.02-4.5-26.04,1.61,1.93,3.21,3.86,4.82,5.79-.37-5.13-.35-11.74.96-19.29,1.76-10.11,5.18-18.07,8.04-23.46.11,2.57.21,5.14.32,7.71,2.1-4.85,5.64-11.54,11.57-18.32,6.94-7.93,14.28-12.71,19.29-15.43,3.44,5,8.42,13.62,10.93,25.39,2.09,9.82,1.68,18.21.96,23.79,1.18-1.29,2.36-2.57,3.54-3.86.63,4.34,1.02,10.35,0,17.36-1.3,8.97-4.37,15.88-6.75,20.25,1.82.21,3.64.43,5.46.64-1.93,4.13-6.8,13.08-17.04,19.93-8.06,5.39-15.87,7.1-20.25,7.71Z"/>
      <path class="cls-110" d="M744.38,1528.06c.38-.7,1.13-1.08,1.82-.96.88.15,1.57,1.09,1.39,2.14-3.57,16.89-7.14,33.79-10.71,50.68,1.73-1.62,3.93-3.42,6.64-5.14,2.14-1.36,4.18-2.41,6-3.21-1.68,3.02-3.43,5.15-4.71,6.54-2.47,2.66-4.04,3.45-6,6.21-1.47,2.08-2.18,3.89-2.79,5.46-3.12,8.13-4.72,21.68-4.97,23.84-.63.48-1.44.58-2.1.27-.68-.32-.92-.96-.98-1.11,1.57-6.5,2.52-12.05,3.12-16.24.9-6.27,1.34-9.48,1.02-12.96-.52-5.58-2.07-7.37-4.23-15.22-.96-3.48-1.97-7.91-2.68-13.18,1.85,3.65,3.71,7.69,5.46,12.11,1.52,3.82,2.79,7.48,3.86,10.93,3.29-16.71,6.57-33.43,9.86-50.14Z"/>
    </g>
    <g>
      <path class="cls-31" d="M812.65,1562.44c4.34,3.67,10.75,8.28,19.29,12,10.39,4.52,19.76,5.9,26.04,6.32,8.87-16.93,17.88-36.2,26.25-57.75,7.55-19.44,13.46-37.83,18.11-54.75h3.54l3.7-12.7-1.77-1.29c.51-4.47.87-12.88-2.61-22.49-2.84-7.83-7.07-13.27-9.92-16.4,1.76-2.92,3.78-6.92,5.25-11.95,1.88-6.45,2.13-12.1,1.98-16.02-3.15-2.31-7.24-4.88-12.27-7.12-6.7-2.99-12.82-4.4-17.46-5.09-2.62,3.53-5.92,8.81-8.25,15.8-1.65,4.94-2.37,9.41-2.68,12.96-1.81-.2-8.02-.67-14.04,3.32-7.93,5.26-9.11,14.01-9.27,15.32l-3.21-1.12-5.3,14.95,2.09,1.93c-4.67,21.59-8.95,44.54-12.59,68.79-2.87,19.12-5.12,37.58-6.86,55.29Z"/>
      <line class="cls-35" x1="835.31" y1="1421.5" x2="909.56" y2="1455.57"/>
      <line class="cls-35" x1="830.01" y1="1436.44" x2="905.87" y2="1468.27"/>
      <line class="cls-34" x1="861.83" y1="1403.98" x2="895.26" y2="1415.39"/>
    </g>
    <g>
      <path class="cls-111" d="M748.51,1199.72l21.21-12.03,21.21,8.76c-6.37,4.39-12.74,8.78-19.11,13.17-7.77-3.3-15.54-6.6-23.31-9.9Z"/>
      <polyline class="cls-112" points="772.23 1236.51 748.51 1225.85 748.51 1199.72 771.82 1209.61 772.23 1236.51"/>
      <polygon class="cls-40" points="771.82 1209.61 790.92 1196.44 790.92 1223.44 772.23 1236.51 771.82 1209.61"/>
    </g>
    <g>
      <path class="cls-44" d="M739.8,1261.81c2.64-7.68,5.27-15.36,7.91-23.04,3.59,7.68,7.19,15.36,10.78,23.04-3.23,7.19-6.47,14.38-9.7,21.58-3-7.19-5.99-14.38-8.99-21.58Z"/>
      <polygon class="cls-42" points="769.63 1238.78 780.95 1262.84 758.49 1261.81 747.7 1238.78 769.63 1238.78"/>
      <path class="cls-133" d="M758.49,1261.81c7.49.34,14.98.69,22.46,1.03-3.41,6.85-6.83,13.7-10.24,20.54h-21.93c3.23-7.19,6.47-14.38,9.7-21.58Z"/>
    </g>
    <g>
      <polygon class="cls-61" points="789.74 1218.07 811.67 1218.07 822.81 1242.83 800.89 1241.97 789.74 1218.07"/>
      <polygon class="cls-75" points="791.72 1263.11 780.76 1241.79 789.74 1218.07 800.89 1241.97 791.72 1263.11"/>
      <polygon class="cls-57" points="813.11 1263.11 822.81 1242.83 800.89 1241.97 791.72 1263.11 813.11 1263.11"/>
    </g>
    <g>
      <g>
        <rect class="cls-71" x="160.88" y="544.51" width="29.09" height="28.34"/>
        <path class="cls-90" d="M161.06,572.84h29.09c-.42,5.55-.72,13.58,0,23.24.74,10.01,1.12,15.01,3.26,19.92,4.95,11.36,12.53,12.23,18.81,23.24,2.55,4.47,5.43,11.56,5.27,21.92v155.4c.09.33.67,2.51-.92,4.5-1.27,1.58-3.1,2.03-3.59,2.14-11.17.59-22.98.95-35.36.96-12.94.01-25.25-.34-36.87-.96-.49-.08-2.48-.47-3.93-2.14-1.42-1.63-1.37-3.39-1.34-3.84v-158.72c-.55-4.43-.69-11.44,3.01-18.6,6.47-12.53,18.39-13.24,22.57-25.24,1.25-3.59.39-4.12,0-19.92-.23-9.25-.13-16.84,0-21.92Z"/>
      </g>
      <rect class="cls-88" x="144.83" y="687.73" width="63.95" height="101.61"/>
      <text class="cls-74" transform="translate(149.81 740.82) scale(.54 1)"><tspan x="0" y="0">London Gin</tspan></text>
    </g>
    <g>
      <path class="cls-73" d="M901.68,601.4h28.61c.17,7.01.24,17.21-.32,29.57-.62,13.67-1.46,18.01.32,24.43,3.46,12.45,12.38,16.87,18.98,24.3,8.16,9.18,8.62,18.29,8.66,73.31.02,29.11-.08,55.65,0,74.68.09,19.83.4,35.98.64,46.29-.15,1.86-.66,5.09-2.57,8.57-2.1,3.83-4.87,6.09-6.43,7.19-21.86.28-43.71.56-65.57.84-1.6-.68-4.78-2.29-7.5-5.68-2.91-3.63-3.74-7.35-4.01-9.08.45-11.48,1.02-28.85,1.23-50.07.44-44.14,0-72.75,0-72.75-.78-50.71-2.61-61.17,6.75-72.54,7.09-8.61,15.69-11.77,19.61-24.43,1.95-6.3,1.39-10.57,1.29-27.32-.07-11.61.14-21.08.32-27.32Z"/>
      <rect class="cls-121" x="884.67" y="784.2" width="61.71" height="73.53"/>
      <ellipse class="cls-72" cx="915.53" cy="723.81" rx="25.39" ry="27.32"/>
      <rect class="cls-135" x="898.82" y="580.35" width="33.43" height="21.05" rx="1.98" ry="1.98"/>
    </g>
    <g>
      <path class="cls-86" d="M233.83,1042.07h20.94c.12,5.26.17,12.91-.24,22.19-.45,10.26-1.07,13.51.24,18.33,2.53,9.34,9.06,12.66,13.89,18.23,5.97,6.89,6.31,13.72,6.34,55.01.02,21.84-.06,41.76,0,56.04.06,14.88.29,27,.47,34.73-.11,1.39-.48,3.82-1.88,6.43-1.54,2.87-3.56,4.57-4.7,5.4-16,.21-31.99.42-47.99.63-1.17-.51-3.5-1.72-5.49-4.26-2.13-2.72-2.74-5.52-2.94-6.81.33-8.61.74-21.65.9-37.57.32-33.12,0-54.59,0-54.59-.57-38.05-1.91-45.9,4.94-54.43,5.19-6.46,11.48-8.84,14.35-18.33,1.43-4.73,1.01-7.93.94-20.5-.05-8.71.1-15.82.24-20.5Z"/>
      <rect class="cls-54" x="218.57" y="1150.57" width="50.79" height="64.82"/>
      <rect class="cls-21" x="230.46" y="1036.79" width="27" height="6.92" rx="1.98" ry="1.98"/>
    </g>
    <g>
      <g>
        <path class="cls-94" d="M983.31,227.15c-2.76.21-5.95.27-9.48,0-2.72-.21-5.19-.58-7.39-1.03.35-3.91,1.29-9.49,3.86-15.71,2.5-6.06,5.67-10.56,8.12-13.54,1.73,2.67,4.08,7.02,5.3,12.84,1.62,7.68.46,14.05-.41,17.44Z"/>
        <path class="cls-69" d="M979.62,198.07c1.27,3.08,2.57,7.03,3.38,11.72,1.19,6.9.88,12.83.32,17.04,1.42-.27,13.34-2.78,19.38-14.81,6.12-12.19,1-23.8.39-25.11-6.18-5.81-10.84-6.69-13.98-6.37-2.93.3-4.47,1.62-9.48,2.87-2.14.53-4.06.48-7.9,1.23-1.75.34-3.19.68-4.16.91.99.3,2.38.78,3.94,1.57,1.29.65,3.2,1.6,4.71,3.12,2.55,2.55,3.22,5.91,3.41,7.83Z"/>
        <g>
          <path class="cls-27" d="M989.26,270.41c5.51-17.79,8.83-26.55,9.96-26.28,1.1.27.13,9.03-2.89,26.28,27.01,35.17,54.03,70.34,81.04,105.52,1.11,6.45,1.76,15.29-.15,25.41-.68,3.59-1.59,6.84-2.58,9.73-8.18,4.75-16.37,9.5-24.55,14.25-8.46-17.87-14.89-32.55-19.16-42.55-10.41-24.38-10.94-27.91-18-41.86-9.21-18.21-12.98-20.83-17.14-33.1-5.12-15.09-6.32-28.45-6.54-37.4Z"/>
          <path class="cls-119" d="M962.82,185.19c2.98-13.69,14.74-23.82,28.69-24.71,13.84-.89,26.71,7.52,31.5,20.57,4.79,6.46,10.63,15.9,14.79,28.29,2.48,7.41,3.8,14.21,4.5,19.93,8.57,10.19,21.23,27.79,29.57,52.71,8.59,25.67,8.87,47.96,8.03,61.39-2.92-3.36-6.28-7.86-9.28-13.57-4.21-8.02-6.15-15.44-7.1-20.82-1.5,6.21-3,12.43-4.5,18.64-.55.11-4.58.86-8.04-1.93-3.88-3.13-3.57-7.94-3.54-8.36-2.05-4.02-4.23-9.2-5.79-15.43-2.4-9.58-2.41-17.93-1.93-23.79-.65,4.36-1.49,8.98-2.57,13.82-.99,4.44-2.08,8.62-3.21,12.54-.45.13-2.23.59-4.18-.32-1.89-.88-2.69-2.46-2.89-2.89-3.96-7.42-9.09-19.16-11.25-34.39-1.81-12.75-.91-23.58.32-31.18.24-2.24-1.1-4.38-3.21-5.14-2.13-.77-4.54.03-5.79,1.93-3.95,5.41-9.98,15.09-13.18,28.61-3.24,13.69-2.11,25.19-.96,31.82,15.43,33.86,30.86,67.71,46.29,101.57,2.68,2.48,6.37,6.59,8.68,12.54,1.9,4.89,2.06,8.96,2.25,15.43.43,14.37.65,21.56.59,23.14-.15,3.75-.18,7.83,3.59,57.21,1.2,15.68,2.59,33.46,4.18,53.04-.37,1.24-.8,2.53-1.29,3.86-1,2.73-2.1,5.19-3.21,7.39.64-7.75-1.16-12.69-2.89-15.75-2.23-3.93-4.73-5.45-6.43-9.96-1.65-4.39-1.4-8.53-.96-11.25-2.82-3.37-6.81-8.86-9.64-16.39-4.49-11.93-2.55-19.64-4.45-38.2-1.25-12.15-2.39-11.85-4.03-24.27-1.34-10.08-2.54-25-1.16-43.92.82-3.16,1.58-7.75.96-13.18-1.31-11.55-7.95-19.13-10.61-21.86-8.7-7.52-30.41-28.33-39.86-63.32-10.6-39.25.98-71.41,5.14-81.64,1.97-.18,13.69-1.42,20.63-11.33,5.3-7.56,8.65-21.38.54-28.85-5.62-5.17-15.11-5.79-23.53-1.61-4.92-.12-9.84-.24-14.76-.36Z"/>
          <path class="cls-62" d="M965.64,234.57c1.29.83,2.81.79,3.7,0,.83-.74.81-1.87.8-1.93-.05-1.35-1.25-2.14-1.93-2.89-1.6-1.77-1.26-4.41-.8-8.04.67-5.29,2.54-9.41,3.7-11.65,1.44-2.79,4.03-6.99,8.52-11.17-.08-1.21-.51-5.88-4.34-9.64-5-4.92-11.62-4.17-12.46-4.06-3.52,5.98-4.56,11.07-4.9,14.34-.11,1.02.18,5.57.8,14.62.38,5.55.59,8.37,1.29,10.61,1.41,4.52,3.83,7.78,5.62,9.8Z"/>
          <path class="cls-81" d="M1079.89,343.37c.71,7.66.73,17.52-1.6,28.61-.89,4.23-2.01,8.1-3.21,11.57-1.81,1.11-4.42,2.27-7.07,1.61-4.52-1.13-6.33-6.84-9-13.18-2.26-5.37-5.77-12.7-11.25-21.21-2.06.46-5.96.98-9.06-1.15-2.77-1.9-3.54-4.99-4.77-10.74-1.09-5.14-2.33-11.41-3.54-18.64-.91.62-8.93,5.93-13.82,2.89-2.49-1.55-3.3-5.39-4.83-13.01-.89-4.45-1.35-8.19-1.59-10.78-2.9,2.26-6.56,4.31-9.64,3.21-6.84-2.42-6.38-19.09-6.11-29.57.22-8.42,1.67-14.26,4.58-25.96,1.05-4.24,2.79-10.58,7.96-14.54,1.1-.84,3.61-2.72,5.79-1.93,2.12.77,3.45,2.9,3.21,5.14-1.14,10.83-.37,22.06.96,34.71.86,8.14,3.26,14.96,4.61,18.71,1.81,5.05,3.78,9.16,5.36,12.14,1.08.93,3.78,3.04,6,2.21,2.02-.76,2.59-3.57,3.32-7.42,1.97-10.39,2.99-16.95,3.38-16.94.54.01-1.01,12.47,3.13,26.49,1.49,5.05,3.34,9.04,4.74,11.72-.03.41-.34,5.22,3.54,8.36,3.45,2.79,7.49,2.04,8.04,1.93,1.5-6.21,3-12.43,4.5-18.64.95,5.39,2.89,12.81,7.1,20.82,3,5.71,6.36,10.21,9.28,13.57Z"/>
        </g>
      </g>
      <circle class="cls-103" cx="991.83" cy="192.91" r="3.38"/>
      <g>
        <path class="cls-134" d="M1029.81,389.93l-7.82-8.04c-2.33,1.39-6.22,4.16-9.32,9-4.91,7.65-4.58,15.43-4.34,18.11.95.52,3.37,1.65,6.48,1.29,1.76-.2,3.11-.81,3.96-1.29.8-2.5,1.56-5.37,2.14-8.57.68-3.72.98-7.12,1.07-10.07,2.61-.14,5.21-.29,7.82-.43Z"/>
        <path class="cls-134" d="M1021.46,378.04c-1.72-2.06-3.43-4.12-5.15-6.18-1.54.67-3.76,1.71-6.32,3.18-4.04,2.31-7,4-9.54,6.86-1.48,1.67-4.15,5.22-5.25,11.25.8,1.74,2.1,4.06,4.18,6.43,1.86,2.12,3.75,3.61,5.25,4.61.92-1.34,2.08-3.4,2.79-6.11,1.09-4.16.54-7.68.11-9.54,1.8-2.02,4.22-4.38,7.39-6.64,2.34-1.67,4.57-2.92,6.54-3.86Z"/>
      </g>
    </g>
  </g>
</svg>