<?xml version="1.0" encoding="UTF-8"?>
<svg xmlns="http://www.w3.org/2000/svg" viewBox="0 0 1920 1080">
  <defs>
    <style>
      .cls-1, .cls-2 {
        fill: #fff;
      }

      .cls-3 {
        stroke: #000;
        stroke-width: 15px;
      }

      .cls-3, .cls-2 {
        stroke-miterlimit: 10;
      }

      .cls-2 {
        font-family: Roboto-Light, Roboto;
        font-size: 269.92px;
        font-weight: 300;
        letter-spacing: .07em;
        stroke: #fff;
      }
    </style>
  </defs>
  <g id="Capa_3" data-name="Capa 3">
    <rect class="cls-3" x="-.5" y="-.5" width="1920" height="1092"/>
  </g>
  <g id="Capa_1" data-name="Capa 1">
    <path class="cls-1" d="M1150.49,534.96c-2.32-19.39-7.42-38.32-15.14-56.28-4.55-10.57-9.97-20.73-16.21-30.41,1.64-11.29,2.5-22.91,2.5-34.78,0-83.25-42.38-154.48-101.83-182.34-1.08-2.73-2.28-5.5-3.61-8.28-10.81-22.61-28.53-42.69-51.25-58.02l-2.73-1.85-2.67,1.97c-20.99,15.53-37.08,34.38-47.8,56.03-1.86,3.74-3.47,7.41-4.87,11-58.51,28.45-100.04,99.08-100.04,181.49,0,7.61.35,15.11,1.04,22.49-25.6,36.78-32.67,75.67-34.52,97.72l-.49,5.88,4.7,1.27c11.13,3.02,25.58,5.64,42.24,5.64,8.67,0,17.94-.71,27.66-2.44,28.83,39.48,70.49,64.33,116.76,64.33s87.65-24.67,116.47-63.92c9.48,1.44,18.54,2.02,27.01,2.02,14.85,0,27.92-1.8,38.35-4.03l5.19-1.11-.77-6.4ZM1109.94,413.49c0,6.91-.32,13.75-.94,20.46-3.19-4.14-6.55-8.16-10.06-12.08-12.18-15.37-33.58-36.4-66.61-49.64-2.09-.84-4.18-1.63-6.25-2.36l42.15-58.88-40.55-.17c.21-2.92.35-5.61.48-8.04.83-15.32,1.8-33.24-2.65-53.06,49.82,28.72,84.43,91.32,84.43,163.75ZM955,529.3l-1-55.5,1-14.4-1-7.6v-13.3l-12.03-18.16-7.06-10.66-21.02-31.74-6.31-9.53c-.3-.76-.59-1.55-.91-2.36-.18.03-.37.08-.56.13l-28.26-43.19,18.82,1,10.89-1,107.83,1,10.95,1h18.06l-28.75,39.33-1.35,1.89-8.23,11.49-22.46,31.36-11.41,15.94-10.21,14.13,1,10.7-2,11.59,1,9.6v58.62l38.23,14.34h-79.07l33.84-14.7ZM962.46,178.55c18.19,12.86,32.65,28.9,42.15,46.77.78,1.48,1.54,2.97,2.26,4.48,2.19,4.58,3.97,9.07,5.41,13.48,7.1,21.65,6.03,41.23,5.08,58.85-.14,2.72-.31,5.68-.55,8.87l-110.22-.44c-.24-6.48-.18-13.76.4-21.7,1.04-14.18,2.1-28.73,7.41-44.79,1.7-5.15,3.85-10.47,6.57-15.98.36-.73.73-1.45,1.11-2.18,9.33-17.99,22.89-33.91,40.37-47.36ZM901.03,250.57c-3.09,13.18-3.97,25.32-4.79,36.59-.6,8.29-.68,15.96-.45,22.84l-40.71-.17,39.26,59.3c-26.08,9.51-49.85,25.03-68.86,44.99-2.36,2.48-4.61,4.99-6.76,7.52-.11-2.8-.16-5.62-.16-8.45,0-71.49,33.72-133.4,82.48-162.62ZM839.09,531.96c-21.5,2.83-40.37.54-54.62-2.83,2.21-18.94,8.43-47.3,25.49-75.45,2.94-4.84,6.2-9.68,9.82-14.46,3.76-4.98,7.9-9.9,12.47-14.7,18.35-19.28,41.5-34.16,66.91-43.06.81-.22,1.62-.45,2.44-.66l41.4,62.51.34,25.83c-11.55,15.85-36.45,43.34-77.26,56.67-4.61,1.5-9.15,2.75-13.6,3.75-4.57,1.04-9.04,1.82-13.4,2.4ZM869.27,538.64c35.9-11.73,60.33-33.84,74.73-50.76l.43,32.35-71.55,33.62c-4.03-4.03-7.86-8.32-11.52-12.85,2.61-.7,5.25-1.48,7.91-2.36ZM964.24,593.89c-32.13,0-61.87-12.96-85.98-34.89l174.46-2.3c-24.55,23.32-55.23,37.19-88.48,37.19ZM1057.47,551.89l-85.47-32.03.31-35.25c1.84,2.11,3.74,4.18,5.68,6.19,19.13,20.39,43.24,36.11,69.7,45.46,6.37,2.26,12.63,4.07,18.77,5.5-2.88,3.53-5.88,6.91-8.99,10.13ZM1089.32,532.22c-4.45-.49-9.01-1.16-13.66-2.06-7.91-1.53-16.09-3.69-24.45-6.65-31.55-11.15-53.09-29.39-65.66-42.8-4.49-4.66-8.69-9.57-12.55-14.7l.19-21.82,45.27-63.22c3.58,1.12,7.2,2.41,10.85,3.87,31.04,12.43,51.02,32.1,62.33,46.41l.25.31c5.51,6.13,10.6,12.53,15.26,19.21,3.28,4.7,6.35,9.54,9.19,14.5,3.63,6.34,6.9,12.88,9.79,19.6,6.29,14.62,10.68,29.91,13.11,45.56-13.46,2.43-30.62,3.89-49.92,1.78Z"/>
    <text class="cls-2" transform="translate(493.26 824.91) scale(.77 1)"><tspan x="0" y="0">SOULMIA</tspan></text>
  </g>
</svg>