<?xml version="1.0" encoding="UTF-8"?>
<svg id="Capa_1" data-name="Capa 1" xmlns="http://www.w3.org/2000/svg" viewBox="0 0 1080 1920">
  <defs>
    <style>
      .cls-1, .cls-2, .cls-3, .cls-4, .cls-5, .cls-6, .cls-7, .cls-8, .cls-9, .cls-10, .cls-11, .cls-12, .cls-13 {
        stroke: #000;
        stroke-miterlimit: 10;
      }

      .cls-1, .cls-14 {
        fill: #e0a9a9;
      }

      .cls-1, .cls-6, .cls-12 {
        stroke-width: 2px;
      }

      .cls-2 {
        fill: #e5d900;
      }

      .cls-2, .cls-3, .cls-11 {
        stroke-width: 3px;
      }

      .cls-3, .cls-15, .cls-12 {
        fill: #1c1818;
      }

      .cls-4 {
        fill: #c1ff00;
      }

      .cls-4, .cls-5 {
        stroke-width: 6px;
      }

      .cls-5 {
        fill: #ff0d0d;
      }

      .cls-6, .cls-8, .cls-9, .cls-10, .cls-11, .cls-13 {
        fill: none;
      }

      .cls-16 {
        fill: #3a1919;
      }

      .cls-7 {
        stroke-width: .5px;
      }

      .cls-8 {
        stroke-width: 19px;
      }

      .cls-9 {
        stroke-width: 20px;
      }

      .cls-17 {
        fill: #eae6b5;
      }

      .cls-10 {
        stroke-width: 10px;
      }

      .cls-13 {
        stroke-width: 7px;
      }
    </style>
  </defs>
  <path class="cls-3" d="M467.27,357.3c10.2-40.43,26.94-95.34,53.97-150.95,29.4-60.48,59.82-98.84,81.66-122,8.18-15.64,17.96-17.17,21.28-10.67,2.58,5.04,1.89,16.12-1.03,26.47-18,107.39-35.99,214.79-53.99,322.18-8.14-14.29-23.28-37.18-45.68-52.03-23.97-15.89-44.84-15.01-56.22-13.01Z"/>
  <g>
    <path class="cls-15" d="M983.25,1747.91c2.12-2.21,20.26-21.99,24.59-67.73,3.3-34.8-2.66-71.31-15.37-94.83,8.52-33.04,25.96-111.16,24.59-216.74-1.19-92.09-16.12-160.23-24.59-193.04-10.78-39.15-32.56-105.23-70.71-152.4-79.27-98.03-162.08-31.42-175.23-20.32-10.56-66.81-25.35-94.98-36.89-108.37-16.01-18.57-28.94-14.5-52.26-40.64-14.12-15.82-24.35-34.35-30.74-47.41-3.58,28.73-8.51,60.81-15.37,94.83-3.97,19.68-8.13,37.74-12.3,54.19-18.95,33.09-33.46,61.69-43.04,81.28-18.76,38.39-24.9,55.17-39.96,74.51-3.42,4.39-18.33,23.19-39.96,33.87-5.61,2.77-31.02,14.47-67.63,0-28.8-11.38-48.22-32.53-79.93-67.73-17.6-19.54-41.1-48.1-67.63-88.05-9.36-20.78-20.59-49.81-30.74-88.05-7.66-28.88-12.86-56.05-16.44-78.99-16.54,66.12-33.16,142.17-48.12,228-28.34,162.61-42.29,311.91-49.19,433.49-1.06,9.47-3.67,38.33,3.07,67.73,9.13,39.77,31.98,49.26,43.04,54.19,62.98,28.02,238.88-40.93,255.15-47.41,3.53,7.4,15.37,30.29,33.82,33.87,14.83,2.88,26.11-8.25,30.74-13.55,10.91,18.31,20.15,20.3,24.59,20.32,7.56.04,14.36-6.75,27.67-20.32,8.49-8.66,15.31-16.84,19.98-22.74,8.71-5.97,17.42-11.93,26.13-17.9l301.27-33.87,15.37,47.41-44.3,197.1c43.46-.23,86.92-.45,130.38-.68Z"/>
    <path d="M982.79,1746.85c-.06-.03-.12-.02-.15,0l.18-.22.41-.5.79-1.02c.52-.69,1.02-1.4,1.52-2.11.99-1.43,1.91-2.91,2.81-4.4,1.78-3,3.38-6.1,4.85-9.27,2.89-6.35,5.25-12.96,7.12-19.7.94-3.37,1.76-6.78,2.49-10.2.69-3.44,1.35-6.88,1.85-10.36,1.06-6.94,1.73-13.95,2.03-20.98.63-14.06-.11-28.21-2.3-42.15-2.23-13.91-5.82-27.73-12.05-40.5h0s-.03-.05-.03-.05v-.06c1.8-7.97,3.39-15.98,4.83-24.01,1.39-8.04,2.65-16.1,3.73-24.18,2.17-16.16,3.75-32.37,5.26-48.54,1.46-16.19,2.81-32.36,4-48.55.49-8.1,1.02-16.2,1.32-24.32.42-8.11.55-16.23.78-24.34.15-4.06.09-8.12.13-12.18.01-4.06.1-8.12.06-12.18-.11-8.12-.14-16.25-.43-24.37-.47-16.24-1.28-32.48-2.61-48.69-1.32-16.21-3.05-32.39-5.29-48.51-2.24-16.12-5.01-32.17-8.29-48.13-1.7-7.96-3.45-15.93-5.48-23.79-2.11-7.86-4.33-15.71-6.75-23.49-4.81-15.57-10.28-30.94-16.53-45.99-6.26-15.04-13.41-29.72-21.69-43.74-8.26-14.01-17.62-27.37-28.29-39.53-5.34-6.07-10.99-11.85-17.04-17.14l-2.27-1.98-2.33-1.91c-1.53-1.3-3.15-2.48-4.72-3.72-3.23-2.36-6.48-4.7-9.9-6.77-3.39-2.1-6.86-4.07-10.45-5.8-3.58-1.74-7.22-3.34-10.97-4.65-7.47-2.68-15.24-4.51-23.14-5.4-15.79-1.81-32.11.17-47.45,5.43-15.36,5.21-29.74,13.54-42.21,24.05l-.1.08-.02-.13c-.86-4.9-1.81-9.79-3.15-14.61-.67-2.4-1.37-4.8-2.11-7.18-.74-2.38-1.61-4.74-2.41-7.1-3.36-9.42-6.7-18.72-9.56-28.08-1.42-4.68-2.93-9.33-4.6-13.9-.39-1.16-.81-2.29-1.27-3.42l-1.32-3.39c-.42-1.14-.94-2.23-1.41-3.34-.48-1.11-.93-2.24-1.43-3.33-2.01-4.38-4.2-8.65-6.64-12.73-2.48-4.06-5.19-7.88-8.37-11.33-3.13-3.47-6.66-6.46-10.6-9.14-3.93-2.68-8.3-5.09-12.6-7.84-4.3-2.74-8.47-5.8-12.29-9.19-3.84-3.38-7.38-7.04-10.71-10.84-6.63-7.63-12.42-15.88-17.66-24.4-5.23-8.54-9.91-17.38-14.18-26.39l1.03-.17c-1.67,12.53-3.49,25.04-5.45,37.53-1.96,12.49-4.06,24.95-6.32,37.39-4.5,24.88-9.77,49.62-15.9,74.16l-.02.07-.04.07c-10.62,18.69-20.8,37.62-30.55,56.77-4.87,9.58-9.64,19.21-14.29,28.89-4.67,9.68-9.2,19.42-13.81,29.14-4.62,9.71-9.35,19.42-15.09,28.61-5.73,9.17-12.4,17.8-20.06,25.47-7.65,7.67-16.19,14.53-25.73,19.82-4.73,2.69-9.87,4.81-15.13,6.25-5.27,1.47-10.69,2.34-16.14,2.68-10.91.67-21.9-.81-32.32-3.97-10.43-3.13-20.39-7.82-29.51-13.77-9.14-5.93-17.4-13.05-25.21-20.51-7.8-7.49-15.18-15.35-22.48-23.27-7.26-7.94-14.55-15.85-21.62-24.01-7.07-8.14-13.92-16.47-20.61-24.92-13.36-16.92-25.97-34.43-37.95-52.34l-.1-.15-.08-.17c-6.02-13.28-11.43-26.82-16.3-40.55-4.89-13.72-9.24-27.63-13.15-41.66-7.81-28.06-13.82-56.59-18.4-85.33l5.36.24c-5.33,21.7-10.5,43.45-15.42,65.25-4.9,21.8-9.58,43.66-14.03,65.56-8.94,43.79-17,87.77-24.18,131.89-7.21,44.11-13.64,88.36-19.25,132.7-1.46,11.08-2.74,22.18-4.11,33.27l-3.81,33.31c-2.4,22.22-4.69,44.46-6.74,66.72-2.11,22.25-3.98,44.53-5.69,66.82-1.76,22.3-3.12,44.56-4.65,67-1.18,11.04-1.57,22.13-1.12,33.2.23,5.53.68,11.05,1.34,16.54.69,5.49,1.65,10.93,2.85,16.32,1.23,5.36,2.84,10.62,4.88,15.7,2.08,5.06,4.61,9.92,7.72,14.39,3.12,4.45,6.78,8.51,10.97,11.95,4.18,3.46,8.87,6.28,13.84,8.62,1.24.59,2.5,1.16,3.78,1.73,1.27.55,2.5,1.07,3.78,1.56,2.56.92,5.16,1.76,7.83,2.37,5.32,1.29,10.8,2.07,16.31,2.51,11.03.86,22.18.45,33.25-.53,11.09-.98,22.13-2.61,33.1-4.58,10.98-1.99,21.9-4.33,32.75-6.95,21.71-5.23,43.19-11.46,64.47-18.29,21.27-6.85,42.37-14.28,63.18-22.43l.66-.26.3.64c3.01,6.33,6.59,12.42,10.91,17.91,4.33,5.46,9.49,10.42,15.74,13.44,1.57.73,3.18,1.35,4.84,1.81,1.67.43,3.37.73,5.09.83,3.44.21,6.91-.35,10.16-1.52,6.53-2.38,12.1-6.95,16.71-12.18l.49-.56.38.64c2.11,3.5,4.39,6.89,7.03,9.99,1.3,1.57,2.74,3,4.23,4.37,1.54,1.31,3.16,2.54,4.92,3.52,1.75.98,3.65,1.7,5.62,2.03,1.96.36,3.99.28,5.89-.29,1.91-.56,3.7-1.52,5.39-2.64,1.69-1.12,3.28-2.41,4.82-3.74,3.08-2.68,6-5.57,8.91-8.47,2.89-2.92,5.8-5.82,8.61-8.81,5.64-5.97,10.99-12.2,16.09-18.63l.03-.04.04-.03,26.14-17.89.07-.05h.08s150.63-16.97,150.63-16.97l150.61-17.11h0s.44-.05.44-.05l.14.42,15.21,47.46.03.1-.02.1-22.2,98.54-21.94,98.6-.53-.66c10.85-.13,21.68-.5,32.46-.95,10.78-.45,21.52-.8,32.31-.88,10.79-.07,21.58-.11,32.43,0,10.84.09,21.72.25,32.73.63ZM983.71,1748.98c-10.72.49-21.57.77-32.46.97-10.88.21-21.82.29-32.76.33-10.94.03-21.93-.21-32.88-.54-10.95-.34-21.85-.6-32.73-.61h-.68s.15-.66.15-.66l22.36-98.5,22.1-98.56v.2s-15.52-47.36-15.52-47.36l.58.37h0s-150.65,16.76-150.65,16.76l-150.63,16.9.15-.06-26.12,17.92.08-.07c-5.1,6.45-10.47,12.7-16.08,18.72-2.81,3.01-5.7,5.93-8.58,8.86-2.9,2.92-5.81,5.83-8.91,8.56-1.56,1.36-3.17,2.67-4.9,3.83-1.73,1.16-3.59,2.18-5.63,2.78-2.03.62-4.23.72-6.31.35-2.09-.34-4.1-1.1-5.93-2.11-1.84-1.01-3.52-2.27-5.11-3.62-1.54-1.4-3.02-2.87-4.35-4.46-2.7-3.15-5.04-6.58-7.18-10.11l.87.08c-4.66,5.34-10.33,10.07-17.12,12.59-3.38,1.24-7.02,1.85-10.64,1.64-1.81-.09-3.6-.4-5.35-.84-1.75-.47-3.44-1.11-5.07-1.87-6.54-3.12-11.85-8.2-16.29-13.74-4.44-5.58-8.09-11.74-11.18-18.14l.96.38c-20.81,8.27-41.89,15.81-63.15,22.84-21.27,6.99-42.75,13.38-64.49,18.78-21.75,5.35-43.76,9.9-66.14,12.11-11.18,1.08-22.47,1.59-33.76.81-5.64-.4-11.28-1.15-16.84-2.45-2.78-.62-5.52-1.47-8.23-2.42-1.34-.5-2.69-1.06-3.99-1.61-1.28-.56-2.57-1.13-3.86-1.73-5.16-2.38-10.17-5.32-14.63-8.96-4.48-3.62-8.42-7.91-11.75-12.59-3.32-4.7-6.02-9.79-8.24-15.05-2.18-5.28-3.88-10.74-5.21-16.26-1.27-5.52-2.3-11.09-3.05-16.7-.72-5.61-1.21-11.24-1.49-16.88-.54-11.28-.21-22.61.91-33.82,1.36-22.2,2.57-44.61,4.18-66.92,1.57-22.33,3.28-44.65,5.24-66.95,3.88-44.6,8.59-89.13,14.12-133.56,5.58-44.42,11.91-88.76,19.14-132.95,14.48-88.37,32.43-176.2,54.36-263.03l3.31-13.11,2.05,13.35c4.38,28.58,10.19,56.96,17.79,84.86,3.8,13.95,8.03,27.77,12.8,41.41,4.76,13.64,10.04,27.1,15.92,40.28l-.18-.32c11.83,17.89,24.25,35.39,37.41,52.32,6.59,8.46,13.34,16.79,20.31,24.93,6.95,8.14,14.18,16.1,21.37,24.08,7.22,7.95,14.5,15.82,22.16,23.28,7.67,7.44,15.73,14.47,24.59,20.33,8.84,5.87,18.5,10.5,28.64,13.63,10.12,3.16,20.77,4.66,31.33,4.09,10.55-.61,21.04-3.24,30.26-8.45,9.31-5.09,17.74-11.77,25.31-19.27,7.58-7.5,14.19-15.96,19.91-24.98,5.72-9.03,10.48-18.65,15.15-28.32,4.66-9.68,9.26-19.4,13.99-29.06,4.71-9.67,9.55-19.28,14.48-28.84,9.87-19.11,20.18-38,30.92-56.64l-.06.14c6.27-24.47,11.69-49.17,16.37-74,2.31-12.42,4.42-24.88,6.3-37.38,1.88-12.49,3.52-25.02,4.99-37.57l.21-1.78.82,1.61c4.5,8.86,9.44,17.5,15.04,25.68,5.57,8.19,11.79,15.93,18.73,22.89,3.48,3.46,7.1,6.75,10.98,9.67,3.85,2.95,7.94,5.51,12.22,7.83,4.26,2.34,8.79,4.44,13.28,7.07,4.51,2.6,8.82,5.86,12.58,9.58,3.76,3.71,7.09,7.86,9.95,12.21,2.87,4.35,5.36,8.88,7.62,13.5,4.47,9.26,7.88,18.86,10.8,28.55.68,2.43,1.37,4.87,1.91,7.34.53,2.47,1.01,4.95,1.44,7.44.76,4.99,1.34,10.02,1.73,15.05.46,5.02.77,10.04,1.29,15.02.53,4.97,1.07,9.93,1.91,14.84l-.12-.04c6.24-5.27,12.88-10.06,19.82-14.39,6.94-4.33,14.2-8.18,21.79-11.37,7.58-3.2,15.51-5.69,23.68-7.25,8.17-1.55,16.58-2.08,24.94-1.46,4.18.3,8.34.9,12.45,1.76,4.1.9,8.15,2.04,12.1,3.45,3.96,1.39,7.82,3.04,11.56,4.9,3.76,1.84,7.39,3.92,10.91,6.17,7.04,4.48,13.58,9.67,19.64,15.34,6.06,5.65,11.7,11.73,16.88,18.14,10.41,12.8,19.29,26.68,27.24,41.01,7.92,14.35,14.94,29.15,21.31,44.22,6.38,15.06,12.07,30.42,17.18,45.96,2.56,7.77,4.99,15.58,7.28,23.44,2.24,7.9,4.24,15.83,6.15,23.79,15.15,63.7,22.76,129.33,22.44,194.99l-.15,12.31c-.02,4.1-.25,8.2-.37,12.31l-.22,6.15-.11,3.08-.18,3.07-.72,12.29c-1.11,16.38-2.72,32.74-5.28,48.96-2.56,16.22-5.92,32.31-9.7,48.25-3.76,15.95-7.97,31.78-12.5,47.47v-.11s-.01,0-.01,0c3.61,6.14,6.48,12.72,8.81,19.48,2.35,6.75,4.12,13.7,5.55,20.71,2.75,14.05,3.92,28.4,3.57,42.74-.4,14.32-2.13,28.7-6.17,42.56-2.02,6.92-4.6,13.7-7.88,20.14-1.63,3.22-3.46,6.35-5.49,9.35-1,1.51-2.09,2.96-3.22,4.38-.57.71-1.15,1.41-1.77,2.08l-.93,1.01-.48.49-.27.27c-.18.18-.4.35-.61.48Z"/>
  </g>
  <g>
    <path class="cls-15" d="M890.02,992.23c.48-8.99.6-22.58-2.07-36.78-4.22-22.48-13-33.6-18.44-40.64-13.92-17.99-29.66-39.83-49.19-67.73-10.8-6.85-38.68-27.97-61.48-88.05-20.48-53.97-25.95-110.63-27.67-135.47-.4-31.05.66-79.73,9.22-135.47,8.75-56.96,21.71-97.7,30.74-121.92,6.81-13.15,26.02-46.72,55.33-54.19,26.58-6.77,47.01,11.59,55.33,20.32,5.84,6.56,9.45,19.83,9.22,33.87-.25,15.63-5.22,29.44-12.3,33.87-7.53-4.96-20.69-11.28-36.89-6.77-19.41,5.39-33.22,23.55-39.96,33.87-5.83,12.73-15.53,37.31-21.52,74.51-7.76,48.22-4.85,90.14-3.07,108.37,10.18,42.64,22,67.02,30.74,81.28,15.47,25.24,27.8,29.41,64.56,60.96,15.94,13.69,28.74,25.88,36.89,33.87,9.24,9.05,45.08,51.77,67.63,135.47,29.2,108.35,18.62,223.56,15.37,254-7.52-27.48-19.24-63.44-36.89-98.21-24.5-48.28-49.48-72.7-65.56-85.13"/>
    <path d="M886.04,992.01c1.74-26.62-1.91-54.91-19.55-75.93-15.69-20.9-35.09-48.09-47.43-67.02-9.26-5.83-17.28-13.3-24.38-21.42-40.96-48.81-56.84-117.05-64.7-178.96-.96-8.6-1.93-17.4-2.39-26.04-.96-65.99,5.15-132.37,20.62-196.63,5.12-20.95,11.07-41.78,18.64-62.06,8.5-16.45,18.94-32.12,33.47-44.11,15.35-12.86,35.79-18.75,55.16-11.77,12.02,4.21,21.83,11.73,30.32,20.69,1.55,1.84,2.95,3.82,4.02,5.95,4.48,8.76,6.03,18.64,6.24,28.33.31,9.57-1.84,19.25-6.98,27.42-1.26,2.05-2.69,4-4.31,5.78-1.64,1.72-3.48,3.57-5.97,3.89-22.03-13.7-44.08-8.04-61.4,10.17-5.26,5.42-9.83,11.5-13.87,17.91-2.38,5.8-5.86,14.31-8.03,21.34-8.38,25.64-12.95,52.44-15.21,79.29-2.09,26.87-1.86,53.98.95,80.78,1.04,3.57,3.2,12.99,4.75,18.53,6.47,25.24,14.74,50.69,30.57,71.71,7.79,10.54,18.04,18.73,28.3,26.85,20.85,16.4,41.12,33.6,60.27,51.97,14.9,13.52,26.31,30.48,36.36,47.73,62.23,111.11,66.13,246.92,52.78,370.8,0,0-5.65-20.58-5.65-20.58-16.88-59.82-40.53-120.47-84.05-166.08-5.34-5.41-11.01-10.51-17-15.17,0,0,4.87-6.3,4.87-6.3,6.29,4.89,12.21,10.23,17.8,15.89,44.53,46.58,68.84,108.45,86.06,169.56,0,0-7.8.63-7.8.63,8.35-78.4,7.04-158.65-10.07-235.82-11.85-52.26-37.05-119.88-76.52-157.29-14.26-13.72-29-26.95-44.34-39.46-15.26-12.81-32.48-23.84-44.61-40-4.06-5.36-7.61-11.1-10.86-16.98-12.79-23.67-22.84-48.97-28.79-75.2-4.04-46.78-1.3-94.45,10.77-139.92,4.11-15.21,9.28-30.2,16.14-44.42,17.89-27.11,47.76-47.68,78.56-26.11,0,0-.12,0-.12,0,1.22-2.01,2.46-3.5,3.43-5.55,2.74-5.75,3.11-12.37,3.54-18.58.71-10.3.61-20.95-2.86-30.75-1.04-3.01-2.32-5.69-4.14-8.19-1.7-2.1-3.77-3.91-5.78-5.74-20.48-18.33-44.13-20.69-65.98-3.1-12.91,9.71-24.7,27.6-31.22,39.85-30.39,81.52-41.45,169.69-40.85,256.47.54,7.82,1.2,15.8,2.06,23.58,7.11,60.52,22.25,128.43,61.64,176.42,6.87,8.04,14.63,15.37,23.47,21,16.16,22.58,32.42,45.1,49.53,66.88,9.2,10.87,15.85,24.09,19,38.02,3.29,13.89,4.08,28.14,3.48,42.21,0,0-7.95-.43-7.95-.43h0Z"/>
  </g>
  <path d="M184.19,1351.41c20.14,4.61,39.83,11.05,59.02,18.67,0,0-.51,1.62-.51,1.62-5.06-1.12-10.05-2.45-15.02-3.84-9.94-2.79-19.79-5.86-29.53-9.28-4.87-1.71-9.71-3.52-14.48-5.55l.51-1.62h0Z"/>
  <path class="cls-5" d="M271.79,1005.42c-5.92,14.29,39.93,133.64,87.41,234.5,28.28,60.07,53.36,105.56,70.71,135.47,3.33-3.43,14.09-13.37,27.67-6.77,14.32,6.95,22.38,27.73,24.59,33.87,17.97-17.78,35.94-35.56,53.91-53.34,9.2-47.13,18.57-104.16,26.02-170.18,7.61-67.41,11.46-128.65,13.32-180.59-5.23,10.72-12.98,26.42-22.54,45.13-23.76,46.5-30.42,56.24-33.82,60.96,0,0-14.92,20.74-33.82,33.87-19.01,13.2-52.03,23.22-104.52-13.55-69.83-48.91-103.92-131.45-108.93-119.36Z"/>
  <ellipse class="cls-2" cx="472.94" cy="1212.83" rx="30.74" ry="60.96"/>
  <path d="M788.55,1470c3.69-30.72,4.38-61.65,1.27-92.34-3.17-30.69-10.21-60.36-19.62-89.85,0,0,.35.4.35.4-8.62-5.12-17.85-9.08-27.45-10.99-4.8-.93-9.65-1.39-14.49-1.27-24.84.57-46.49,15.87-62.55,33.93-5.31,8.7-15.28,21.45-24.09,29.98-30.68,30.96-71,37.55-106.49,10.14,0,0,1.22-1.72,1.22-1.72,5.28,3.5,10.85,6.52,16.64,8.93,11.49,4.8,24.13,6.78,36.46,4.95,31.53-4.88,54.38-30.73,70.95-56.32,6.85-7.96,14.68-15.19,23.41-21.28,27.73-19.49,60.92-19.36,87.6,1.9,29.61,42.59,33.08,111.19,24.19,161.02-1.37,7.73-3.11,15.4-5.3,22.94,0,0-2.07-.42-2.07-.42h0Z"/>
  <path d="M627.61,805.95c40.4,73.91,64.05,155.98,80.86,238.17,13.19,61.38,28.14,122.34,45.65,182.64,5.81,20.11,11.91,40.15,18.03,60.21l-2.02.72c-31.78-77.79-54.26-159.32-71.25-241.51-3.86-18.05-9.17-43.64-13.3-61.36-14.31-61.03-33.71-120.82-59.88-177.91,0,0,1.92-.96,1.92-.96h0Z"/>
  <path d="M634.62,1148.2c23.15,53.44,28.25,119.27,18.92,176.47,0,0-1.54-.16-1.54-.16.2-7.45.41-14.87.51-22.29.37-29.58-.74-59.24-4.75-88.56-3.1-21.99-7.61-43.75-14.58-64.89,0,0,1.44-.57,1.44-.57h0Z"/>
  <path d="M497.76,1470.33c-13.99,29.16-17.43,62.41-16.28,94.42.18,4.61.51,9.21.94,13.81l-.5.06c-4.2-32.04-1.95-65.53,9.56-95.9,1.7-4.31,3.63-8.54,5.84-12.62l.44.23h0Z"/>
  <path d="M550,1429.42c19.54,26.92,26.88,61.66,29.97,94.25.38,4.75.65,9.5.82,14.26,0,0-.5.02-.5.02-.26-4.74-.61-9.48-1.08-14.21-2.29-23.58-7.01-47.13-16.02-69.1-3.67-8.73-8.03-17.23-13.59-24.92,0,0,.4-.3.4-.3h0Z"/>
  <path d="M416.67,1558.27c-6.57-44.26,4.99-115.39,44.29-142.42,6.27-4.14,13.5-7.28,21.09-7.53,0,0-.81,1.15-.81,1.15-2.8-11.41-6.69-22.86-13.57-32.47-7.35-10.35-18.5-15.01-29.28-6.35-6.29,5.06-10.81,12.19-14.11,19.52-9.38-3.85-18.76-7.63-28.32-10.72-31.9-10.71-65.93-15.43-99.47-12.12-33.87,3.17-66.07,14.25-96.68,29.2,0,0-.95-1.62-.95-1.62,16.2-11.25,34.05-20.32,52.89-26.83,56.59-20.28,121.93-12.32,172.43,20.04,0,0-1.28.43-1.28.43,5.79-11.96,16.57-27.41,31.86-23.71,10.09,2.96,16.19,12.59,20.53,21.5,3.65,7.54,5.95,15.56,8.08,23.6,0,0-1.11.27-1.11.27-27.04,7.7-40.8,39.06-48.42,63.91-6.11,20.45-9.49,41.55-12.43,62.68,0,0-2.87,21.48-2.87,21.48h-1.88Z"/>
  <path d="M441.95,1588.59c-5.79-39.92-1.74-96.66,24.76-128.84,0,0,.39.32.39.32-3.33,4.45-6.19,9.23-8.6,14.23-12.08,25.08-16.2,53.25-17.13,80.86-.28,11.13.09,22.28,1.08,33.37,0,0-.5.06-.5.06h0Z"/>
  <path d="M530.37,1483.65c13.57,27.9,14.12,65.83,4.3,95.01,0,0-.48-.16-.48-.16,6.71-23.16,7.5-48.02,2.91-71.66-1.61-7.87-3.82-15.67-7.18-22.98,0,0,.45-.22.45-.22h0Z"/>
  <path d="M423.92,1389.12c-28.11,28.3-32.71,85.44-29.29,123.47.53,6.2,1.33,12.38,2.37,18.53,0,0-.49.1-.49.1-2.57-12.24-3.92-24.72-4.3-37.23-.45-12.52.28-25.06,1.95-37.48,2.74-18.54,7.7-37.15,17.51-53.28,3.34-5.3,7.12-10.42,11.93-14.49,0,0,.33.38.33.38h0Z"/>
  <path d="M787.51,1272.81c13.02-32.07,40.62-78.08,79.7-78.17,24.98.41,44.46,19.49,57.79,38.74,33.27,49.51,46.26,117.1,49.62,175.81,0,0-1.17.11-1.17.11-4.78-33.98-11.33-67.57-21.79-100.09-2.22-6.9-4.94-14.62-7.52-21.38-12.42-31.8-38.35-83.99-77.07-85.88-29.48-.43-52.43,29-67.09,51.61-4.08,6.4-7.89,12.99-11.4,19.73,0,0-1.07-.49-1.07-.49h0Z"/>
  <g>
    <path class="cls-17" d="M70.23,1639.54l19.98,108.37,15.15,108.37c249.17-35.9,498.34-71.8,747.51-107.7l44.3-197.1-15.37-47.41c-57.81,8.52-105.21,11.98-138.34,13.55-60.39,2.86-85.97.02-126.04,13.55-47.75,16.12-85.71,45.21-110.67,67.73-25.6-13.28-62.61-28.68-107.6-33.87-41.81-4.82-74.76,1-147.56,20.32-48.95,12.99-110.31,30.61-181.37,54.19Z"/>
    <path d="M70.56,1639.74c4.14,18.43,7.71,36.23,11.04,54.07,3.33,17.83,6.64,35.65,9.85,53.52l3.69,27.21,3.61,27.22,3.53,27.23,3.45,27.24-.44-.33h0c62.19-9.7,124.41-19.16,186.66-28.44l93.39-13.82,93.41-13.63,93.44-13.45,93.48-13.2,93.53-12.82,46.79-6.22,23.4-3.1,23.41-3.01-.32.3h0s44.3-197.1,44.3-197.1v.2s-15.36-47.41-15.36-47.41l.42.26c-32.74,4.81-65.64,8.55-98.64,11.08-16.5,1.28-33.02,2.23-49.55,2.9-16.53.7-33.08.97-49.59,1.72-8.26.39-16.51.91-24.71,1.89-8.2.98-16.34,2.43-24.35,4.41-16.03,3.97-31.58,9.79-46.48,16.91-29.84,14.26-56.99,33.71-81.51,55.83h0s-.2.18-.2.18l-.24-.12c-16.79-8.55-34.25-15.77-52.19-21.43-17.94-5.67-36.41-9.6-55.08-11.8-9.34-1.06-18.73-1.63-28.11-1.56-9.39.06-18.76.76-28.09,1.93-9.33,1.15-18.6,2.78-27.82,4.63-9.23,1.82-18.41,3.96-27.57,6.14-18.31,4.45-36.54,9.27-54.75,14.19-18.19,4.97-36.36,9.99-54.47,15.26-18.12,5.24-36.17,10.69-54.2,16.2-9.01,2.77-18.01,5.58-27,8.42l-13.47,4.3c-4.4,1.43-8.79,2.8-13.25,4.19ZM69.9,1639.35c4.5-1.56,9.07-3.14,13.63-4.66l13.44-4.43c8.97-2.93,17.94-5.83,26.93-8.68,17.98-5.72,36.03-11.19,54.12-16.55,36.19-10.68,72.56-20.75,109.21-29.81,9.18-2.2,18.37-4.36,27.64-6.21,9.26-1.87,18.57-3.56,27.98-4.67,9.39-1.15,18.86-1.83,28.33-1.87,9.47-.05,18.95.55,28.35,1.65,18.8,2.24,37.33,6.44,55.32,12.25,18,5.81,35.38,13.41,52.09,22.19l-.44.06h0c24.56-22.16,51.78-41.65,81.7-55.95,14.94-7.13,30.54-12.97,46.63-16.96,8.04-1.99,16.22-3.44,24.45-4.43,8.23-.98,16.5-1.51,24.76-1.9,16.54-.75,33.08-1.01,49.6-1.72,16.52-.67,33.04-1.62,49.53-2.9,32.98-2.53,65.86-6.26,98.59-11.07l.32-.05.1.31,15.37,47.41.03.1-.02.1-44.3,197.1h0s-.05.26-.05.26l-.27.04-23.31,3.72-23.32,3.64-46.65,7.24-93.35,14.1-93.4,13.73-93.44,13.47-93.46,13.29-93.49,13.1c-62.34,8.66-124.7,17.16-187.1,25.41h0s-.38.06-.38.06l-.06-.39-4.15-27.14-4.07-27.14-7.93-54.32c-3.42-18.13-6.75-36.3-10.06-54.48-3.31-18.16-6.37-36.35-8.87-53.92Z"/>
  </g>
  <path class="cls-12" d="M333.75,383.31c-7.86-40.93-16.95-73.58-24.6-97.55-10.78-33.81-22.41-59.39-45.68-110.55-1.01-2.23-7.54-16.46-17.57-32.52-10.36-16.58-19.94-27.9-31.62-32.52-7.61-3.01-9.9-.72-10.54,0-7.51,8.34-4.97,39.21-3.51,58.53,7.27,96.39.51,75.74,7.03,130.06,10.45,87.1,30.13,159.27,43.62,202.58,9.22-21.23,22.5-47.5,40.7-72.51,15.38-21.13,30.09-35.6,42.16-45.52Z"/>
  <g>
    <path class="cls-15" d="M605.13,952.64c6.83-28.48,15.14-68.48,21.52-118.4,4.59-35.96,6.89-53.94,5.24-67.77-4.6-38.43-21.93-49.57-35.98-119.18,0,0,0-.02,0-.05-.73-3.74-1.32-6.68-1.33-6.74-1.01-5,1.08-129.86-18.38-198.67-3.41-12.05-10.84-34.27-24.6-52.03-16.4-21.17-33.4-25.16-42.16-26.01-22.85-6.89-51.17-11.64-83.51-8.61-46.93,4.4-85.58,23.61-113.25,41.9-10.08,7.4-26.52,22.25-42.16,51.25-12.85,23.81-20.35,48.22-24.6,65.03-4.96,43.88-4.76,79.16-3.51,104.05,1.8,35.94,8.77,71.11-3.09,98.41-6.83,15.73-11.25,22.74-11.25,22.74-8.59,15.47-12.76,18.74-16.42,33.35-14.15,56.55,15.09,140.85,24.59,168.25,47.07,135.7,121.03,176.75,150.63,193.18,28.97,16.08,56.46,30.59,89.15,12.46,23.02-12.77,39.04-36.4,64.56-74.78,28.25-42.47,49.54-84.95,64.56-118.4Z"/>
    <path d="M604.03,952.27c9.17-38.09,16.26-76.85,21.27-115.73,1.66-12.99,3.39-25.99,4.73-39,.94-9.72,1.8-19.49.92-29.21-1.55-16.29-7.18-31.69-13.57-46.67-5.07-12.09-9.74-24.43-13.54-37.02-4.29-14.14-7.66-28.58-10.52-43.07-.71-4.91-.4-10.03-.62-14.98,0,0-.43-19.64-.43-19.64-1.59-50.56-3.99-101.51-14.47-151.1-7.1-30.82-21.31-68.95-50.53-84.71-5.71-3.02-11.95-4.91-18.35-5.61-54.46-17.36-114.86-10.97-165.6,14.95-10.32,5.2-20.31,11.1-29.88,17.57-13.44,10.11-23.6,23.91-32.19,38.14-14.62,23.45-25.8,51.79-33.04,77.46-5.17,37.68-7.56,76.01-4.1,113.97,1.64,19.03,4.19,38.1,2.89,57.28-.65,9.58-2.11,19.21-5.47,28.33-2.47,6.74-5.51,13.36-8.59,19.84-.83,1.71-2.43,4.9-3.42,6.57-2.92,6.26-8.46,14.42-11.36,21.47-16.31,44.93,3.9,121.38,18.84,166.24,28.42,87.53,74.65,164.4,158.95,207.36,23.37,12.98,47.43,23.42,73.61,11.52,28.2-12.96,44.89-40.66,62.18-65.25,28.11-40.45,52-83.85,72.29-128.69h0ZM606.24,953.02c-20.06,45.33-43.74,88.9-71.43,129.99-17.58,25.7-34.95,55.2-64.61,68.47-27.09,12.16-52.92,1.96-77.29-11.16-85.93-41.52-136.5-121.61-165.17-209.88-12.92-39.36-24.61-80.2-24.29-122.04.43-16.86,2.48-34.19,9.88-49.56,1.96-3.87,4.34-7.35,6.6-10.77,2.62-3.92,5.05-7.92,7.53-11.91,4.52-7.58,8.62-15.57,11.96-23.75,3.51-8.72,4.88-18.3,5.23-27.66.63-19.01-1.72-37.99-2.68-57-1.91-38.21-1.66-76.5,1.64-114.64,6.44-28.16,16.23-56.11,32.51-80.25,9.28-13.46,20.7-25.41,33.72-35.2,4.31-3.16,9.14-5.92,13.69-8.68,26.27-15.45,54.9-27.26,84.96-32.71,33.1-6.19,70.18-3.7,101.1,5.75,6.77.63,13.38,2.65,19.4,5.75,17.98,9.43,30.1,26.94,38.5,44.92,8.46,17.88,13.19,37.48,16.82,56.86,5.54,32.36,8.25,65.24,9.74,97.97.99,18.88,1.26,39.98,1.59,59,.17,4.84-.11,9.67.48,14.46,2.76,14.43,6.01,28.82,10.22,42.88,3.72,12.52,8.29,24.75,13.3,36.85,5.66,13.63,11.05,27.69,12.9,42.46,1.84,11.44.71,23.14-.42,34.56-1.38,13.06-3.09,26.05-4.76,39.06-5.12,39.1-11.97,77.83-21.13,116.22h0Z"/>
  </g>
  <g>
    <path class="cls-16" d="M897.17,1553c-61.09-1.54-108.62,5.26-141.41,12.04-60.91,12.59-98.51,28.93-141.41,27.09-14.75-.63-45.7-3.3-70.71,40.64-9.27,16.29-15.15,34.46-18.69,47.41-25.83-17.28-68.95-40.53-122.72-40.64-53.68-.11-85.15,22.84-178.3,60.96-30.6,12.53-76.05,30.04-132.19,47.41,4.1,36.12,8.2,72.25,12.3,108.37,136.32-19.6,272.64-39.21,408.97-58.81,113.09-16.52,226.17-33.04,339.26-49.56,14.97-64.97,29.94-129.94,44.9-194.91Z"/>
    <path d="M896.69,1553.38l-6.42.2-6.37.09c-4.42.07-8.84.08-13.25.24-8.83.2-17.66.7-26.47,1.24-17.62,1.17-35.19,3-52.64,5.58-8.72,1.32-17.42,2.79-26.08,4.47-8.66,1.67-17.28,3.57-25.87,5.58-8.6,2-17.16,4.14-25.72,6.35-8.56,2.21-17.1,4.51-25.7,6.67-8.6,2.16-17.23,4.26-25.97,5.99-8.74,1.69-17.57,3.1-26.5,3.77-4.46.33-8.93.51-13.41.51-4.47,0-8.98-.3-13.33-.49-4.36-.17-8.7-.09-13,.45-4.29.52-8.51,1.54-12.58,2.98-8.13,2.95-15.55,7.78-21.85,13.81-3.16,3.01-6.06,6.3-8.74,9.77-2.69,3.46-5.17,7.1-7.4,10.89-9.05,15.12-15.11,31.89-19.82,48.88l-.23.82-.71-.47c-7.99-5.31-16.22-10.26-24.72-14.71-8.51-4.41-17.25-8.38-26.23-11.73-17.95-6.65-36.75-11-55.78-12.4-19.02-1.39-38.19.04-56.57,4.86-4.6,1.19-9.16,2.54-13.69,4.03-4.52,1.51-9,3.14-13.47,4.84-8.93,3.41-17.75,7.16-26.56,10.98-17.61,7.65-35.18,15.52-52.93,22.95-17.73,7.48-35.59,14.67-53.58,21.52-35.98,13.67-72.41,26.11-109.17,37.46l.43-.66,12.22,108.38-.62-.48,374.19-53.64,93.52-13.59,93.51-13.7,186.99-27.52h0s-.51.47-.51.47c2.22-16.54,5.41-32.6,8.91-48.64,1.75-8.01,3.67-16.02,5.57-24.02l5.8-24.05c3.92-16.05,7.94-32.16,12.08-48.41,4.12-16.25,8.33-32.63,12.66-49.28ZM897.66,1552.62c-3.15,15.83-6.43,31.94-9.79,48.18-3.35,16.23-6.81,32.61-10.37,49.05l-5.43,24.68c-1.85,8.23-3.67,16.47-5.66,24.7-3.98,16.45-8.28,32.88-13.54,48.82l-.15.44-.37.03h0s-374.09,54.32-374.09,54.32l-374.14,53.98-.55.08-.06-.56-12.37-108.36-.06-.51.49-.15c36.7-11.43,72.93-24.38,108.58-38.72,17.83-7.16,35.53-14.63,53.1-22.4l52.64-23.58c17.63-7.69,35.47-15.35,54.39-20.08,9.44-2.34,19.11-3.88,28.82-4.5,9.71-.6,19.44-.34,29.09.59,19.31,1.88,38.23,6.76,56.16,13.9,8.96,3.59,17.73,7.65,26.21,12.23,8.51,4.53,16.76,9.54,24.75,14.91l-.94.35c2.33-8.56,5.01-17.02,8.22-25.3,3.22-8.27,6.88-16.4,11.37-24.09,4.46-7.7,9.7-15.02,16.05-21.37,6.34-6.34,13.95-11.55,22.41-14.82,4.24-1.6,8.65-2.76,13.13-3.41,4.48-.67,9.02-.85,13.49-.76,4.5.1,8.82.3,13.21.21,4.37-.09,8.75-.36,13.1-.78,17.45-1.65,34.61-5.78,51.72-10.14,17.11-4.41,34.24-8.98,51.54-12.95,17.3-3.93,34.78-7.25,52.38-9.6,8.8-1.18,17.62-2.15,26.46-2.94,8.84-.79,17.7-1.31,26.56-1.74,8.86-.31,17.73-.56,26.59-.51,4.43-.04,8.86.07,13.29.13,2.15.02,4.6.13,6.9.26l6.85.43Z"/>
  </g>
  <path class="cls-6" d="M114.95,1680.18c20.46-1.68,53.29-5.22,93.62-13.55,83.34-17.21,115.47-37.67,178.3-47.41,30.22-4.69,75.63-8.14,132.12,1.94,14.31-15,36.46-35.36,64.63-49.35,47-23.34,84.41-15.86,98.37-13.55,41.4,6.86,106.4,6.3,208.04-28.84"/>
  <path class="cls-6" d="M114.95,1649.7c20.74-3.32,53.45-8.85,93.62-16.93,100.6-20.25,129.94-32.81,181.37-33.87,30.01-.61,74.41,2.54,129.05,22.25,15.08-22.89,40.21-56.04,73.85-76.44,55.19-33.47,91.51-7.31,156.78-6.77,30.25.25,75.77-4.93,132.19-33.87"/>
  <path d="M519.24,1621.13c1.94,14.56,3.75,29.58,4.97,44.22.31,4.94.5,9.89,1,14.81-1.29,13.09-2.83,30.99-3.97,44.09-1.51,16.38-4.31,42.28-6.19,58.63-.6,4.88-1.16,9.76-1.79,14.63,0,0-.5-.05-.5-.05.36-4.9.8-9.79,1.2-14.69,1.45-16.39,3.94-42.32,5.76-58.67,1.52-13.04,3.64-30.87,4.99-43.93-1.13-9.54-2.83-19.62-3.54-29.41-.37-3.65-1.04-11.11-1.33-14.77-.43-4.93-.79-9.86-1.11-14.8l.5-.05h0Z"/>
  <ellipse class="cls-4" cx="368.42" cy="765.79" rx="46.11" ry="101.6"/>
  <ellipse class="cls-4" cx="525.2" cy="731.93" rx="46.11" ry="101.6"/>
  <ellipse class="cls-7" cx="368.42" cy="826.75" rx="21.52" ry="47.41"/>
  <ellipse class="cls-7" cx="531.35" cy="792.89" rx="21.52" ry="47.41"/>
  <ellipse class="cls-8" cx="353.05" cy="840.3" rx="61.48" ry="94.83"/>
  <ellipse class="cls-9" cx="543.65" cy="779.34" rx="61.48" ry="94.83"/>
  <path class="cls-10" d="M414.53,840.3c1.65-5.52,12.69-41.13,33.82-47.41,25.09-7.46,41.76,33.17,43.04,36.4"/>
  <line class="cls-10" x1="291.57" y1="840.3" x2="222.9" y2="759.02"/>
  <line class="cls-10" x1="605.13" y1="779.34" x2="631.89" y2="732.78"/>
  <path class="cls-7" d="M426.83,880.94c6.69-7.57,18.44-18.42,33.82-20.32,11.63-1.44,21.22,2.75,27.67,6.77.39,8.3,1.13,34.25-6.15,60.96-1.95,7.16-8.43,28.89-21.52,40.64-5.67-10.6-12.04-24.01-18.44-40.64-6.5-16.88-11.52-33.17-15.37-47.41Z"/>
  <path class="cls-13" d="M368.42,968.99c2.18,15.57,7.12,41.6,18.44,60.96,19.08,32.62,48.3,32.67,73.78,0,5.09,2.56,25.13,11.26,46.11-13.55,19.1-22.58,27.07-58.84,29.31-70.15"/>
  <line class="cls-13" x1="460.65" y1="968.99" x2="460.65" y2="1029.95"/>
  <path class="cls-11" d="M426.83,1015.92c-12.4,15.48-29.6,41.13-46.11,81.76-13.34,32.83-22.05,65.16-27.67,90.23"/>
  <path class="cls-11" d="M230.09,1090.91c21.23-28.9,51.17-63.15,89.15-88.05,39.98-26.22,75.2-33.12,100.9-33.87-21.2,12.77-46.28,31.86-73.23,60.96-21.62,23.34-40.05,48.39-55.33,71.97"/>
  <path class="cls-11" d="M426.83,998.37c-20,19.44-41.75,43.17-64.56,72.22-21.87,27.86-41.33,56.29-58.41,83.64"/>
  <path class="cls-11" d="M655.17,840.3c-19.7,5.22-41.72,13.65-65.41,27.09-33.62,19.08-62.46,43.63-86.08,67.73,26.7-8.81,55.46-15.94,86.08-20.32,48.38-6.92,92.91-5.73,132.68-.14"/>
  <path class="cls-11" d="M497.54,968.99c23.02-4.02,52.47-4.48,86.08,6.77,28.19,9.44,52.28,24.76,71.55,40.16"/>
  <path class="cls-11" d="M497.54,978.91c10.01,1.93,29.39,8.73,49.19,37.49,13.89,20.18,22.81,43.66,28.01,59.89"/>
  <path d="M280.17,1188.13c-13.63,56.69-13.71,116.53,0,173.22,0,0-1.35.43-1.35.43-5.37-13.76-8.9-28.21-11.31-42.81-4.66-29.22-4.71-59.25-.02-88.47,2.39-14.6,5.94-29.05,11.32-42.8l1.35.43h0Z"/>
  <g>
    <path class="cls-14" d="M284.56,409.33c-9.42-46.42-20.95-96.72-35.14-149.57-15-55.91-30.57-105.77-45.68-149.57-1.52,21.5-2.42,47.07-1.64,75.76.52,19.05,1.7,36.44,3.17,51.93,1.27,15.33,2.87,31.14,4.85,47.38,9.15,75.02,23.96,138.23,39.29,189.12,2.8-8.14,6.26-17,10.54-26.01,8.5-17.92,17.35-30.45,24.6-39.02Z"/>
    <path d="M284.13,409.22c-10.37-50.41-22.1-101.02-35.49-150.68-13.42-49.9-28.48-99.36-45.31-148.21,0,0,.87-.11.87-.11-1.64,30.68-1.92,61.41-.49,92.07,3.4,61.31,11.11,122.47,23.68,182.58,6.3,30.06,13.71,59.91,22.46,89.36,0,0-.85-.02-.85-.02,4.04-11.73,8.84-23.22,14.64-34.2,5.78-10.89,12.44-21.43,20.49-30.8h0ZM284.99,409.44c-15.92,19.08-27.09,41.66-35.15,65.07,0,0-.45,1.31-.45,1.31-18.16-59.26-31-120.12-38.98-181.58-7.83-60.95-12.73-122.74-7.11-184.09,0,0,.18-2.11.18-2.11,17.1,49.53,32.4,99.67,46.01,150.27,13.38,49.87,25.32,100.49,35.5,151.13h0Z"/>
  </g>
  <path class="cls-1" d="M530.51,357.3c5.07-61.89,16.2-108.01,24.6-136.57,22.82-77.65,54.35-124.07,67.47-143.01,0,0,.05-.07.05-.08,0,0,.25,2.44.63,6.24-18.03,106.31-36.07,212.62-54.1,318.93-6.46-10.54-14.61-22-24.6-32.52-4.89-5.15-9.61-9.43-14.05-13.01Z"/>
</svg>