<?xml version="1.0" encoding="UTF-8"?>
<svg id="Capa_1" data-name="Capa 1" xmlns="http://www.w3.org/2000/svg" viewBox="0 0 1080 989.29">
  <defs>
    <style>
      .cls-1 {
        fill: none;
      }

      .cls-1, .cls-2, .cls-3, .cls-4, .cls-5, .cls-6, .cls-7, .cls-8 {
        stroke: #000;
        stroke-miterlimit: 10;
      }

      .cls-9 {
        letter-spacing: 0em;
      }

      .cls-2 {
        fill: #e2a6a6;
      }

      .cls-3 {
        fill: #fff;
      }

      .cls-4 {
        fill: #9e0202;
      }

      .cls-6 {
        fill: #191919;
      }

      .cls-10 {
        letter-spacing: -.06em;
      }

      .cls-7 {
        fill: #d3f700;
      }

      .cls-8 {
        fill: #cea600;
      }

      .cls-11 {
        font-family: Roboto-Light, Roboto;
        font-size: 10.14px;
        font-weight: 300;
      }

      .cls-12 {
        letter-spacing: -.02em;
      }

      .cls-13 {
        letter-spacing: 0em;
      }
    </style>
  </defs>
  <path class="cls-6" d="M763.67,670.61c20.87-15.76,54.17-46.38,59.48-88.36,3.97-31.43-8.92-59.99-21.4-87.62-7.94-17.58-16.52-31.74-23.07-41.61-4.72-14.48-14.92-54.23,9.5-98.45,16.58-30.02,41.95-49.14,57-58.87,1.68-.5,14.5-4.12,25.79,1.01,11.36,5.17,16.5,17.11,10.86,28.42-12.21,23.34-24.43,46.69-36.64,70.03-.19,10.47.52,22.06,2.71,34.51,5.95,33.7,20.56,60.86,33.93,80.18,8.74,18.99,10.72,34.72,10.86,45.67.06,4.77-.23,8.07-5.43,39.58-4.34,26.31-6.54,39.55-8.14,43.64-4.57,11.67-14.58,28.67-39.36,46.69-15.35,10.18-35.16,21.67-59.71,32.48-21.7,9.55-42.13,16.38-59.72,21.31,14.45-22.88,28.9-45.75,43.35-68.63Z"/>
  <path id="cuerpo_general" data-name="cuerpo general" class="cls-6" d="M682.94,598.72c-3.27,101.69-81.18,224.24-171.4,224.16-90.47-.08-166.65-123.43-171.4-224.16-5.25-111.28,74.4-243.45,164.66-245.22,91.31-1.79,181.85,130.1,178.15,245.22Z"/>
  <g>
    <path id="pat_tra_dere" data-name="pat tra dere" class="cls-6" d="M631.63,859.15c6.09.91,22.89,2.74,39.82-4.89,2.06-.93,27.36-12.6,25.07-25.65-1.83-10.44-21.04-20.23-47.06-18.93,31.56-24.02,63.11-48.04,94.67-72.06,41.72-38.79,50.42-85.93,33.98-105.49-9.55-11.35-30.59-17-48.18-13.68-22.31,4.2-33.26,21.72-38.97,17.83-6.2-4.22,4.82-25.41,7.19-50.09,2.59-26.95-10.54-51.55-27.85-72.12-23.06,92.57-44.54,186.42-64.33,281.56-1.59,7.64-3.17,15.28-4.73,22.92-1.12,1.05-11.32,10.84-7.96,22.27,3.43,11.68,19.67,20.5,38.35,18.32Z"/>
    <path class="cls-6" d="M657.8,815.26c3.9-.63,10.4-1.15,17.99.87,10.93,2.9,17.83,9.38,20.74,12.48"/>
    <path class="cls-6" d="M653.09,822.65c2.38-.74,14.47-4.2,26.55,2.61,7.86,4.43,11.79,10.98,13.32,13.94"/>
    <path class="cls-6" d="M685.21,846.28c-2.58-2.69-7.23-6.83-14.13-9.74-8.58-3.61-16.23-3.45-20.13-3.09"/>
  </g>
  <path class="cls-6" d="M614.59,865.38c-1.24-3.55-3.17-7.89-6.26-12.39-6.42-9.34-14.43-14.36-19.16-16.81"/>
  <path class="cls-6" d="M637.83,842.64c-.96-2.93-3.38-8.92-9.17-13.97-8.88-7.74-19.22-7.65-21.82-7.56"/>
  <path class="cls-6" d="M630.49,852.52c-2.27-3.72-6.55-9.71-13.68-14.82-7.9-5.66-15.53-7.54-19.79-8.26"/>
  <g>
    <g>
      <path id="pata_tra_izq" data-name="pata tra izq" class="cls-6" d="M400.08,808.74c-16.53-3.9-43.68-12.4-68.24-31.44-10.35-8.02-32.39-33.7-44.59-69.42-1.2-3.51-6.83-21.44,6.64-39.54,15.11-20.31,42.18-24.57,46.15-25.14-4.45-13.21-8.6-31.14-8.19-52.43.55-28.28,8.93-51.06,16.13-65.95,4.13,36.2,11.85,77.29,25.57,121.82,19.63,63.7,46.36,117.6,72.26,160.68,1.88,2.42,20.76,27.32,8.85,41.53-7.42,8.84-26.62,13.36-50.52,10.11-14.85-2.01-31.52-7.02-48.3-15.84-.05-3.52.49-11.64,7.37-19.48,12.38-14.11,34.34-14.85,36.87-14.9Z"/>
      <path id="patas_delanteras" data-name="patas delanteras" class="cls-6" d="M515.61,848.34c-.33,3.1-1.21,7.23-3.63,11.34-10.28,17.5-37.88,16.76-47.55,16.5-25.25-.68-44.43-12.28-50.83-22-5.02-7.62-3.77-17.03,3.06-23.42,7.19-6.74,19.12-8.76,29.13-4.87-27.57-54.19-53.62-116.56-73.21-186.27-16.15-57.49-25.38-111.02-30.14-159.48-1.24-4.43-2.52-10.87-2.28-18.67,0,0,.36-11.68,5.67-24.28,11.46-27.18,50.26-52.22,53-53.96,11.95,7.44,50.65,29.54,106.26,28.82,65.25-.85,107.31-32.52,116.79-40.04,23.62,32.19,38.88,57.7,44.16,69.38,1.84,4.07,5.4,11.94,6.54,22.69.42,4.01.43,7.65.24,10.84-2,44.87-7.18,93.25-16.94,144.59-13.81,72.61-34.42,138.55-57.61,196.98,1.23-.84,11.03-7.32,23.03-4.94,11.51,2.28,20.23,11.78,20.33,23.16-1.02,2.89-9.28,24.92-36.58,34.17-21.25,7.2-45.97,3.93-64.38-8.38-2.64-1.76-7.34-6.53-10.71-14.14-4.14-9.36-3.48-18.07-2.89-22.15,2.84-74.17,5.68-148.33,8.52-222.5-4.02-8.89-12.36-14.92-21.73-15.64-10.69-.82-21,5.41-25.71,15.64,9.15,82.22,18.3,164.45,27.45,246.67Z"/>
      <path class="cls-6" d="M450.1,834.81c-1.76-.57-12.06-3.72-22.7,2.17-10.07,5.57-13.21,15.24-13.8,17.19"/>
      <path class="cls-6" d="M429.54,867.38c1.32-3.27,3.84-8.28,8.57-13.02,7.35-7.38,15.69-9.73,19.42-10.54"/>
      <path class="cls-6" d="M454.11,875.2c-.61-2.27-1.33-6.26-.16-10.86,2.69-10.52,12.87-14.71,14.13-15.2"/>
    </g>
    <path class="cls-6" d="M357.26,843.23c1.04-3.22,4.56-12.57,14.91-19.73,11.51-7.97,23.83-7.94,27.32-7.82"/>
    <path class="cls-6" d="M376.12,850.94c.66-3.59,2.25-9.32,6.44-15.06,8.08-11.04,19.97-14.05,23.43-14.79"/>
    <path class="cls-6" d="M399.49,858.97c-.08-3.6.2-12.4,5.64-21.55,5.07-8.52,11.92-12.82,15.06-14.53"/>
  </g>
  <path id="pañoleta" class="cls-4" d="M398.83,383.21c11.95,7.44,50.65,29.54,106.26,28.82,65.25-.85,107.31-32.52,116.79-40.04-2.63,33.48-11.94,84.96-44.83,140.9-20.23,34.4-43.86,61.11-64.16,80.61-20.02-17.04-43.51-40.6-64.16-71.45-36.79-54.98-46.92-106.84-49.91-138.84Z"/>
  <path class="cls-6" d="M641.44,833.46c-2.67-3.06-8.23-8.6-17.05-11.9-12.56-4.7-23.57-1.81-27.3-.65"/>
  <path class="cls-6" d="M621.18,860.02c-.68-3.36-2.37-9.19-6.96-14.69-9.19-10.97-22.54-11.66-25.04-11.74"/>
  <path class="cls-6" d="M595.17,827.1c4.2-.38,15.15-.79,26.34,5.86,7.29,4.33,11.69,9.89,13.99,13.32"/>
  <path class="cls-6" d="M675.8,281.84c12.3,33.22-64.92,131.98-164.18,136.39-109.02,4.85-197.3-106.2-184.36-140.09,5.41-14.17,31.78-23.37,34.69-51.48.81-7.86-.99-9.63-.43-14.79,3.32-30.71,76.75-56.26,142.88-56.66,56.68-.34,130.74,17.66,140.31,53.88,1.94,7.33,1.11,14.95,6.3,29.95,8.71,25.21,21.22,33.16,24.79,42.79Z"/>
  <path class="cls-6" d="M358.44,211.16c-34.86-76.54-49.87-140.39-32.48-151.86,17.8-11.75,71.56,30.11,129.97,100.42-13.71,3.88-30.01,9.68-47.53,18.57-20.94,10.61-37.53,22.53-49.96,32.87Z"/>
  <path class="cls-2" d="M361.62,208.69c3.28-2.51,6.68-5.03,10.2-7.54,8.32-5.94,16.49-11.25,24.39-16-1.34-12.31-4.41-29.65-12.17-48.94-17.03-42.37-51.21-80.06-61.66-74.71-10.39,5.31,3.26,52.92,9.1,73.3,9.25,32.26,21.22,57.38,30.14,73.9Z"/>
  <path class="cls-6" d="M550.27,160.41c13.96,3.94,31.24,10.16,49.87,20.23,17.28,9.34,31.13,19.52,41.71,28.46,6.27-11.57,15.35-28.39,26.22-48.74,44.28-82.95,52.06-99.84,45.2-103.9-10.44-6.18-39.53,8.41-58.63,19-29.65,16.44-67.19,42.58-104.38,84.95Z"/>
  <path class="cls-2" d="M600.15,180.72c6.04,2.3,13.54,5.78,21.52,11.09,7.95,5.29,14.06,10.88,18.53,15.57,11.23-20.23,27.15-49.39,45.68-85.08,27.3-52.55,31.05-62.73,27.19-64.6-8.94-4.34-47.43,22.11-75.37,56.73-19.91,24.67-31.14,49.13-37.55,66.29Z"/>
  <line class="cls-3" x1="309.62" y1="887.05" x2="758.97" y2="883.85"/>
  <g id="ojos_verdes" data-name="ojos verdes">
    <ellipse class="cls-7" cx="413.01" cy="260.34" rx="41.98" ry="48.33"/>
    <ellipse class="cls-7" cx="585.6" cy="260.34" rx="41.98" ry="48.33"/>
  </g>
  <path id="nariz" class="cls-5" d="M468.81,283.47c-.15-.2-.54-.7-.45-1.31.04-.28.17-.58.45-.89.95-1.05,2.87-1.36,3.17-1.4,19.68.02,39.36.04,59.04.06.16.02,2.18.24,2.98,1.25.45.57.04,1.34-.19,1.77-5.04,9.48-10.59,13.56-10.59,13.56-10.74,7.96-16.11,11.94-23.13,11.6-5.64-.27-9.75-3.25-17.98-9.2,0,0-3.09-2.24-13.31-15.43Z"/>
  <line id="boca" class="cls-1" x1="500.19" y1="308.12" x2="501.1" y2="344.97"/>
  <g id="boca-2" data-name="boca">
    <path d="M501.69,343.86c20.68,3.53,41.47,1.73,61.12-5.66,0,0,.47.88.47.88-13.19,9.5-30.49,12.74-46.43,10.31-5.34-.82-10.59-2.29-15.45-4.57,0,0,.29-.96.29-.96h0Z"/>
  </g>
  <g id="boca-3" data-name="boca">
    <path d="M438,335.2c14.01,8.86,30.53,12.93,47.01,11.56,5.47-.43,10.92-1.43,16.34-2.88l.38.93c-15.25,8.29-34.65,8.51-50.34,1.17-5.25-2.47-10.12-5.79-14.03-10.01,0,0,.64-.77.64-.77h0Z"/>
  </g>
  <g id="bigotes_izquierdos" data-name="bigotes izquierdos">
    <path class="cls-1" d="M428.27,317.77c-27.58-2.56-61.77-3.82-100.66-.92-44.35,3.31-81.8,11.04-110.62,18.84"/>
    <path class="cls-1" d="M421.63,340.67c-26.47,4.02-60.25,11.24-97.34,24.73-37.44,13.62-66.92,29.52-88.49,43.05"/>
    <path class="cls-1" d="M407.97,329.68c-28.45,1.58-63.01,5.37-101.38,13.74-40.37,8.81-74.16,20.34-100.66,31.15"/>
  </g>
  <g id="bigotes_derechos" data-name="bigotes derechos">
    <path class="cls-1" d="M575.31,318.7c34.95-3,73.87-4.87,116.15-4.58,35.66.24,68.82,1.98,99.1,4.58"/>
    <path class="cls-1" d="M580.84,336.11c28.86,5.4,61.37,12.99,96.24,23.82,30.78,9.55,58.11,19.98,81.86,30.23"/>
    <path class="cls-1" d="M580.84,328.78c31.91-1.04,72.01.11,117.25,7.33,31.87,5.09,59.69,12.13,82.96,19.36"/>
  </g>
  <ellipse id="pupilas" class="cls-5" cx="412.24" cy="260.34" rx="33.43" ry="34.07"/>
  <ellipse id="pupilas-2" data-name="pupilas" class="cls-5" cx="584.82" cy="260.34" rx="33.43" ry="34.07"/>
  <ellipse id="ojos" class="cls-3" cx="428.56" cy="238.16" rx="7.77" ry="5.55"/>
  <ellipse id="pjos" class="cls-3" cx="593.38" cy="238.16" rx="7.77" ry="5.55"/>
  <ellipse id="medalla" class="cls-8" cx="506.3" cy="438.61" rx="26.43" ry="26.94"/>
  <text id="letras" class="cls-11" transform="translate(482.52 438.26) scale(.99 1)"><tspan x="0" y="0">SCARL</tspan><tspan class="cls-13" x="30.69" y="0">E</tspan><tspan class="cls-9" x="36.55" y="0">T</tspan><tspan class="cls-12" x="42.69" y="0">T</tspan><tspan x="15.21" y="12.16">C</tspan><tspan class="cls-10" x="21.79" y="12.16">A</tspan><tspan class="cls-12" x="27.48" y="12.16">T</tspan></text>
</svg>