<?xml version="1.0" encoding="UTF-8"?>
<svg id="Capa_1" data-name="Capa 1" xmlns="http://www.w3.org/2000/svg" viewBox="0 0 1080 1920">
  <defs>
    <style>
      .cls-1, .cls-2, .cls-3, .cls-4, .cls-5, .cls-6, .cls-7, .cls-8 {
        stroke: #000;
        stroke-miterlimit: 10;
      }

      .cls-1, .cls-7 {
        fill: none;
      }

      .cls-2 {
        fill: #e2a6a6;
      }

      .cls-4 {
        fill: #191919;
      }

      .cls-5 {
        fill: #d3f700;
      }

      .cls-6 {
        fill: #ea0303;
      }

      .cls-7 {
        stroke-width: 3px;
      }

      .cls-8 {
        stroke-width: 7px;
      }
    </style>
  </defs>
  <path class="cls-4" d="M834.89,1393.86c28.33-33.8,73.53-99.45,80.73-189.48,5.39-67.41-12.11-128.65-29.04-187.9-10.77-37.7-22.42-68.06-31.32-89.24-6.4-31.04-20.25-116.31,12.89-211.13,22.5-64.38,56.94-105.37,77.37-126.24,2.28-1.07,19.68-8.84,35,2.18,15.43,11.09,22.4,36.69,14.74,60.94-16.58,50.06-33.16,100.12-49.74,150.18-.25,22.46.7,47.3,3.68,74,8.07,72.27,27.91,130.52,46.05,171.95,11.86,40.73,14.55,74.47,14.74,97.95.08,10.23-.32,17.31-7.37,84.89-5.89,56.43-8.88,84.82-11.05,93.59-6.2,25.02-19.79,61.49-53.42,100.12-20.84,21.84-47.72,46.47-81.05,69.65-29.46,20.49-57.19,35.14-81.05,45.71,19.61-49.06,39.23-98.12,58.84-147.18Z"/>
  <path id="cuerpo_general" data-name="cuerpo general" class="cls-4" d="M725.31,1239.7c-4.44,218.08-110.19,480.88-232.65,480.72-122.79-.17-226.2-264.7-232.65-480.72-7.12-238.64,100.98-522.08,223.49-525.87,123.94-3.84,246.83,278.99,241.8,525.87Z"/>
  <path id="pata_tra_izq" data-name="pata tra izq" class="cls-4" d="M341.37,1690.09c-22.44-8.36-59.28-26.58-92.62-67.42-14.04-17.2-43.97-72.26-60.53-148.86-1.63-7.52-9.27-45.99,9.01-84.79,20.51-43.55,57.25-52.68,62.64-53.9-6.04-28.32-11.68-66.77-11.12-112.44.74-60.65,12.12-109.49,21.89-141.43,5.61,77.62,16.08,165.74,34.71,261.25,26.64,136.6,62.92,252.19,98.07,344.58,2.55,5.19,28.18,58.6,12.01,89.05-16.32,30.74-74.68,37.09-134.13-12.29-.06-7.56.67-24.97,10.01-41.78,16.81-30.25,46.61-31.84,50.05-31.95Z"/>
  <path id="pat_tra_dere" data-name="pat tra dere" class="cls-4" d="M655.67,1798.19c8.27,1.96,31.06,5.87,54.05-10.48,2.79-1.99,37.13-27.02,34.03-55-2.48-22.39-28.56-43.39-63.87-40.58,42.83-51.51,85.66-103.01,128.49-154.52,42.67-122.99,39.46-172.82,23.46-192.54-24.02-29.61-77.3,8.09-95.63-24.78-12.93-23.19,6.55-54.59,9.76-107.41,3.51-57.79-14.31-110.54-37.8-154.66-31.29,198.51-60.46,399.78-87.31,603.79-2.16,16.39-4.3,32.77-6.42,49.15-1.52,2.25-15.36,23.25-10.81,47.75,4.65,25.05,26.69,43.95,52.05,39.29Z"/>
  <path id="patas_delanteras" data-name="patas delanteras" class="cls-4" d="M500.02,1801c-1.46,2.02-27.24,36.39-71.29,33.7-29.95-1.83-56.59-20.07-68.99-47.18-6.81-16.35-5.11-36.52,4.16-50.23,9.76-14.44,25.95-18.78,39.54-10.43-37.42-116.2-72.79-249.96-99.36-399.46-21.92-123.29-34.44-238.07-40.92-342.01-1.68-9.51-3.42-23.31-3.1-40.04,0,0,.48-25.05,7.7-52.08,15.56-58.29,68.22-111.99,71.94-115.72,16.22,15.95,68.75,63.35,144.23,61.79,88.56-1.82,145.65-69.74,158.53-85.87,32.06,69.02,52.78,123.74,59.94,148.79,2.49,8.72,7.33,25.61,8.87,48.65.57,8.59.59,16.4.33,23.24-2.72,96.22-9.74,199.97-23,310.07-18.75,155.71-46.72,297.13-78.19,422.41,1.66-1.79,14.98-15.7,31.25-10.6,15.63,4.89,27.46,25.25,27.59,49.66-1.38,6.2-12.6,53.44-49.64,73.28-28.84,15.45-62.4,8.43-87.39-17.97-4.6-24.72-9.2-49.43-13.8-74.15l6.9-480.83h-64.39l39.09,554.98Z"/>
  <ellipse class="cls-4" cx="479.1" cy="560.16" rx="232.65" ry="271.54"/>
  <path class="cls-4" d="M284.86,408.59c-6.43-22.38-85.72-301.79-44.08-325.67,39.86-22.86,169.21,200.79,183.31,225.38-18.87,6.06-43.17,16.25-69.2,33.93-32.24,21.9-55.15,47.14-70.03,66.36Z"/>
  <path class="cls-2" d="M284.86,408.59c5.69-7.06,11.74-14.23,18.16-21.46,11.26-12.68,22.37-24.08,33.1-34.31-1.43-25.99-5.33-62.85-16.52-104.96-22.31-83.97-67.82-166.92-83.69-160.22-16.73,7.06,1.14,113.03,8.57,157.13,11.85,70.27,28.08,126.4,40.38,163.83Z"/>
  <path class="cls-4" d="M540,305.93c18.4,6.25,43.7,17.33,70.61,37.55,26.31,19.77,45.02,41.43,57.34,58.04,7.16-20.95,19.46-56.88,34.86-101.54,57.86-167.82,73.99-211,61.35-222.81-13.97-13.06-54.58,20.24-79.57,40.74-39.06,32.03-95.79,89.16-144.59,188.02Z"/>
  <path class="cls-2" d="M617.28,347.29c7.37,5.16,15.75,11.89,24.35,20.61,11.58,11.74,20.16,23.64,26.34,33.62,15.22-43.41,36.67-105.2,61.91-180.02,37.21-110.33,43.89-134.07,37.43-138.97-12.28-9.31-67.83,52.45-103.73,122.05-28.25,54.75-40.46,106.84-46.29,142.72Z"/>
  <g id="ojos">
    <ellipse class="cls-5" cx="359.01" cy="512.53" rx="56.67" ry="103.95"/>
    <ellipse class="cls-5" cx="592.78" cy="512.53" rx="56.67" ry="103.95"/>
  </g>
  <path id="nariz" class="cls-3" d="M434.67,563.65c-.21-.43-.73-1.5-.61-2.82.05-.59.23-1.24.61-1.91,1.28-2.24,3.9-2.91,4.3-3.01,26.71.04,53.43.09,80.14.13.22.03,2.95.51,4.04,2.67.61,1.21.06,2.87-.25,3.79-6.85,20.32-14.37,29.09-14.37,29.09-14.58,17.06-21.87,25.6-31.39,24.88-7.65-.57-13.23-6.96-24.41-19.73,0,0-4.2-4.8-18.06-33.09Z"/>
  <line id="boca_1" data-name="boca 1" class="cls-7" x1="477.26" y1="616.52" x2="478.49" y2="695.54"/>
  <path id="boca_2" data-name="boca 2" class="cls-7" d="M479.1,694.18c7.8,3.75,20.97,8.58,37.43,7.42,22.35-1.57,38.55-13.32,46.04-19.64"/>
  <path id="boca_3" data-name="boca 3" class="cls-7" d="M392.42,675.41c4.65,6.12,18.22,22.39,40.04,27.5,23,5.39,40.85-4.97,46.64-8.73"/>
  <g id="bigotes_izquierdos" data-name="bigotes izquierdos">
    <path class="cls-1" d="M379.64,637.22c-37.44-5.49-83.84-8.18-136.63-1.96-60.2,7.09-111.02,23.68-150.14,40.4"/>
    <path class="cls-1" d="M370.63,686.33c-35.92,8.62-81.78,24.1-132.12,53.04-50.81,29.21-90.83,63.3-120.11,92.33"/>
    <path class="cls-1" d="M352.08,662.75c-38.61,3.38-85.53,11.51-137.6,29.47-54.8,18.9-100.65,43.62-136.63,66.79"/>
  </g>
  <g id="bigotes_derechos" data-name="bigotes derechos">
    <path class="cls-1" d="M579.23,639.21c47.43-6.43,100.26-10.44,157.65-9.82,48.4.52,93.41,4.25,134.52,9.82"/>
    <path class="cls-1" d="M586.73,676.54c39.17,11.58,83.3,27.87,130.62,51.08,41.78,20.49,78.87,42.85,111.1,64.83"/>
    <path class="cls-1" d="M586.73,660.82c43.31-2.22,97.75.24,159.15,15.72,43.26,10.91,81.02,26.01,112.61,41.51"/>
  </g>
  <g>
    <path class="cls-6" d="M328.17,786.35c11.65,1.73,28.9,5.3,49.61,13.6,68.18,27.3,76.28,66.64,113.25,63.97,30.98-2.24,31.74-30.33,92.43-67.16,27.7-16.81,51.14-25.28,66.71-29.82,5.4,18.06,14.38,53.1,17.4,100.77,3.94,62.25-4.6,109.42-8.64,128.43-18.81-2.14-48.58-7.85-84.7-25.55-46.84-22.95-51.88-40.34-78.44-40.75-31.17-.48-40.44,23.22-97.33,57.29-26.29,15.74-48.04,24.89-61.52,29.97-5.34-17.25-17.4-60.93-18.85-121.55-1.25-52.42,6.06-91.28,10.08-109.19Z"/>
    <path class="cls-6" d="M530.82,899.53c1.33,35.09-16.27,64.75-39.32,66.25-23.05,1.5-42.82-25.73-44.15-60.82-1.33-35.09,16.27-64.75,39.32-66.25,23.05-1.5,42.82,25.73,44.15,60.82Z"/>
  </g>
  <ellipse class="cls-8" cx="364.79" cy="499.45" rx="30.36" ry="39.72"/>
  <ellipse class="cls-8" cx="598.34" cy="499.45" rx="30.36" ry="39.72"/>
</svg>