<?xml version="1.0" encoding="UTF-8"?>
<svg id="Capa_1" data-name="Capa 1" xmlns="http://www.w3.org/2000/svg" viewBox="0 0 959.29 1067.86">
  <defs>
    <style>
      .cls-1 {
        fill: none;
      }

      .cls-1, .cls-2, .cls-3, .cls-4, .cls-5, .cls-6, .cls-7, .cls-8 {
        stroke: #000;
        stroke-miterlimit: 10;
      }

      .cls-2 {
        fill: #e2a6a6;
      }

      .cls-9 {
        letter-spacing: -.02em;
      }

      .cls-3 {
        fill: #fff;
      }

      .cls-4 {
        fill: #9e0202;
      }

      .cls-6 {
        fill: #191919;
      }

      .cls-7 {
        fill: #d3f700;
      }

      .cls-8 {
        fill: #cea600;
      }

      .cls-10 {
        font-family: Roboto-Light, Roboto;
        font-size: 9.96px;
        font-weight: 300;
      }

      .cls-11 {
        letter-spacing: 0em;
      }

      .cls-12 {
        letter-spacing: -.06em;
      }

      .cls-13 {
        letter-spacing: 0em;
      }
    </style>
  </defs>
  <path class="cls-6" d="M675.09,716.3c19.06-15.49,49.46-45.58,54.31-86.85,3.63-30.9-8.15-58.96-19.54-86.12-7.25-17.28-15.08-31.19-21.07-40.9-4.31-14.23-13.62-53.31,8.67-96.77,15.14-29.51,38.31-48.3,52.05-57.86,1.53-.49,13.24-4.05,23.54,1,10.38,5.08,15.07,16.82,9.91,27.93-11.15,22.94-22.31,45.89-33.46,68.83-.17,10.3.47,21.68,2.48,33.92,5.43,33.13,18.78,59.82,30.98,78.81,7.98,18.67,9.78,34.13,9.91,44.89.06,4.69-.21,7.93-4.96,38.91-3.96,25.86-5.97,38.87-7.44,42.9-4.17,11.47-13.31,28.18-35.94,45.89-14.02,10.01-32.1,21.3-54.53,31.92-19.82,9.39-38.47,16.1-54.53,20.95,13.19-22.49,26.39-44.97,39.58-67.46Z"/>
  <path id="cuerpo_general" data-name="cuerpo general" class="cls-6" d="M601.38,645.64c-2.99,99.95-74.13,220.41-156.51,220.33-82.6-.08-152.17-121.32-156.51-220.33-4.79-109.38,67.93-239.29,150.35-241.02,83.37-1.76,166.05,127.87,162.66,241.02Z"/>
  <g>
    <path id="pat_tra_dere" data-name="pat tra dere" class="cls-6" d="M554.53,901.62c5.56.9,20.9,2.69,36.36-4.8,1.88-.91,24.98-12.38,22.89-25.21-1.67-10.26-19.21-19.89-42.97-18.6,28.81-23.61,57.63-47.21,86.44-70.82,38.09-38.13,46.04-84.46,31.03-103.68-8.72-11.16-27.93-16.71-43.99-13.45-20.37,4.13-30.37,21.34-35.58,17.53-5.66-4.14,4.4-24.97,6.56-49.23,2.36-26.49-9.63-50.66-25.43-70.89-21.05,90.99-40.67,183.23-58.74,276.74-1.45,7.51-2.89,15.02-4.32,22.53-1.03,1.03-10.33,10.66-7.27,21.89,3.13,11.48,17.96,20.14,35.01,18.01Z"/>
    <path class="cls-6" d="M578.42,858.48c3.56-.62,9.49-1.13,16.42.85,9.98,2.85,16.28,9.22,18.94,12.27"/>
    <path class="cls-6" d="M574.12,865.74c2.18-.72,13.21-4.13,24.24,2.56,7.18,4.35,10.76,10.8,12.16,13.7"/>
    <path class="cls-6" d="M603.45,888.97c-2.36-2.65-6.6-6.71-12.91-9.57-7.84-3.55-14.82-3.39-18.38-3.03"/>
  </g>
  <path class="cls-6" d="M538.97,907.74c-1.13-3.49-2.89-7.76-5.71-12.18-5.86-9.18-13.18-14.12-17.49-16.53"/>
  <path class="cls-6" d="M560.19,885.39c-.88-2.88-3.08-8.77-8.37-13.73-8.1-7.61-17.55-7.52-19.93-7.43"/>
  <path class="cls-6" d="M553.49,895.1c-2.07-3.66-5.98-9.54-12.49-14.56-7.21-5.56-14.18-7.42-18.07-8.12"/>
  <g>
    <g>
      <path id="pata_tra_izq" data-name="pata tra izq" class="cls-6" d="M343.1,852.07c-15.09-3.83-39.88-12.18-62.31-30.9-9.45-7.88-29.58-33.12-40.72-68.23-1.09-3.45-6.24-21.08,6.06-38.86,13.8-19.96,38.52-24.15,42.14-24.71-4.06-12.98-7.86-30.6-7.48-51.54.5-27.8,8.15-50.18,14.73-64.82,3.77,35.58,10.82,75.97,23.35,119.74,17.92,62.61,42.33,115.59,65.98,157.93,1.72,2.38,18.96,26.86,8.08,40.82-6.77,8.69-24.3,13.13-46.13,9.94-13.56-1.98-28.78-6.9-44.1-15.57-.04-3.46.45-11.44,6.73-19.15,11.31-13.87,31.36-14.59,33.67-14.64Z"/>
      <path id="patas_delanteras" data-name="patas delanteras" class="cls-6" d="M448.59,890.99c-.3,3.05-1.11,7.11-3.31,11.15-9.39,17.2-34.58,16.47-43.41,16.22-23.05-.67-40.57-12.07-46.41-21.63-4.58-7.49-3.44-16.74,2.8-23.02,6.57-6.62,17.45-8.61,26.6-4.78-25.17-53.26-48.96-114.57-66.84-183.09-14.75-56.51-23.17-109.12-27.52-156.75-1.13-4.36-2.3-10.68-2.08-18.35,0,0,.32-11.48,5.18-23.87,10.47-26.72,45.9-51.33,48.39-53.04,10.91,7.31,46.25,29.03,97.03,28.32,59.58-.83,97.98-31.96,106.64-39.36,21.57,31.64,35.5,56.71,40.32,68.19,1.68,4,4.93,11.74,5.97,22.3.39,3.94.4,7.52.22,10.65-1.83,44.1-6.55,91.65-15.47,142.11-12.61,71.37-31.43,136.18-52.6,193.61,1.12-.82,10.07-7.19,21.02-4.86,10.51,2.24,18.47,11.57,18.56,22.76-.93,2.84-8.48,24.49-33.4,33.59-19.4,7.08-41.98,3.87-58.79-8.24-2.41-1.73-6.7-6.42-9.78-13.9-3.78-9.2-3.17-17.76-2.64-21.77,2.59-72.9,5.19-145.79,7.78-218.69-3.67-8.74-11.28-14.67-19.84-15.37-9.76-.8-19.18,5.32-23.47,15.37,8.36,80.82,16.71,161.63,25.07,242.45Z"/>
      <path class="cls-6" d="M388.77,877.7c-1.61-.56-11.01-3.65-20.72,2.13-9.19,5.48-12.06,14.98-12.6,16.9"/>
      <path class="cls-6" d="M370,909.71c1.21-3.21,3.51-8.14,7.82-12.8,6.71-7.25,14.33-9.57,17.73-10.36"/>
      <path class="cls-6" d="M392.44,917.4c-.56-2.23-1.22-6.15-.15-10.67,2.45-10.34,11.75-14.46,12.9-14.94"/>
    </g>
    <path class="cls-6" d="M304,885.97c.95-3.17,4.16-12.35,13.61-19.39,10.51-7.83,21.76-7.8,24.94-7.69"/>
    <path class="cls-6" d="M321.22,893.55c.6-3.53,2.05-9.16,5.88-14.8,7.38-10.86,18.24-13.81,21.39-14.54"/>
    <path class="cls-6" d="M342.56,901.44c-.07-3.54.18-12.19,5.15-21.18,4.63-8.38,10.89-12.6,13.75-14.28"/>
  </g>
  <path id="pañoleta" class="cls-4" d="M341.96,433.83c10.91,7.31,46.25,29.03,97.03,28.32,59.58-.83,97.98-31.96,106.64-39.36-2.4,32.91-10.9,83.51-40.93,138.49-18.47,33.81-40.04,60.06-58.58,79.23-18.28-16.75-39.73-39.9-58.58-70.23-33.59-54.04-42.84-105.01-45.57-136.46Z"/>
  <path class="cls-6" d="M563.49,876.37c-2.43-3.01-7.51-8.45-15.57-11.7-11.46-4.62-21.52-1.78-24.93-.64"/>
  <path class="cls-6" d="M544.98,902.47c-.62-3.3-2.16-9.04-6.36-14.44-8.39-10.79-20.58-11.46-22.86-11.54"/>
  <path class="cls-6" d="M521.23,870.12c3.83-.37,13.83-.77,24.05,5.76,6.66,4.26,10.68,9.72,12.78,13.09"/>
  <path class="cls-6" d="M594.86,334.19c11.23,32.65-59.27,129.72-149.91,134.06-99.55,4.77-180.16-104.39-168.34-137.69,4.94-13.93,29.02-22.97,31.67-50.59.74-7.73-.91-9.47-.4-14.54,3.03-30.19,70.08-55.3,130.47-55.69,51.75-.33,119.38,17.36,128.12,52.96,1.77,7.2,1.02,14.69,5.75,29.44,7.96,24.78,19.38,32.59,22.64,42.06Z"/>
  <path class="cls-6" d="M305.08,264.72c-31.83-75.23-45.53-137.99-29.65-149.26,16.26-11.55,65.34,29.59,118.68,98.7-12.51,3.81-27.4,9.52-43.4,18.25-19.12,10.43-34.27,22.14-45.62,32.31Z"/>
  <path class="cls-2" d="M307.98,262.29c2.99-2.47,6.1-4.95,9.31-7.41,7.6-5.84,15.06-11.06,22.27-15.73-1.22-12.1-4.03-29.15-11.11-48.11-15.55-41.64-46.76-78.69-56.3-73.44-9.49,5.22,2.97,52.01,8.31,72.04,8.45,31.71,19.37,56.4,27.52,72.64Z"/>
  <path class="cls-6" d="M480.24,214.83c12.74,3.87,28.52,9.98,45.54,19.89,15.78,9.18,28.43,19.19,38.09,27.97,5.72-11.37,14.02-27.9,23.94-47.91,40.43-81.53,47.53-98.13,41.27-102.12-9.53-6.07-36.09,8.26-53.53,18.67-27.08,16.16-61.35,41.85-95.31,83.5Z"/>
  <path class="cls-2" d="M525.78,234.8c5.52,2.26,12.37,5.68,19.65,10.9,7.26,5.2,12.84,10.69,16.92,15.31,10.25-19.88,24.79-48.55,41.71-83.62,24.92-51.65,28.35-61.66,24.83-63.5-8.17-4.26-43.3,21.73-68.82,55.76-18.18,24.25-28.44,48.29-34.29,65.15Z"/>
  <line class="cls-3" x1="100.47" y1="912.74" x2="509.47" y2="909.58"/>
  <g id="ojos_verdes" data-name="ojos verdes">
    <ellipse class="cls-7" cx="354.97" cy="312.24" rx="38" ry="47.5"/>
    <ellipse class="cls-7" cx="511.97" cy="312.24" rx="38" ry="47.5"/>
  </g>
  <path id="nariz" class="cls-5" d="M405.86,335.79c-.14-.2-.49-.69-.41-1.29.04-.27.15-.57.41-.88.86-1.03,2.62-1.33,2.89-1.38,17.97.02,35.94.04,53.91.06.14.02,1.99.24,2.72,1.22.41.56.04,1.32-.17,1.74-4.61,9.32-9.67,13.33-9.67,13.33-9.81,7.82-14.71,11.73-21.12,11.4-5.15-.26-8.9-3.19-16.42-9.04,0,0-2.83-2.2-12.15-15.17Z"/>
  <line id="boca" class="cls-1" x1="434.51" y1="360.02" x2="435.34" y2="396.23"/>
  <path id="boca-2" data-name="boca" class="cls-1" d="M435.75,395.62c5.25,1.72,14.11,3.93,25.18,3.4,15.04-.72,25.93-6.1,30.97-9"/>
  <path id="boca-3" data-name="boca" class="cls-1" d="M377.44,387.01c3.13,2.81,12.26,10.26,26.93,12.61,15.47,2.47,27.48-2.28,31.38-4"/>
  <g id="bigotes_izquierdos" data-name="bigotes izquierdos">
    <path class="cls-1" d="M368.84,369.51c-25.18-2.52-56.4-3.75-91.91-.9-40.5,3.25-74.69,10.85-101,18.52"/>
    <path class="cls-1" d="M362.78,392.01c-24.17,3.95-55.01,11.04-88.88,24.31-34.18,13.39-61.1,29.01-80.8,42.32"/>
    <path class="cls-1" d="M350.3,381.21c-25.98,1.55-57.54,5.28-92.57,13.51-36.86,8.66-67.71,19.99-91.91,30.61"/>
  </g>
  <g id="bigotes_derechos" data-name="bigotes derechos">
    <path class="cls-1" d="M503.1,370.42c31.91-2.95,67.45-4.78,106.05-4.5,32.56.24,62.84,1.95,90.49,4.5"/>
    <path class="cls-1" d="M508.15,387.53c26.35,5.31,56.04,12.77,87.87,23.41,28.11,9.39,53.06,19.64,74.74,29.71"/>
    <path class="cls-1" d="M508.15,380.32c29.14-1.02,65.76.11,107.06,7.2,29.1,5,54.5,11.92,75.75,19.03"/>
  </g>
  <ellipse id="pupilas" class="cls-5" cx="354.47" cy="312.74" rx="30.5" ry="33"/>
  <ellipse id="pupilas-2" data-name="pupilas" class="cls-5" cx="512.47" cy="312.74" rx="30.5" ry="33"/>
  <ellipse id="ojos" class="cls-3" cx="368.97" cy="291.24" rx="7" ry="5.5"/>
  <ellipse id="pjos" class="cls-3" cx="518.97" cy="291.24" rx="7" ry="5.5"/>
  <ellipse id="medalla" class="cls-8" cx="439.97" cy="489.24" rx="24" ry="26.5"/>
  <text id="letras" class="cls-10" transform="translate(418.37 487.93) scale(.92 1)"><tspan x="0" y="0">SCARL</tspan><tspan class="cls-13" x="30.16" y="0">E</tspan><tspan class="cls-11" x="35.93" y="0">T</tspan><tspan class="cls-9" x="41.96" y="0">T</tspan><tspan x="14.95" y="11.95">C</tspan><tspan class="cls-12" x="21.42" y="11.95">A</tspan><tspan class="cls-9" x="27.01" y="11.95">T</tspan></text>
</svg>