<?xml version="1.0" encoding="utf-8" ?>
<svg baseProfile="full" height="2048" version="1.1" width="1655" xmlns="http://www.w3.org/2000/svg" xmlns:ev="http://www.w3.org/2001/xml-events" xmlns:xlink="http://www.w3.org/1999/xlink"><defs /><polyline fill="none" points="507,652 508,651 509,651 510,651 511,651 511,651 512,650 513,650 514,650 515,650 516,650 517,650 517,650 518,649 519,649 520,649 521,649 522,649 522,649 523,648 524,648 525,648 525,648 526,647 527,647 527,647 528,646 529,646 530,646 530,646 531,645 532,645 533,645 533,645 534,644 534,644 535,643 536,643 537,643 537,643 538,642 539,642 539,642 540,641 541,641 541,641 542,640 542,640 543,639 544,639 544,639 545,638 546,638 546,638 547,637 548,637 548,637 548,636 549,635 550,635 550,635 551,634 552,634 552,634 552,633 553,632 554,632 554,632 555,631 555,631 556,630 557,630 557,630 558,629 558,629 559,628 559,628 560,627 560,627 561,626 561,626 562,625 562,625 563,624 563,624 564,623 564,623 565,622 565,622 566,621 566,621 567,620 567,620 568,619 568,619 569,618 569,618 570,617 570,617 570,616 571,615 571,615 572,614 572,614 572,613 573,612 574,612 574,612 574,611 575,610 575,610 575,609 576,608 576,608 577,607 577,607 578,606 578,606 578,605 579,604 579,604 579,603 580,602 580,602 581,601 581,601 581,600 582,599 582,599 582,598 583,597 583,597 583,596 584,595 584,595 585,594 585,594 585,593 585,592 586,591 586,591 586,590 587,589 587,589 587,588 587,587 588,586 588,586 589,585 589,585 589,584 589,583 590,582 590,582 590,581 590,580 591,579 591,579 591,578 591,577 591,576 592,575 592,575 592,574 593,573 593,573 593,572 593,571 593,570 594,569 594,569 594,568 594,567 594,566 594,565 595,564 595,564 595,563 595,562 596,561 596,561 596,560 596,559 596,558 596,557 596,556 596,555 597,554 597,554 597,553 597,552 597,551 597,550 597,549 597,548 597,547 597,546 597,545 597,544 597,543 597,542 597,541 597,540 598,539 598,539 598,538 598,537 598,536 598,535 598,534 597,534 597,533 597,532 597,531 597,530 597,529 597,528 597,527 597,526 597,525 597,524 597,523 597,522 597,521 597,520 596,520 596,519 596,518 596,517 596,516 596,515 596,514 596,513 596,512 595,512 595,511 595,510 595,509 594,509 594,508 594,507 594,506 594,505 593,505 593,504 593,503 593,502 593,501 592,501 592,500 592,499 592,498 591,498 591,497 591,496 591,495 590,495 590,494 590,493 590,492 589,492 589,491 589,490 589,489 588,489 588,488 588,487 587,487 587,486 587,485 586,485 586,484 586,483 586,482 585,482 585,481 585,480 584,480 584,479 583,479 583,478 583,477 583,476 582,476 582,475 582,474 581,474 581,473 580,473 580,472 580,471 579,471 579,470 578,470 578,469 578,468 577,468 577,467 576,467 576,466 576,465 575,465 575,464 574,464 574,463 574,462 573,462 573,461 572,461 572,460 571,460 571,459 570,459 570,458 570,457 569,457 569,456 568,456 568,455 567,455 567,454 566,454 566,453 565,453 565,452 564,452 564,451 564,450 563,450 563,449 562,449 561,449 561,448 560,448 560,447 559,447 559,446 558,446 558,445 557,445 557,444 556,444 555,444 555,443 554,443 554,442 553,442 553,441 552,441 552,440 551,440 551,439 550,439 549,439 549,438 548,438 548,437 547,437 546,437 546,436 545,436 545,435 544,435 543,435 543,434 542,434 541,434 541,433 540,433 539,433 539,432 538,432 538,431 537,431 536,431 535,431 535,430 534,430 533,430 533,429 532,429 531,429 531,428 530,428 529,428 529,427 528,427 527,427 526,427 525,427 525,426 524,426 523,426 522,426 522,425 521,425 520,425 519,425 519,424 518,424 517,424 516,424 515,424 515,423 514,423 513,423 512,423 511,423 510,423 509,423 508,423 507,423 507,422 506,422 505,422 504,422 503,422 502,422 501,422 500,422 499,422 498,422 497,422 496,422 495,422 494,422 493,422 492,422 491,422 490,422 489,423 489,423 488,423 487,423 486,423 485,423 484,423 483,423 482,424 482,424 481,424 480,424 479,424 478,424 477,424 476,425 476,425 475,425 474,426 474,426 473,426 472,426 471,427 471,427 470,427 469,427 468,427 467,428 467,428 466,429 466,429 465,429 464,429 463,430 463,430 462,430 461,430 460,431 460,431 459,431 458,432 458,432 457,433 457,433 456,433 455,434 455,434 454,434 453,435 453,435 452,435 451,436 451,436 450,437 450,437 449,437 448,438 448,438 447,438 446,439 446,439 445,440 445,440 444,441 444,441 443,442 443,442 442,442 441,443 441,443 440,444 440,444 439,445 439,445 438,446 438,446 437,447 437,447 436,448 436,448 435,449 435,449 434,450 434,450 433,451 433,451 432,452 432,452 431,453 431,453 430,454 430,454 429,455 429,455 428,456 428,456 427,457 427,457 426,458 426,458 425,459 425,459 424,460 424,461 424,461 423,462 423,462 422,463 422,464 422,464 421,465 421,465 420,466 420,466 419,467 419,468 419,468 418,469 418,470 418,470 417,471 417,471 416,472 416,473 416,473 415,474 415,475 415,475 414,476 414,476 413,477 413,478 413,478 412,479 412,480 412,480 411,481 411,482 411,483 411,483 410,484 410,484 409,485 409,486 409,486 408,487 408,488 408,489 408,489 407,490 407,491 407,492 407,492 406,493 406,494 406,494 405,495 405,496 405,497 405,497 404,498 404,499 404,500 404,501 404,501 403,502 403,503 403,504 403,505 403,505 402,506 402,507 402,508 402,508 401,509 401,510 401,511 401,512 401,513 401,513 400,514 400,515 400,516 400,517 400,518 400,519 400,520 400,521 400,521 399,522 399,523 399,524 399,525 399,526 399,526 398,527 398,528 398,529 398,530 398,531 398,532 398,533 398,534 398,535 398,536 398,537 398,538 398,539 398,540 398,541 398,542 398,543 398,544 398,545 398,546 398,547 398,548 399,548 399,549 399,550 399,551 399,552 399,553 400,553 400,554 400,555 400,556 400,557 400,558 400,559 400,560 401,560 401,561 401,562 401,563 401,564 401,565 401,566 402,566 402,567 402,568 402,569 403,569 403,570 403,571 403,572 404,572 404,573 404,574 404,575 404,576 405,576 405,577 405,578 405,579 405,580 406,580 406,581 406,582 407,582 407,583 407,584 407,585 408,585 408,586 408,587 409,587 409,588 409,589 409,590 410,590 410,591 411,591 411,592 411,593 411,594 412,594 412,595 412,596 413,596 413,597 413,598 414,598 414,599 415,599 415,600 415,601 416,601 416,602 416,603 417,603 417,604 418,604 418,605 419,605 419,606 419,607 420,607 420,608 420,609 421,609 421,610 422,610 422,611 422,612 423,612 423,613 424,613 424,614 424,615 425,615 426,615 426,616 427,616 427,617 427,618 428,618 428,619 429,619 429,620 430,620 430,621 431,621 431,622 432,622 432,623 433,623 433,624 434,624 434,625 435,625 435,626 436,626 436,627 437,627 437,628 438,628 438,629 439,629 439,630 440,630 441,630 441,631 442,631 442,632 443,632 443,633 444,633 444,634 445,634 446,634 446,635 447,635 448,635 448,636 448,637 449,637 450,637 450,638 451,638 452,638 452,639 453,639 454,639 454,640 455,640 455,641 456,641 457,641 457,642 458,642 459,642 460,642 460,643 461,643 462,643 462,644 463,644 463,645 464,645 465,645 466,645 466,646 467,646 468,646 469,646 469,647 470,647 471,647 471,648 472,648 473,648 474,648 475,648 475,649 476,649 477,649 478,649 479,649 479,650 480,650 481,650 482,650 483,650 484,650 485,650 485,651 486,651 487,651 488,651 489,651 489,652 490,652 491,652 492,652 493,652 494,652 495,652 496,652 497,652 498,652 499,652 500,652 501,652 502,652 503,652 504,652 505,652 506,652 507,652 507,652" stroke="black" stroke-width="1" /><polyline fill="none" points="922,652 923,651 924,651 925,651 926,651 927,651 927,651 928,650 929,650 930,650 931,650 932,650 932,650 933,649 934,649 935,649 936,649 937,649 937,649 938,648 939,648 940,648 940,648 941,647 942,647 942,647 943,646 944,646 945,646 946,646 946,646 947,645 948,645 948,645 949,644 950,644 950,644 951,643 952,643 952,643 953,642 954,642 954,642 955,641 956,641 956,641 957,640 957,640 958,639 959,639 959,639 960,638 961,638 961,638 962,637 963,637 963,637 964,636 964,636 965,635 965,635 966,634 967,634 967,634 968,633 968,633 969,632 969,632 970,631 970,631 971,630 972,630 972,630 973,629 973,629 974,628 974,628 975,627 976,627 976,627 977,626 977,626 977,625 978,624 979,624 979,624 980,623 980,623 981,622 981,622 981,621 982,620 982,620 983,619 983,619 984,618 984,618 985,617 985,617 985,616 986,615 987,615 987,615 987,614 988,613 988,613 989,612 989,612 990,611 990,611 990,610 991,609 991,609 992,608 992,608 992,607 993,606 993,606 994,605 994,605 994,604 995,603 995,603 995,602 996,601 996,601 997,600 997,600 997,599 998,598 998,598 998,597 999,596 999,596 999,595 1000,594 1000,594 1000,593 1001,592 1001,592 1001,591 1002,590 1002,590 1002,589 1003,588 1003,588 1003,587 1003,586 1004,585 1004,585 1004,584 1005,583 1005,583 1005,582 1005,581 1006,580 1006,580 1006,579 1006,578 1007,577 1007,577 1007,576 1007,575 1008,574 1008,574 1008,573 1008,572 1009,571 1009,571 1009,570 1009,569 1009,568 1010,567 1010,567 1010,566 1010,565 1010,564 1010,563 1010,562 1011,561 1011,561 1011,560 1011,559 1011,558 1011,557 1011,556 1012,555 1012,555 1012,554 1012,553 1012,552 1012,551 1013,550 1013,550 1013,549 1013,548 1013,547 1013,546 1013,545 1013,544 1013,543 1013,542 1013,541 1013,540 1013,539 1013,538 1013,537 1013,536 1013,535 1013,534 1013,533 1013,532 1013,531 1013,530 1013,529 1013,528 1013,527 1013,526 1013,525 1013,524 1012,524 1012,523 1012,522 1012,521 1012,520 1012,519 1011,519 1011,518 1011,517 1011,516 1011,515 1011,514 1011,513 1011,512 1010,512 1010,511 1010,510 1010,509 1010,508 1010,507 1010,506 1009,506 1009,505 1009,504 1009,503 1009,502 1008,502 1008,501 1008,500 1007,500 1007,499 1007,498 1007,497 1006,497 1006,496 1006,495 1006,494 1006,493 1005,493 1005,492 1005,491 1005,490 1004,490 1004,489 1003,489 1003,488 1003,487 1003,486 1002,486 1002,485 1002,484 1002,483 1001,483 1001,482 1000,482 1000,481 1000,480 999,480 999,479 999,478 998,478 998,477 998,476 998,475 997,475 997,474 996,474 996,473 996,472 995,472 995,471 994,471 994,470 994,469 994,468 993,468 992,468 992,467 992,466 991,466 991,465 991,464 990,464 990,463 989,463 989,462 988,462 988,461 988,460 987,460 987,459 986,459 986,458 985,458 985,457 984,457 984,456 983,456 983,455 982,455 982,454 982,453 981,453 981,452 980,452 980,451 979,451 979,450 978,450 978,449 977,449 977,448 976,448 976,447 975,447 975,446 974,446 973,446 973,445 972,445 972,444 971,444 971,443 970,443 970,442 969,442 969,441 968,441 967,441 967,440 966,440 966,439 965,439 965,438 964,438 963,438 963,437 962,437 961,437 961,436 960,436 960,435 959,435 958,435 958,434 957,434 957,433 956,433 955,433 954,433 954,432 953,432 953,431 952,431 951,431 951,430 950,430 949,430 949,429 948,429 947,429 946,429 946,428 945,428 944,428 944,427 943,427 942,427 941,427 941,426 940,426 939,426 938,426 937,426 937,425 936,425 935,425 935,424 934,424 933,424 932,424 931,424 930,424 930,423 929,423 928,423 927,423 926,423 925,423 924,423 923,423 923,422 922,422 921,422 920,422 919,422 918,422 917,422 916,422 915,422 914,422 913,422 912,422 911,422 910,422 909,422 908,422 907,422 906,422 905,423 905,423 904,423 903,423 902,423 901,423 900,423 899,423 898,423 897,424 897,424 896,424 895,424 894,424 893,424 892,425 892,425 891,425 890,425 889,426 889,426 888,426 887,426 886,427 886,427 885,427 884,427 883,428 883,428 882,428 881,429 881,429 880,429 879,430 879,430 878,430 877,430 876,431 876,431 875,431 874,432 874,432 873,433 873,433 872,433 871,433 870,434 870,434 869,434 868,435 868,435 867,435 866,436 866,437 866,437 865,437 864,438 864,438 863,438 862,439 862,439 861,440 861,440 860,440 859,441 859,441 858,442 858,442 857,443 857,443 856,444 856,444 855,445 855,445 854,445 853,446 853,446 852,447 852,447 851,448 851,448 850,449 850,449 849,450 849,450 848,451 848,451 847,452 847,452 846,453 846,453 845,454 845,454 844,455 844,455 843,456 843,457 843,457 842,458 842,458 841,459 841,459 840,460 840,460 839,461 839,461 838,462 838,463 838,463 837,464 837,464 836,465 836,465 835,466 835,467 835,467 834,468 834,468 833,469 833,470 833,470 832,471 832,472 832,472 831,473 831,473 830,474 830,475 830,475 829,476 829,477 829,477 828,478 828,479 828,479 827,480 827,481 827,482 827,482 826,483 826,483 825,484 825,485 825,485 824,486 824,487 824,488 824,488 823,489 823,490 823,491 823,491 822,492 822,493 822,493 821,494 821,495 821,496 821,496 820,497 820,498 820,499 820,500 820,500 819,501 819,501 818,502 818,503 818,504 818,505 818,505 817,506 817,507 817,508 817,509 817,510 817,511 817,511 816,512 816,513 816,514 816,515 816,516 816,517 816,517 815,518 815,519 815,520 815,521 815,522 815,522 814,523 814,524 814,525 814,526 814,527 814,528 814,529 814,530 814,531 814,532 814,533 814,534 814,535 814,536 814,537 814,538 814,539 814,540 814,541 814,542 814,543 814,544 814,545 814,546 814,547 814,548 814,549 814,550 814,551 814,552 815,552 815,553 815,554 815,555 815,556 815,557 816,557 816,558 816,559 816,560 816,561 816,562 816,563 817,563 817,564 817,565 817,566 817,567 817,568 818,568 818,569 818,570 818,571 818,572 819,572 819,573 819,574 820,574 820,575 820,576 820,577 820,578 821,578 821,579 821,580 821,581 822,581 822,582 822,583 823,583 823,584 823,585 823,586 824,586 824,587 824,588 824,589 825,589 825,590 825,591 826,591 826,592 827,592 827,593 827,594 828,594 828,595 828,596 828,597 829,597 829,598 829,599 830,599 830,600 831,600 831,601 831,602 832,602 832,603 832,604 833,604 833,605 834,605 834,606 834,607 835,607 835,608 836,608 836,609 836,610 837,610 837,611 838,611 838,612 839,612 839,613 840,613 840,614 840,615 841,615 841,616 842,616 842,617 843,617 843,618 843,619 844,619 844,620 845,620 846,620 846,621 846,622 847,622 847,623 848,623 848,624 849,624 850,624 850,625 850,626 851,626 851,627 852,627 853,627 853,628 854,628 854,629 855,629 855,630 856,630 856,631 857,631 858,631 858,632 859,632 859,633 859,634 860,634 861,634 861,635 862,635 863,635 863,636 864,636 864,637 865,637 866,637 866,638 867,638 868,638 868,639 869,639 869,640 870,640 870,641 871,641 872,641 873,641 873,642 874,642 875,642 875,643 876,643 877,643 877,644 878,644 879,644 879,645 880,645 881,645 881,646 882,646 883,646 884,646 884,647 885,647 886,647 886,648 887,648 888,648 889,648 890,648 890,649 891,649 892,649 893,649 894,649 895,649 895,650 896,650 897,650 898,650 899,650 900,650 900,651 901,651 902,651 903,651 904,651 905,651 905,652 906,652 907,652 908,652 909,652 910,652 911,652 912,652 913,652 914,652 915,652 916,652 917,652 918,652 919,652 920,652 921,652 922,652 922,652" stroke="black" stroke-width="1" /><polyline fill="none" points="508,620 507,620 506,620 505,620 504,620 503,620 502,620 501,620 500,620 499,620 498,620 497,620 496,620 495,620 494,620 493,620 492,620 491,620 490,620 489,620 488,620 487,620 486,620 485,620 484,620 484,619 483,619 482,619 481,619 480,619 479,619 478,619 478,618 477,618 476,618 475,618 475,617 474,617 473,617 472,617 471,617 471,616 470,616 469,616 468,616 468,615 467,615 466,615 465,615 465,614 464,614 464,613 463,613 462,613 461,613 461,612 460,612 459,612 459,611 458,611 457,611 457,610 456,610 456,609 455,609 454,609 454,608 453,608 452,608 452,607 451,607 451,606 450,606 449,606 449,605 448,605 448,604 447,604 447,603 446,603 445,603 445,602 444,602 444,601 443,601 442,601 442,600 442,599 441,599 441,598 440,598 440,597 439,597 438,597 438,596 438,595 437,595 437,594 436,594 436,593 435,593 434,593 434,592 434,591 433,591 433,590 432,590 432,589 432,588 431,588 431,587 430,587 430,586 429,586 429,585 429,584 428,584 428,583 427,583 427,582 427,581 426,581 426,580 426,579 425,579 425,578 425,577 424,577 424,576 423,576 423,575 423,574 422,574 422,573 422,572 422,571 421,571 421,570 420,570 420,569 420,568 420,567 419,567 419,566 419,565 419,564 418,564 418,563 418,562 418,561 418,560 417,560 417,559 417,558 416,558 416,557 416,556 416,555 416,554 416,553 415,553 415,552 415,551 415,550 415,549 415,548 415,547 415,546 415,545 415,544 415,543 414,543 414,542 414,541 414,540 414,539 414,538 414,537 414,536 414,535 414,534 414,533 414,532 414,531 415,530 415,530 415,529 415,528 415,527 415,526 415,525 415,524 415,523 415,522 416,521 416,521 416,520 416,519 416,518 416,517 417,516 417,516 417,515 417,514 418,513 418,513 418,512 418,511 419,510 419,510 419,509 419,508 420,507 420,507 420,506 420,505 421,504 421,504 422,503 422,503 422,502 422,501 423,500 423,500 423,499 423,498 424,497 424,497 425,496 425,496 425,495 426,494 426,494 427,493 427,493 427,492 427,491 428,490 429,490 429,490 429,489 430,488 430,488 430,487 431,486 431,486 432,485 432,485 433,484 433,484 434,483 434,483 434,482 435,481 435,481 436,480 436,480 437,479 437,479 438,478 438,478 439,477 440,477 440,477 440,476 441,475 441,475 442,474 442,474 443,473 444,473 444,473 445,472 445,472 446,471 446,471 447,470 448,470 448,470 448,469 449,468 450,468 450,468 451,467 452,467 452,467 453,466 453,466 454,465 455,465 455,465 456,464 457,464 457,464 458,463 459,463 459,463 460,462 460,462 461,461 462,461 462,461 463,460 464,460 465,460 465,460 466,459 467,459 468,459 468,459 469,458 470,458 470,458 471,457 472,457 473,457 473,457 474,456 475,456 476,456 477,456 478,456 478,456 479,455 480,455 481,455 482,455 483,455 484,455 484,455 485,454 486,454 487,454 488,454 489,454 489,454 490,453 491,453 492,453 493,453 494,453 495,453 496,453 497,453 498,453 499,453 500,453 501,453 502,453 503,453 504,453 504,454 505,454 506,454 507,454 508,454 508,455 509,455 510,455 511,455 512,455 513,455 514,455 515,455 515,456 516,456 517,456 518,456 519,456 519,457 520,457 521,457 522,457 523,457 523,458 524,458 524,459 525,459 526,459 527,459 527,460 528,460 529,460 530,460 530,461 531,461 532,461 532,462 533,462 534,462 534,463 535,463 535,464 536,464 537,464 538,464 538,465 538,466 539,466 540,466 541,466 541,467 542,467 542,468 543,468 543,469 544,469 545,469 545,470 546,470 546,471 547,471 548,471 548,472 549,472 550,472 550,473 550,474 551,474 552,474 552,475 553,475 553,476 553,477 554,477 554,478 555,478 555,479 556,479 556,480 557,480 557,481 557,482 558,482 558,483 559,483 560,483 560,484 560,485 561,485 561,486 562,486 562,487 562,488 563,488 563,489 564,489 564,490 564,491 565,491 565,492 565,493 566,493 566,494 567,494 567,495 567,496 568,496 568,497 568,498 569,498 569,499 569,500 570,500 570,501 571,501 571,502 571,503 571,504 572,504 572,505 572,506 572,507 573,507 573,508 573,509 574,509 574,510 574,511 574,512 575,512 575,513 575,514 575,515 575,516 576,516 576,517 576,518 576,519 576,520 576,521 576,522 577,522 577,523 577,524 577,525 577,526 578,526 578,527 578,528 578,529 578,530 578,531 578,532 578,533 578,534 578,535 578,536 578,537 578,538 578,539 578,540 578,541 578,542 578,543 578,544 578,545 578,546 578,547 578,548 578,548 577,549 577,550 577,551 577,552 577,552 576,553 576,554 576,555 576,556 576,557 576,557 575,558 575,559 575,560 575,561 575,561 574,562 574,563 574,564 574,565 574,565 573,566 573,567 573,567 572,568 572,569 572,569 571,570 571,571 571,572 571,572 570,573 570,574 570,574 569,575 569,576 569,576 568,577 568,578 568,578 567,579 567,580 567,580 566,581 566,581 565,582 565,583 565,583 564,584 564,584 563,585 563,586 563,586 562,587 562,587 561,588 561,589 561,589 560,590 560,590 559,591 559,591 558,592 558,592 557,593 557,594 557,594 556,595 556,595 555,595 554,596 554,597 554,597 553,598 553,598 552,599 552,599 551,600 551,600 550,600 549,601 549,601 548,602 548,602 547,603 547,603 546,604 546,604 545,605 545,605 544,605 543,606 543,606 542,606 541,607 541,607 540,608 540,608 539,608 538,609 538,609 537,610 537,610 536,610 535,610 534,611 534,611 533,612 533,612 532,612 531,613 531,613 530,613 529,613 528,614 528,614 527,615 527,615 526,615 525,615 524,616 524,616 523,616 522,616 521,617 521,617 520,617 519,617 518,617 517,618 517,618 516,618 515,618 514,619 514,619 513,619 512,619 511,619 510,619 509,619 508,620 508,620" stroke="black" stroke-width="1" /><polyline fill="none" points="924,620 923,620 922,620 921,620 920,620 919,620 918,620 917,620 916,620 915,620 914,620 913,620 912,620 911,620 910,620 909,620 908,620 907,620 906,620 905,620 904,620 903,620 902,620 901,620 900,620 899,620 899,619 898,619 897,619 896,619 895,619 894,619 893,619 893,618 892,618 891,618 891,617 890,617 889,617 888,617 887,617 887,616 886,616 885,616 884,616 883,616 883,615 882,615 881,615 881,614 880,614 879,614 879,613 878,613 877,613 877,612 876,612 875,612 874,612 874,611 873,611 873,610 872,610 871,610 871,609 870,609 869,609 869,608 868,608 867,608 867,607 866,607 866,606 865,606 865,605 864,605 863,605 863,604 862,604 862,603 861,603 861,602 860,602 860,601 859,601 858,601 858,600 857,600 857,599 856,599 856,598 855,598 855,597 854,597 854,596 853,596 853,595 852,595 852,594 851,594 851,593 850,593 850,592 850,591 849,591 849,590 848,590 847,590 847,589 847,588 846,588 846,587 846,586 845,586 845,585 844,585 844,584 843,584 843,583 843,582 842,582 842,581 842,580 841,580 841,579 840,579 840,578 840,577 839,577 839,576 839,575 838,575 838,574 838,573 838,572 837,572 837,571 836,571 836,570 836,569 836,568 835,568 835,567 835,566 835,565 834,565 834,564 834,563 834,562 833,562 833,561 833,560 832,560 832,559 832,558 832,557 832,556 832,555 831,555 831,554 831,553 831,552 831,551 831,550 831,549 830,549 830,548 830,547 830,546 830,545 830,544 830,543 830,542 829,542 829,541 829,540 829,539 829,538 829,537 829,536 829,535 829,534 829,533 830,532 830,532 830,531 830,530 830,529 830,528 830,527 830,526 831,525 831,525 831,524 831,523 831,522 831,521 831,520 832,519 832,519 832,518 832,517 832,516 832,515 833,514 833,514 833,513 834,512 834,512 834,511 834,510 834,509 835,508 835,508 835,507 835,506 836,505 836,505 836,504 837,503 837,503 837,502 838,501 838,501 838,500 839,499 839,499 839,498 840,497 840,497 840,496 841,495 841,495 841,494 842,493 842,493 843,492 843,492 843,491 844,490 844,490 845,489 845,489 845,488 846,487 846,487 847,486 847,486 847,485 848,484 848,484 849,483 849,483 850,482 850,482 851,481 851,481 852,480 852,480 853,479 853,479 854,478 854,478 855,477 855,477 856,476 856,476 857,475 857,475 858,474 858,474 859,473 859,473 860,472 860,472 861,471 862,471 862,471 863,470 863,470 864,469 864,469 865,468 865,468 866,467 867,467 867,467 868,466 869,466 869,466 870,465 870,465 871,464 872,464 872,464 873,463 874,463 874,463 875,462 875,462 876,461 877,461 877,461 878,460 879,460 880,460 880,460 881,459 882,459 883,459 883,459 884,458 885,458 885,458 886,457 887,457 888,457 888,457 889,456 890,456 891,456 892,456 893,456 893,456 894,455 895,455 896,455 897,455 898,455 899,455 899,455 900,454 901,454 902,454 903,454 904,454 904,454 905,453 906,453 907,453 908,453 909,453 910,453 911,453 912,453 913,453 914,453 915,453 916,453 917,453 918,453 919,453 919,454 920,454 921,454 922,454 923,454 924,454 924,455 925,455 926,455 927,455 928,455 929,455 930,455 930,456 931,456 932,456 933,456 934,456 935,456 935,457 936,457 937,457 938,457 938,458 939,458 940,458 940,459 941,459 942,459 943,459 943,460 944,460 945,460 946,460 946,461 947,461 948,461 948,462 949,462 949,463 950,463 951,463 951,464 952,464 953,464 953,465 954,465 954,466 955,466 956,466 956,467 957,467 958,467 958,468 959,468 959,469 960,469 960,470 961,470 961,471 962,471 963,471 963,472 964,472 964,473 965,473 965,474 966,474 966,475 967,475 967,476 968,476 968,477 969,477 969,478 970,478 970,479 971,479 971,480 972,480 972,481 973,481 973,482 974,482 974,483 975,483 975,484 976,484 976,485 976,486 977,486 977,487 978,487 978,488 978,489 979,489 979,490 980,490 980,491 980,492 981,492 981,493 982,493 982,494 982,495 983,495 983,496 983,497 984,497 984,498 985,498 985,499 985,500 985,501 986,501 986,502 986,503 987,503 987,504 987,505 988,505 988,506 988,507 988,508 989,508 989,509 989,510 989,511 989,512 990,512 990,513 990,514 991,514 991,515 991,516 991,517 991,518 991,519 992,519 992,520 992,521 992,522 992,523 992,524 992,525 993,525 993,526 993,527 993,528 993,529 993,530 993,531 994,531 994,532 994,533 994,534 994,535 994,536 994,537 994,538 994,539 994,540 994,541 994,542 994,543 994,543 993,544 993,545 993,546 993,547 993,548 993,549 993,549 992,550 992,551 992,552 992,553 992,554 992,555 992,555 991,556 991,557 991,558 991,559 991,560 991,560 990,561 990,562 990,562 989,563 989,564 989,565 989,565 988,566 988,567 988,568 988,568 987,569 987,570 987,571 987,571 986,572 986,572 985,573 985,574 985,575 985,575 984,576 984,577 984,577 983,578 983,579 983,579 982,580 982,580 981,581 981,582 981,582 980,583 980,584 980,584 979,585 979,585 978,586 978,586 977,587 977,588 977,588 976,589 976,590 976,590 975,590 974,591 974,591 973,592 973,593 973,593 972,594 972,594 971,595 971,595 970,596 970,596 969,597 969,597 968,598 968,598 967,599 967,599 966,600 966,600 965,601 965,601 964,601 963,602 963,602 962,603 962,603 961,604 961,604 960,605 960,605 959,605 958,606 958,606 957,607 957,607 956,608 956,608 955,608 954,609 954,609 953,609 952,610 952,610 951,610 950,611 950,611 949,612 949,612 948,612 947,613 947,613 946,613 945,613 944,614 944,614 943,614 942,615 942,615 941,615 940,616 940,616 939,616 938,616 937,616 936,617 936,617 935,617 934,617 933,617 932,618 932,618 931,618 930,619 930,619 929,619 928,619 927,619 926,619 925,619 924,620 924,620" stroke="black" stroke-width="1" /><polyline fill="none" points="537,496 538,495 539,495 540,495 541,495 542,495 542,495 543,494 544,494 544,494 545,493 546,493 547,493 547,493 548,492 548,492 549,491 549,491 550,490 550,490 551,489 551,489 552,488 552,488 552,487 552,486 553,485 553,485 553,484 553,483 553,482 552,482 552,481 552,480 552,479 551,479 551,478 550,478 550,477 549,477 549,476 548,476 548,475 547,475 547,474 546,474 545,474 545,473 544,473 543,473 542,473 542,472 541,472 540,472 539,472 538,472 537,472 537,471 536,471 535,471 534,472 534,472 533,472 532,472 531,472 530,472 529,472 528,473 528,473 527,473 526,474 526,474 525,474 524,475 524,475 523,476 523,476 522,476 521,477 521,477 520,478 520,479 520,479 519,480 519,481 519,481 518,482 518,483 518,484 518,485 518,486 519,486 519,487 519,488 520,488 520,489 521,489 521,490 522,490 522,491 523,491 523,492 524,492 524,493 525,493 526,493 526,494 527,494 528,494 528,495 529,495 530,495 531,495 532,495 533,495 534,495 534,496 535,496 536,496 537,496 537,496" stroke="black" stroke-width="1" /><polyline fill="none" points="934,496 935,495 936,495 937,495 938,495 939,495 939,495 940,494 941,494 941,494 942,493 943,493 943,493 944,492 945,492 945,492 946,491 946,491 947,490 947,490 947,489 948,488 949,488 949,488 949,487 949,486 949,485 950,484 950,484 950,483 949,483 949,482 949,481 949,480 949,479 948,479 948,478 947,478 947,477 946,477 946,476 945,476 945,475 944,475 943,475 943,474 942,474 942,473 941,473 940,473 939,473 939,472 938,472 937,472 936,472 935,472 934,472 933,472 933,471 932,471 931,472 931,472 930,472 929,472 928,472 927,472 926,472 925,473 925,473 924,473 923,473 922,474 922,474 921,475 921,475 920,475 919,476 919,476 918,477 918,477 917,478 917,478 916,479 916,480 916,480 915,481 915,482 915,483 915,484 915,485 915,486 915,487 916,487 916,488 917,488 917,489 918,489 918,490 919,490 919,491 919,492 920,492 921,492 921,493 922,493 923,493 923,494 924,494 925,494 925,495 926,495 927,495 928,495 929,495 930,495 930,496 931,496 932,496 933,496 934,496 934,496" stroke="black" stroke-width="1" /></svg>